<svg xmlns="http://www.w3.org/2000/svg" viewBox="0 0 600 600" width="600" height="600" preserveAspectRatio="xMidYMid meet" style="width: 100%; height: 100%; transform: translate3d(0px, 0px, 0px);"><defs><clipPath id="__lottie_element_64"><rect width="600" height="600" x="0" y="0"></rect></clipPath><filter id="__lottie_element_80" filterUnits="objectBoundingBox" x="0%" y="0%" width="100%" height="100%"><feGaussianBlur in="SourceAlpha" result="drop_shadow_1" stdDeviation="3.75"></feGaussianBlur><feOffset dx="3.5355339059327378" dy="3.5355339059327373" in="drop_shadow_1" result="drop_shadow_2"></feOffset><feFlood flood-color="#000000" flood-opacity="0.05" result="drop_shadow_3"></feFlood><feComposite in="drop_shadow_3" in2="drop_shadow_2" operator="in" result="drop_shadow_4"></feComposite><feMerge><feMergeNode></feMergeNode><feMergeNode in="SourceGraphic"></feMergeNode></feMerge></filter><filter id="__lottie_element_82" filterUnits="objectBoundingBox" x="0%" y="0%" width="100%" height="100%"><feColorMatrix type="matrix" color-interpolation-filters="sRGB" values="0 0 0 0 0.7529412508010864 0 0 0 0 0.9058824181556702 0 0 0 0 0.9137255549430847 0 0 0 1 0"></feColorMatrix></filter><filter id="__lottie_element_106" filterUnits="objectBoundingBox" x="0%" y="0%" width="100%" height="100%"><feColorMatrix type="matrix" color-interpolation-filters="sRGB" values="0 0 0 0 0.8980392217636108 0 0 0 0 0.886274516582489 0 0 0 0 0.9254902005195618 0 0 0 1 0"></feColorMatrix></filter><filter id="__lottie_element_109" filterUnits="objectBoundingBox" x="0%" y="0%" width="100%" height="100%"><feColorMatrix type="matrix" color-interpolation-filters="sRGB" values="0 0 0 0 0.8980392217636108 0 0 0 0 0.886274516582489 0 0 0 0 0.9254902005195618 0 0 0 1 0"></feColorMatrix></filter><filter id="__lottie_element_112" filterUnits="objectBoundingBox" x="0%" y="0%" width="100%" height="100%"><feColorMatrix type="matrix" color-interpolation-filters="sRGB" values="0 0 0 0 0.8980392217636108 0 0 0 0 0.886274516582489 0 0 0 0 0.9254902005195618 0 0 0 1 0"></feColorMatrix></filter></defs><g clip-path="url(#__lottie_element_64)"><g transform="matrix(0.9781476259231567,0.2079116851091385,-0.2079116851091385,0.9781476259231567,411.5530090332031,308.16400146484375)" opacity="1" style="display: block;"><g opacity="1" transform="matrix(1,0,0,1,0.3310000002384186,0.9309999942779541)"><path fill="rgb(255,255,255)" fill-opacity="1" d=" M116.1240005493164,-193.51699829101562 C116.1240005493164,-193.51699829101562 116.1240005493164,193.51699829101562 116.1240005493164,193.51699829101562 C116.1240005493164,198.48410034179688 112.09110260009766,202.51699829101562 107.1240005493164,202.51699829101562 C107.1240005493164,202.51699829101562 -107.1240005493164,202.51699829101562 -107.1240005493164,202.51699829101562 C-112.09110260009766,202.51699829101562 -116.1240005493164,198.48410034179688 -116.1240005493164,193.51699829101562 C-116.1240005493164,193.51699829101562 -116.1240005493164,-193.51699829101562 -116.1240005493164,-193.51699829101562 C-116.1240005493164,-198.48410034179688 -112.09110260009766,-202.51699829101562 -107.1240005493164,-202.51699829101562 C-107.1240005493164,-202.51699829101562 107.1240005493164,-202.51699829101562 107.1240005493164,-202.51699829101562 C112.09110260009766,-202.51699829101562 116.1240005493164,-198.48410034179688 116.1240005493164,-193.51699829101562z"></path><path stroke-linecap="butt" stroke-linejoin="miter" fill-opacity="0" stroke-miterlimit="4" stroke="rgb(201,201,201)" stroke-opacity="1" stroke-width="1" d=" M116.1240005493164,-193.51699829101562 C116.1240005493164,-193.51699829101562 116.1240005493164,193.51699829101562 116.1240005493164,193.51699829101562 C116.1240005493164,198.48410034179688 112.09110260009766,202.51699829101562 107.1240005493164,202.51699829101562 C107.1240005493164,202.51699829101562 -107.1240005493164,202.51699829101562 -107.1240005493164,202.51699829101562 C-112.09110260009766,202.51699829101562 -116.1240005493164,198.48410034179688 -116.1240005493164,193.51699829101562 C-116.1240005493164,193.51699829101562 -116.1240005493164,-193.51699829101562 -116.1240005493164,-193.51699829101562 C-116.1240005493164,-198.48410034179688 -112.09110260009766,-202.51699829101562 -107.1240005493164,-202.51699829101562 C-107.1240005493164,-202.51699829101562 107.1240005493164,-202.51699829101562 107.1240005493164,-202.51699829101562 C112.09110260009766,-202.51699829101562 116.1240005493164,-198.48410034179688 116.1240005493164,-193.51699829101562z"></path></g></g><g transform="matrix(0.9781476259231567,0.2079116851091385,-0.2079116851091385,0.9781476259231567,394.845458984375,160.97384643554688)" opacity="1" style="display: block;"><g opacity="1" transform="matrix(1,0,0,1,26.108999252319336,26.110000610351562)"><path fill="rgb(195,189,212)" fill-opacity="1" d=" M-0.0010000000474974513,-23.209999084472656 C12.812000274658203,-23.209999084472656 23.198999404907227,-12.822999954223633 23.198999404907227,-0.009999999776482582 C23.198999404907227,12.805000305175781 12.810999870300293,23.19499969482422 -0.004999999888241291,23.19499969482422 C-12.819999694824219,23.19499969482422 -23.209999084472656,12.805000305175781 -23.209999084472656,-0.009999999776482582 C-23.209999084472656,-12.822999954223633 -12.822999954223633,-23.209999084472656 -0.009999999776482582,-23.209999084472656 M-0.009999999776482582,-26.108999252319336 C-14.430000305175781,-26.10300064086914 -26.114999771118164,-14.40999984741211 -26.108999252319336,0.009999999776482582 C-26.10300064086914,14.430000305175781 -14.40999984741211,26.114999771118164 0.009999999776482582,26.108999252319336 C14.425999641418457,26.10300064086914 26.108999252319336,14.414999961853027 26.108999252319336,-0.0010000000474974513 C26.108999252319336,-14.420999526977539 14.420999526977539,-26.108999252319336 0.0010000000474974513,-26.108999252319336 C0.0010000000474974513,-26.108999252319336 -0.0010000000474974513,-26.108999252319336 -0.0010000000474974513,-26.108999252319336 C-0.0010000000474974513,-26.108999252319336 -0.009999999776482582,-26.108999252319336 -0.009999999776482582,-26.108999252319336z"></path></g><g opacity="1" transform="matrix(1,0,0,1,26.110000610351562,21.327999114990234)"><path fill="rgb(195,189,212)" fill-opacity="1" d=" M0,10.395000457763672 C-5.741000175476074,10.395000457763672 -10.395000457763672,5.741000175476074 -10.395000457763672,0 C-10.395000457763672,-5.741000175476074 -5.741000175476074,-10.395000457763672 0,-10.395000457763672 C5.741000175476074,-10.395000457763672 10.395000457763672,-5.741000175476074 10.395000457763672,0 C10.395000457763672,5.741000175476074 5.741000175476074,10.395000457763672 0,10.395000457763672z M0,-7.456999778747559 C-4.142000198364258,-7.456999778747559 -7.5,-4.098999977111816 -7.5,0.0430000014603138 C-7.5,4.184999942779541 -4.142000198364258,7.543000221252441 0,7.543000221252441 C4.142000198364258,7.543000221252441 7.5,4.184999942779541 7.5,0.0430000014603138 C7.500999927520752,-4.098999977111816 4.14300012588501,-7.456999778747559 0.0010000000474974513,-7.458000183105469 C0.0010000000474974513,-7.458000183105469 0,-7.458000183105469 0,-7.458000183105469 C0,-7.458000183105469 0,-7.456999778747559 0,-7.456999778747559z"></path></g><g opacity="1" transform="matrix(1,0,0,1,26.082000732421875,38.27000045776367)"><path fill="rgb(195,189,212)" fill-opacity="1" d=" M14.135000228881836,4.468999862670898 C13.706999778747559,4.468999862670898 13.300999641418457,4.281000137329102 13.024999618530273,3.9549999237060547 C9.722000122070312,0.26100000739097595 4.980000019073486,-1.8220000267028809 0.02500000037252903,-1.75600004196167 C-4.929999828338623,-1.8220000267028809 -9.670999526977539,0.26100000739097595 -12.975000381469727,3.9549999237060547 C-13.467000007629395,4.589000225067139 -14.380000114440918,4.703999996185303 -15.013999938964844,4.2129998207092285 C-15.64799976348877,3.7209999561309814 -15.762999534606934,2.808000087738037 -15.270999908447266,2.1740000247955322 C-15.244999885559082,2.140000104904175 -15.218000411987305,2.1080000400543213 -15.189000129699707,2.0769999027252197 C-11.32699966430664,-2.25600004196167 -5.7769999504089355,-4.703000068664551 0.027000000700354576,-4.63100004196167 C5.830999851226807,-4.703999996185303 11.381999969482422,-2.256999969482422 15.244000434875488,2.0769999027252197 C15.762999534606934,2.687999963760376 15.689000129699707,3.6050000190734863 15.07699966430664,4.124000072479248 C14.814000129699707,4.3470001220703125 14.479999542236328,4.46999979019165 14.135000228881836,4.468999862670898z"></path></g><g opacity="1" transform="matrix(1,0,0,1,68.39199829101562,26.312000274658203)"><path fill="rgb(255,254,255)" fill-opacity="1" d=" M0,-25.441999435424805 C14.050999641418457,-25.441999435424805 25.441999435424805,-14.050999641418457 25.441999435424805,0 C25.441999435424805,14.050999641418457 14.050999641418457,25.441999435424805 0,25.441999435424805 C-14.050999641418457,25.441999435424805 -25.441999435424805,14.050999641418457 -25.441999435424805,0 C-25.441999435424805,-14.050999641418457 -14.050999641418457,-25.441999435424805 0,-25.441999435424805z"></path></g><g opacity="1" transform="matrix(1,0,0,1,68.39199829101562,26.312000274658203)"><path stroke-linecap="butt" stroke-linejoin="miter" fill-opacity="0" stroke-miterlimit="4" stroke="rgb(192,230,232)" stroke-opacity="1" stroke-width="1" d=" M0,-24.941999435424805 C13.774999618530273,-24.941999435424805 24.941999435424805,-13.774999618530273 24.941999435424805,0 C24.941999435424805,13.774999618530273 13.774999618530273,24.941999435424805 0,24.941999435424805 C-13.774999618530273,24.941999435424805 -24.941999435424805,13.774999618530273 -24.941999435424805,0 C-24.941999435424805,-13.774999618530273 -13.774999618530273,-24.941999435424805 0,-24.941999435424805z"></path></g><g opacity="1" transform="matrix(1,0,0,1,67.57599639892578,26.110000610351562)"><path fill="rgb(192,230,232)" fill-opacity="1" d=" M0.0020000000949949026,-23.209999084472656 C12.8149995803833,-23.209999084472656 23.20199966430664,-12.822999954223633 23.20199966430664,-0.009999999776482582 C23.20199966430664,12.805000305175781 12.812999725341797,23.19499969482422 -0.0020000000949949026,23.19499969482422 C-12.817999839782715,23.19499969482422 -23.207000732421875,12.805000305175781 -23.207000732421875,-0.009999999776482582 C-23.207000732421875,-12.822999954223633 -12.819999694824219,-23.209999084472656 -0.007000000216066837,-23.209999084472656 M-0.007000000216066837,-26.108999252319336 C-14.427000045776367,-26.10300064086914 -26.11199951171875,-14.40999984741211 -26.106000900268555,0.009999999776482582 C-26.100000381469727,14.430000305175781 -14.406999588012695,26.114999771118164 0.013000000268220901,26.108999252319336 C14.428999900817871,26.10300064086914 26.11199951171875,14.414999961853027 26.11199951171875,-0.0010000000474974513 C26.11199951171875,-14.420999526977539 14.42300033569336,-26.108999252319336 0.003000000026077032,-26.108999252319336 C0.003000000026077032,-26.108999252319336 0.0020000000949949026,-26.108999252319336 0.0020000000949949026,-26.108999252319336 C0.0020000000949949026,-26.108999252319336 -0.007000000216066837,-26.108999252319336 -0.007000000216066837,-26.108999252319336z"></path></g><g opacity="1" transform="matrix(1,0,0,1,67.5790023803711,21.327999114990234)"><path fill="rgb(192,230,232)" fill-opacity="1" d=" M0,10.395000457763672 C-5.741000175476074,10.395000457763672 -10.395000457763672,5.741000175476074 -10.395000457763672,0 C-10.395000457763672,-5.741000175476074 -5.741000175476074,-10.395000457763672 0,-10.395000457763672 C5.741000175476074,-10.395000457763672 10.395000457763672,-5.741000175476074 10.395000457763672,0 C10.395000457763672,5.741000175476074 5.741000175476074,10.395000457763672 0,10.395000457763672z M0,-7.456999778747559 C-4.142000198364258,-7.456999778747559 -7.5,-4.098999977111816 -7.5,0.0430000014603138 C-7.5,4.184999942779541 -4.142000198364258,7.543000221252441 0,7.543000221252441 C4.142000198364258,7.543000221252441 7.5,4.184999942779541 7.5,0.0430000014603138 C7.500999927520752,-4.098999977111816 4.14300012588501,-7.456999778747559 0.0010000000474974513,-7.458000183105469 C0.0010000000474974513,-7.458000183105469 0,-7.458000183105469 0,-7.458000183105469 C0,-7.458000183105469 0,-7.456999778747559 0,-7.456999778747559z"></path></g><g opacity="1" transform="matrix(1,0,0,1,67.5510025024414,38.27000045776367)"><path fill="rgb(192,230,232)" fill-opacity="1" d=" M14.135000228881836,4.468999862670898 C13.706999778747559,4.468999862670898 13.300999641418457,4.281000137329102 13.024999618530273,3.9549999237060547 C9.720999717712402,0.26100000739097595 4.980000019073486,-1.8220000267028809 0.02500000037252903,-1.75600004196167 C-4.929999828338623,-1.8220000267028809 -9.67199993133545,0.26100000739097595 -12.975000381469727,3.9549999237060547 C-13.467000007629395,4.589000225067139 -14.380000114440918,4.703999996185303 -15.013999938964844,4.2129998207092285 C-15.64799976348877,3.7209999561309814 -15.762999534606934,2.808000087738037 -15.270999908447266,2.1740000247955322 C-15.244999885559082,2.140000104904175 -15.218000411987305,2.1080000400543213 -15.189000129699707,2.0769999027252197 C-11.32699966430664,-2.25600004196167 -5.7769999504089355,-4.703000068664551 0.027000000700354576,-4.63100004196167 C5.830999851226807,-4.703999996185303 11.381999969482422,-2.256999969482422 15.244000434875488,2.0769999027252197 C15.762999534606934,2.687999963760376 15.689000129699707,3.6050000190734863 15.07699966430664,4.124000072479248 C14.814000129699707,4.3470001220703125 14.479999542236328,4.46999979019165 14.135000228881836,4.468999862670898z"></path></g></g><g style="display: block;" transform="matrix(0.9743701219558716,0.22495105862617493,-0.22495105862617493,0.9743701219558716,370.71038818359375,238.75048828125)" opacity="1"><g opacity="1" transform="matrix(1,0,0,1,0,0)"><path fill="rgb(129,112,151)" fill-opacity="1" d=" M99.73600006103516,3.2269999980926514 C99.73600006103516,3.2269999980926514 102.27300262451172,3.2269999980926514 102.27300262451172,3.2269999980926514 C102.27300262451172,3.2269999980926514 107.40299987792969,-9.480999946594238 107.40299987792969,-9.480999946594238 C107.40299987792969,-9.480999946594238 104.88400268554688,-9.480999946594238 104.88400268554688,-9.480999946594238 C104.88400268554688,-9.480999946594238 102.76300048828125,-3.7890000343322754 102.76300048828125,-3.7890000343322754 C102.76300048828125,-3.7890000343322754 100.46099853515625,-9.480999946594238 100.46099853515625,-9.480999946594238 C100.46099853515625,-9.480999946594238 97.63300323486328,-9.480999946594238 97.63300323486328,-9.480999946594238 C97.63300323486328,-9.480999946594238 101.40299987792969,-0.9610000252723694 101.40299987792969,-0.9610000252723694 C101.40299987792969,-0.9610000252723694 99.73600006103516,3.2269999980926514 99.73600006103516,3.2269999980926514z"></path></g><g opacity="1" transform="matrix(1,0,0,1,0,0)"><path fill="rgb(129,112,151)" fill-opacity="1" d=" M90.41799926757812,-5.764999866485596 C90.61699676513672,-7.105999946594238 91.41500091552734,-7.885000228881836 92.59300231933594,-7.885000228881836 C93.84400177001953,-7.885000228881836 94.56900024414062,-7.197000026702881 94.66000366210938,-5.764999866485596 C94.66000366210938,-5.764999866485596 90.41799926757812,-5.764999866485596 90.41799926757812,-5.764999866485596z M92.66600036621094,0.19900000095367432 C95.25800323486328,0.19900000095367432 96.88999938964844,-0.9430000185966492 97.197998046875,-2.990999937057495 C97.197998046875,-2.990999937057495 94.71399688720703,-2.990999937057495 94.71399688720703,-2.990999937057495 C94.5510025024414,-2.193000078201294 93.9530029296875,-1.6679999828338623 92.73799896240234,-1.6679999828338623 C91.30599975585938,-1.6679999828338623 90.45500183105469,-2.5739998817443848 90.38200378417969,-4.151000022888184 C90.38200378417969,-4.151000022888184 97.21600341796875,-4.151000022888184 97.21600341796875,-4.151000022888184 C97.21600341796875,-4.151000022888184 97.21600341796875,-4.875999927520752 97.21600341796875,-4.875999927520752 C97.21600341796875,-8.265999794006348 95.04000091552734,-9.697999954223633 92.59300231933594,-9.697999954223633 C89.83799743652344,-9.697999954223633 87.71700286865234,-7.758999824523926 87.71700286865234,-4.76800012588501 C87.71700286865234,-4.76800012588501 87.71700286865234,-4.622000217437744 87.71700286865234,-4.622000217437744 C87.71700286865234,-1.5950000286102295 89.802001953125,0.19900000095367432 92.66600036621094,0.19900000095367432z"></path></g><g opacity="1" transform="matrix(1,0,0,1,0,0)"><path fill="rgb(129,112,151)" fill-opacity="1" d=" M77.22699737548828,0 C77.22699737548828,0 79.85600280761719,0 79.85600280761719,0 C79.85600280761719,0 79.85600280761719,-5.473999977111816 79.85600280761719,-5.473999977111816 C79.85600280761719,-6.869999885559082 80.70800018310547,-7.559000015258789 81.83200073242188,-7.559000015258789 C82.99199676513672,-7.559000015258789 83.4990005493164,-6.942999839782715 83.4990005493164,-5.656000137329102 C83.4990005493164,-5.656000137329102 83.4990005493164,0 83.4990005493164,0 C83.4990005493164,0 86.12799835205078,0 86.12799835205078,0 C86.12799835205078,0 86.12799835205078,-6.035999774932861 86.12799835205078,-6.035999774932861 C86.12799835205078,-8.574000358581543 84.80400085449219,-9.697999954223633 82.93699645996094,-9.697999954223633 C81.36000061035156,-9.697999954223633 80.3270034790039,-8.918999671936035 79.85600280761719,-7.97599983215332 C79.85600280761719,-7.97599983215332 79.85600280761719,-9.480999946594238 79.85600280761719,-9.480999946594238 C79.85600280761719,-9.480999946594238 77.22699737548828,-9.480999946594238 77.22699737548828,-9.480999946594238 C77.22699737548828,-9.480999946594238 77.22699737548828,0 77.22699737548828,0z"></path></g><g opacity="1" transform="matrix(1,0,0,1,0,0)"><path fill="rgb(129,112,151)" fill-opacity="1" d=" M70.56199645996094,-1.7949999570846558 C69.07599639892578,-1.7949999570846558 68.24199676513672,-2.881999969482422 68.24199676513672,-4.695000171661377 C68.24199676513672,-4.695000171661377 68.24199676513672,-4.840000152587891 68.24199676513672,-4.840000152587891 C68.24199676513672,-6.6529998779296875 69.11199951171875,-7.703999996185303 70.56199645996094,-7.703999996185303 C72.02999877929688,-7.703999996185303 72.88300323486328,-6.617000102996826 72.88300323486328,-4.803999900817871 C72.88300323486328,-4.803999900817871 72.88300323486328,-4.677000045776367 72.88300323486328,-4.677000045776367 C72.88300323486328,-2.881999969482422 72.02999877929688,-1.7949999570846558 70.56199645996094,-1.7949999570846558z M70.54399871826172,0.19900000095367432 C73.38999938964844,0.19900000095367432 75.5469970703125,-1.7039999961853027 75.5469970703125,-4.695000171661377 C75.5469970703125,-4.695000171661377 75.5469970703125,-4.840000152587891 75.5469970703125,-4.840000152587891 C75.5469970703125,-7.795000076293945 73.40799713134766,-9.697999954223633 70.56199645996094,-9.697999954223633 C67.71600341796875,-9.697999954223633 65.55899810791016,-7.758999824523926 65.55899810791016,-4.785999774932861 C65.55899810791016,-4.785999774932861 65.55899810791016,-4.640999794006348 65.55899810791016,-4.640999794006348 C65.55899810791016,-1.6859999895095825 67.71600341796875,0.19900000095367432 70.54399871826172,0.19900000095367432z"></path></g><g opacity="1" transform="matrix(1,0,0,1,0,0)"><path fill="rgb(129,112,151)" fill-opacity="1" d=" M50.04899978637695,0 C50.04899978637695,0 52.678001403808594,0 52.678001403808594,0 C52.678001403808594,0 52.678001403808594,-9.100000381469727 52.678001403808594,-9.100000381469727 C52.678001403808594,-9.100000381469727 56.28499984741211,0 56.28499984741211,0 C56.28499984741211,0 57.24599838256836,0 57.24599838256836,0 C57.24599838256836,0 60.834999084472656,-9.100000381469727 60.834999084472656,-9.100000381469727 C60.834999084472656,-9.100000381469727 60.834999084472656,0 60.834999084472656,0 C60.834999084472656,0 63.75299835205078,0 63.75299835205078,0 C63.75299835205078,0 63.75299835205078,-12.961000442504883 63.75299835205078,-12.961000442504883 C63.75299835205078,-12.961000442504883 59.946998596191406,-12.961000442504883 59.946998596191406,-12.961000442504883 C59.946998596191406,-12.961000442504883 56.95600128173828,-4.894000053405762 56.95600128173828,-4.894000053405762 C56.95600128173828,-4.894000053405762 53.928001403808594,-12.961000442504883 53.928001403808594,-12.961000442504883 C53.928001403808594,-12.961000442504883 50.04899978637695,-12.961000442504883 50.04899978637695,-12.961000442504883 C50.04899978637695,-12.961000442504883 50.04899978637695,0 50.04899978637695,0z"></path></g><g opacity="1" transform="matrix(1,0,0,1,0,0)"><path fill="rgb(129,112,151)" fill-opacity="1" d=" M38.683998107910156,-1.8489999771118164 C37.37900161743164,-1.8489999771118164 36.472999572753906,-2.7739999294281006 36.472999572753906,-4.658999919891357 C36.472999572753906,-4.658999919891357 36.472999572753906,-4.803999900817871 36.472999572753906,-4.803999900817871 C36.472999572753906,-6.689000129699707 37.28900146484375,-7.685999870300293 38.75699996948242,-7.685999870300293 C40.18899917602539,-7.685999870300293 41.02299880981445,-6.724999904632568 41.02299880981445,-4.840000152587891 C41.02299880981445,-4.840000152587891 41.02299880981445,-4.695000171661377 41.02299880981445,-4.695000171661377 C41.02299880981445,-2.7730000019073486 40.0620002746582,-1.8489999771118164 38.683998107910156,-1.8489999771118164z M37.904998779296875,0.19900000095367432 C39.30099868774414,0.19900000095367432 40.46099853515625,-0.6159999966621399 40.95000076293945,-1.5770000219345093 C40.95000076293945,-1.5770000219345093 40.95000076293945,0 40.95000076293945,0 C40.95000076293945,0 43.56100082397461,0 43.56100082397461,0 C43.56100082397461,0 43.56100082397461,-13.777000427246094 43.56100082397461,-13.777000427246094 C43.56100082397461,-13.777000427246094 40.95000076293945,-13.777000427246094 40.95000076293945,-13.777000427246094 C40.95000076293945,-13.777000427246094 40.95000076293945,-8.067000389099121 40.95000076293945,-8.067000389099121 C40.42399978637695,-9.027999877929688 39.481998443603516,-9.697999954223633 37.95899963378906,-9.697999954223633 C35.58399963378906,-9.697999954223633 33.790000915527344,-7.867000102996826 33.790000915527344,-4.749000072479248 C33.790000915527344,-4.749000072479248 33.790000915527344,-4.604000091552734 33.790000915527344,-4.604000091552734 C33.790000915527344,-1.4500000476837158 35.60300064086914,0.19900000095367432 37.904998779296875,0.19900000095367432z"></path></g><g opacity="1" transform="matrix(1,0,0,1,0,0)"><path fill="rgb(129,112,151)" fill-opacity="1" d=" M23.281999588012695,0 C23.281999588012695,0 25.90999984741211,0 25.90999984741211,0 C25.90999984741211,0 25.90999984741211,-5.473999977111816 25.90999984741211,-5.473999977111816 C25.90999984741211,-6.869999885559082 26.761999130249023,-7.559000015258789 27.88599967956543,-7.559000015258789 C29.04599952697754,-7.559000015258789 29.554000854492188,-6.942999839782715 29.554000854492188,-5.656000137329102 C29.554000854492188,-5.656000137329102 29.554000854492188,0 29.554000854492188,0 C29.554000854492188,0 32.18299865722656,0 32.18299865722656,0 C32.18299865722656,0 32.18299865722656,-6.035999774932861 32.18299865722656,-6.035999774932861 C32.18299865722656,-8.574000358581543 30.858999252319336,-9.697999954223633 28.992000579833984,-9.697999954223633 C27.415000915527344,-9.697999954223633 26.381000518798828,-8.918999671936035 25.90999984741211,-7.97599983215332 C25.90999984741211,-7.97599983215332 25.90999984741211,-9.480999946594238 25.90999984741211,-9.480999946594238 C25.90999984741211,-9.480999946594238 23.281999588012695,-9.480999946594238 23.281999588012695,-9.480999946594238 C23.281999588012695,-9.480999946594238 23.281999588012695,0 23.281999588012695,0z"></path></g><g opacity="1" transform="matrix(1,0,0,1,0,0)"><path fill="rgb(129,112,151)" fill-opacity="1" d=" M14.836999893188477,-5.764999866485596 C15.03600025177002,-7.105999946594238 15.833999633789062,-7.885000228881836 17.011999130249023,-7.885000228881836 C18.26300048828125,-7.885000228881836 18.988000869750977,-7.197000026702881 19.07900047302246,-5.764999866485596 C19.07900047302246,-5.764999866485596 14.836999893188477,-5.764999866485596 14.836999893188477,-5.764999866485596z M17.084999084472656,0.19900000095367432 C19.677000045776367,0.19900000095367432 21.30900001525879,-0.9430000185966492 21.617000579833984,-2.990999937057495 C21.617000579833984,-2.990999937057495 19.132999420166016,-2.990999937057495 19.132999420166016,-2.990999937057495 C18.969999313354492,-2.193000078201294 18.371999740600586,-1.6679999828338623 17.156999588012695,-1.6679999828338623 C15.725000381469727,-1.6679999828338623 14.87399959564209,-2.5739998817443848 14.800999641418457,-4.151000022888184 C14.800999641418457,-4.151000022888184 21.635000228881836,-4.151000022888184 21.635000228881836,-4.151000022888184 C21.635000228881836,-4.151000022888184 21.635000228881836,-4.875999927520752 21.635000228881836,-4.875999927520752 C21.635000228881836,-8.265999794006348 19.458999633789062,-9.697999954223633 17.011999130249023,-9.697999954223633 C14.256999969482422,-9.697999954223633 12.13599967956543,-7.758999824523926 12.13599967956543,-4.76800012588501 C12.13599967956543,-4.76800012588501 12.13599967956543,-4.622000217437744 12.13599967956543,-4.622000217437744 C12.13599967956543,-1.5950000286102295 14.220999717712402,0.19900000095367432 17.084999084472656,0.19900000095367432z"></path></g><g opacity="1" transform="matrix(1,0,0,1,0,0)"><path fill="rgb(129,112,151)" fill-opacity="1" d=" M5.927999973297119,0.19900000095367432 C8.991999626159668,0.19900000095367432 10.87600040435791,-1.6319999694824219 10.87600040435791,-3.934000015258789 C10.87600040435791,-6.617000102996826 9.262999534606934,-7.4679999351501465 6.126999855041504,-7.867000102996826 C4.132999897003174,-8.156999588012695 3.7160000801086426,-8.593000411987305 3.7160000801086426,-9.517000198364258 C3.7160000801086426,-10.38700008392334 4.36899995803833,-10.984999656677246 5.656000137329102,-10.984999656677246 C6.942999839782715,-10.984999656677246 7.631999969482422,-10.440999984741211 7.813000202178955,-9.262999534606934 C7.813000202178955,-9.262999534606934 10.513999938964844,-9.262999534606934 10.513999938964844,-9.262999534606934 C10.277999877929688,-11.836999893188477 8.574999809265137,-13.142000198364258 5.656000137329102,-13.142000198364258 C2.7920000553131104,-13.142000198364258 0.9430000185966492,-11.493000030517578 0.9430000185966492,-9.281000137329102 C0.9430000185966492,-6.7789998054504395 2.302999973297119,-5.7829999923706055 5.619999885559082,-5.3480000495910645 C7.5229997634887695,-5.058000087738037 8.067000389099121,-4.695000171661377 8.067000389099121,-3.6619999408721924 C8.067000389099121,-2.6470000743865967 7.215000152587891,-1.940000057220459 5.927999973297119,-1.940000057220459 C4.00600004196167,-1.940000057220459 3.5169999599456787,-2.9010000228881836 3.390000104904175,-4.060999870300293 C3.390000104904175,-4.060999870300293 0.5799999833106995,-4.060999870300293 0.5799999833106995,-4.060999870300293 C0.7429999709129333,-1.468999981880188 2.375,0.19900000095367432 5.927999973297119,0.19900000095367432z"></path></g></g><g filter="url(#__lottie_element_112)" style="display: block;" transform="matrix(0.9781476259231567,0.2079116851091385,-0.2079116851091385,0.9781476259231567,349.4763488769531,281.1676025390625)" opacity="1"><g opacity="1" transform="matrix(1,0,0,1,0,0)"><path stroke-linecap="round" stroke-linejoin="round" fill-opacity="0" stroke="rgb(195,189,212)" stroke-opacity="1" stroke-width="6" d=" M3.3499999046325684,3.183000087738037 C3.3499999046325684,3.183000087738037 93.70800018310547,3.183000087738037 93.70800018310547,3.183000087738037"></path></g><g opacity="1" transform="matrix(1,0,0,1,0,0)"><path stroke-linecap="round" stroke-linejoin="round" fill-opacity="0" stroke="rgb(195,189,212)" stroke-opacity="1" stroke-width="6" d=" M3.3499999046325684,22.527999877929688 C3.3499999046325684,22.527999877929688 128.5959930419922,22.527999877929688 128.5959930419922,22.527999877929688"></path></g></g><g filter="url(#__lottie_element_109)" style="display: block;" transform="matrix(0.9781476259231567,0.2079116851091385,-0.2079116851091385,0.9781476259231567,337.1481628417969,343.9769592285156)" opacity="1"><g opacity="1" transform="matrix(1,0,0,1,0,0)"><path stroke-linecap="round" stroke-linejoin="round" fill-opacity="0" stroke="rgb(195,189,212)" stroke-opacity="1" stroke-width="6" d=" M3.3499999046325684,3.183000087738037 C3.3499999046325684,3.183000087738037 93.70800018310547,3.183000087738037 93.70800018310547,3.183000087738037"></path></g><g opacity="1" transform="matrix(1,0,0,1,0,0)"><path stroke-linecap="round" stroke-linejoin="round" fill-opacity="0" stroke="rgb(195,189,212)" stroke-opacity="1" stroke-width="6" d=" M3.3499999046325684,22.527999877929688 C3.3499999046325684,22.527999877929688 128.5959930419922,22.527999877929688 128.5959930419922,22.527999877929688"></path></g></g><g filter="url(#__lottie_element_106)" style="display: block;" transform="matrix(0.9781476259231567,0.2079116851091385,-0.2079116851091385,0.9781476259231567,324.361572265625,404.133056640625)" opacity="1"><g opacity="1" transform="matrix(1,0,0,1,0,0)"><path stroke-linecap="round" stroke-linejoin="round" fill-opacity="0" stroke="rgb(195,189,212)" stroke-opacity="1" stroke-width="6" d=" M3.3499999046325684,3.183000087738037 C3.3499999046325684,3.183000087738037 93.70800018310547,3.183000087738037 93.70800018310547,3.183000087738037"></path></g><g opacity="1" transform="matrix(1,0,0,1,0,0)"><path stroke-linecap="round" stroke-linejoin="round" fill-opacity="0" stroke="rgb(195,189,212)" stroke-opacity="1" stroke-width="6" d=" M3.3499999046325684,22.527999877929688 C3.3499999046325684,22.527999877929688 128.5959930419922,22.527999877929688 128.5959930419922,22.527999877929688"></path></g></g><g transform="matrix(1,0,0,1,329.5400085449219,300)" opacity="1" style="display: block;"><g opacity="1" transform="matrix(1,0,0,1,-156.27999877929688,-3.138000011444092)"><path fill="rgb(255,255,255)" fill-opacity="1" d=" M127.28949737548828,-220 C127.28949737548828,-220 127.28949737548828,220 127.28949737548828,220 C127.28949737548828,233.79750061035156 116.08699798583984,245 102.28949737548828,245 C102.28949737548828,245 -102.28949737548828,245 -102.28949737548828,245 C-116.08699798583984,245 -127.28949737548828,233.79750061035156 -127.28949737548828,220 C-127.28949737548828,220 -127.28949737548828,-220 -127.28949737548828,-220 C-127.28949737548828,-233.79750061035156 -116.08699798583984,-245 -102.28949737548828,-245 C-102.28949737548828,-245 102.28949737548828,-245 102.28949737548828,-245 C116.08699798583984,-245 127.28949737548828,-233.79750061035156 127.28949737548828,-220z"></path><path stroke-linecap="butt" stroke-linejoin="miter" fill-opacity="0" stroke-miterlimit="4" stroke="rgb(201,201,201)" stroke-opacity="1" stroke-width="1" d=" M127.28949737548828,-220 C127.28949737548828,-220 127.28949737548828,220 127.28949737548828,220 C127.28949737548828,233.79750061035156 116.08699798583984,245 102.28949737548828,245 C102.28949737548828,245 -102.28949737548828,245 -102.28949737548828,245 C-116.08699798583984,245 -127.28949737548828,233.79750061035156 -127.28949737548828,220 C-127.28949737548828,220 -127.28949737548828,-220 -127.28949737548828,-220 C-127.28949737548828,-233.79750061035156 -116.08699798583984,-245 -102.28949737548828,-245 C-102.28949737548828,-245 102.28949737548828,-245 102.28949737548828,-245 C116.08699798583984,-245 127.28949737548828,-233.79750061035156 127.28949737548828,-220z"></path></g></g><g transform="matrix(0.9056400060653687,0,0,0.9475200176239014,313.51300048828125,300)" opacity="1" style="display: block;"><g opacity="1" transform="matrix(1,0,0,1,-156.27999877929688,-3.138000011444092)"><path fill="rgb(195,189,213)" fill-opacity="0.3" d=" M127.28949737548828,-235 C127.28949737548828,-235 127.28949737548828,235 127.28949737548828,235 C127.28949737548828,240.5189971923828 122.8084945678711,245 117.28949737548828,245 C117.28949737548828,245 -117.28949737548828,245 -117.28949737548828,245 C-122.8084945678711,245 -127.28949737548828,240.5189971923828 -127.28949737548828,235 C-127.28949737548828,235 -127.28949737548828,-235 -127.28949737548828,-235 C-127.28949737548828,-240.5189971923828 -122.8084945678711,-245 -117.28949737548828,-245 C-117.28949737548828,-245 117.28949737548828,-245 117.28949737548828,-245 C122.8084945678711,-245 127.28949737548828,-240.5189971923828 127.28949737548828,-235z"></path><path stroke-linecap="butt" stroke-linejoin="miter" fill-opacity="0" stroke-miterlimit="4" stroke="rgb(201,201,201)" stroke-opacity="1" stroke-width="0" d=" M127.28949737548828,-235 C127.28949737548828,-235 127.28949737548828,235 127.28949737548828,235 C127.28949737548828,240.5189971923828 122.8084945678711,245 117.28949737548828,245 C117.28949737548828,245 -117.28949737548828,245 -117.28949737548828,245 C-122.8084945678711,245 -127.28949737548828,240.5189971923828 -127.28949737548828,235 C-127.28949737548828,235 -127.28949737548828,-235 -127.28949737548828,-235 C-127.28949737548828,-240.5189971923828 -122.8084945678711,-245 -117.28949737548828,-245 C-117.28949737548828,-245 117.28949737548828,-245 117.28949737548828,-245 C122.8084945678711,-245 127.28949737548828,-240.5189971923828 127.28949737548828,-235z"></path></g></g><g transform="matrix(1,0,0,1,77.79000091552734,192.5)" opacity="1" style="display: block;"><g opacity="1" transform="matrix(1,0,0,1,17.388999938964844,17.388999938964844)"><path fill="rgb(195,189,212)" fill-opacity="1" d=" M0,-15.454000473022461 C8.53499984741211,-15.454000473022461 15.454000473022461,-8.53600025177002 15.454000473022461,-0.0010000000474974513 C15.454000473022461,-0.0010000000474974513 15.454000473022461,0.0010000000474974513 15.454000473022461,0.0010000000474974513 C15.454000473022461,8.53600025177002 8.53499984741211,15.456000328063965 -0.0010000000474974513,15.456000328063965 C-8.53600025177002,15.456000328063965 -15.454999923706055,8.53600025177002 -15.454999923706055,0.0010000000474974513 C-15.456000328063965,-8.534000396728516 -8.536999702453613,-15.45300006866455 -0.0020000000949949026,-15.454000473022461 C-0.0020000000949949026,-15.454000473022461 0,-15.454000473022461 0,-15.454000473022461z M0,-17.388999938964844 C-9.604000091552734,-17.388999938964844 -17.388999938964844,-9.602999687194824 -17.388999938964844,0.0010000000474974513 C-17.388999938964844,9.604999542236328 -9.604000091552734,17.388999938964844 0,17.388999938964844 C9.604000091552734,17.388999938964844 17.388999938964844,9.604999542236328 17.388999938964844,0.0010000000474974513 C17.388999938964844,-9.602999687194824 9.604000091552734,-17.388999938964844 0,-17.388999938964844z"></path></g><g opacity="1" transform="matrix(1,0,0,1,17.388999938964844,14.204999923706055)"><path fill="rgb(195,189,212)" fill-opacity="1" d=" M0,6.922999858856201 C-3.822999954223633,6.922999858856201 -6.922999858856201,3.822999954223633 -6.922999858856201,0 C-6.922999858856201,-3.822999954223633 -3.822999954223633,-6.922999858856201 0,-6.922999858856201 C3.822999954223633,-6.922999858856201 6.922999858856201,-3.822999954223633 6.922999858856201,0 C6.922999858856201,3.822999954223633 3.822999954223633,6.922999858856201 0,6.922999858856201z M0,-4.9670000076293945 C-2.757999897003174,-4.9670000076293945 -4.99399995803833,-2.7309999465942383 -4.99399995803833,0.027000000700354576 C-4.99399995803833,2.7850000858306885 -2.757999897003174,5.020999908447266 0,5.020999908447266 C2.757999897003174,5.020999908447266 4.99399995803833,2.7850000858306885 4.99399995803833,0.027000000700354576 C4.99399995803833,-2.7309999465942383 2.757999897003174,-4.9670000076293945 0,-4.9670000076293945z"></path></g><g opacity="1" transform="matrix(1,0,0,1,17.39699935913086,25.459999084472656)"><path fill="rgb(195,189,212)" fill-opacity="1" d=" M9.38700008392334,3.003000020980835 C9.10200023651123,3.003000020980835 8.831999778747559,2.878000020980835 8.64799976348877,2.6610000133514404 C6.447999954223633,0.2029999941587448 3.2909998893737793,-1.1829999685287476 -0.00800000037997961,-1.1390000581741333 C-3.306999921798706,-1.1829999685287476 -6.4629998207092285,0.2029999941587448 -8.663000106811523,2.6610000133514404 C-9.015000343322754,3.062999963760376 -9.626999855041504,3.1040000915527344 -10.029000282287598,2.752000093460083 C-10.420999526977539,2.4079999923706055 -10.470999717712402,1.815000057220459 -10.140999794006348,1.4110000133514404 C-7.568999767303467,-1.475000023841858 -3.872999906539917,-3.1040000915527344 -0.00800000037997961,-3.055999994277954 C3.8580000400543213,-3.1029999256134033 7.554999828338623,-1.472000002861023 10.12600040435791,1.4149999618530273 C10.470999717712402,1.8229999542236328 10.42199993133545,2.433000087738037 10.013999938964844,2.7780001163482666 C9.83899974822998,2.9260001182556152 9.616000175476074,3.006999969482422 9.38700008392334,3.006999969482422 C9.38700008392334,3.006999969482422 9.38700008392334,3.003000020980835 9.38700008392334,3.003000020980835z"></path></g></g><g transform="matrix(1,0,0,1,77.79000091552734,367.5)" opacity="1" style="display: block;"><g opacity="1" transform="matrix(1,0,0,1,17.388999938964844,17.388999938964844)"><path fill="rgb(195,189,212)" fill-opacity="1" d=" M0,-15.454000473022461 C8.53499984741211,-15.454000473022461 15.454000473022461,-8.53600025177002 15.454000473022461,-0.0010000000474974513 C15.454000473022461,-0.0010000000474974513 15.454000473022461,0.0010000000474974513 15.454000473022461,0.0010000000474974513 C15.454000473022461,8.53600025177002 8.53499984741211,15.456000328063965 -0.0010000000474974513,15.456000328063965 C-8.53600025177002,15.456000328063965 -15.454999923706055,8.53600025177002 -15.454999923706055,0.0010000000474974513 C-15.456000328063965,-8.534000396728516 -8.536999702453613,-15.45300006866455 -0.0020000000949949026,-15.454000473022461 C-0.0020000000949949026,-15.454000473022461 0,-15.454000473022461 0,-15.454000473022461z M0,-17.388999938964844 C-9.604000091552734,-17.388999938964844 -17.388999938964844,-9.602999687194824 -17.388999938964844,0.0010000000474974513 C-17.388999938964844,9.604999542236328 -9.604000091552734,17.388999938964844 0,17.388999938964844 C9.604000091552734,17.388999938964844 17.388999938964844,9.604999542236328 17.388999938964844,0.0010000000474974513 C17.388999938964844,-9.602999687194824 9.604000091552734,-17.388999938964844 0,-17.388999938964844z"></path></g><g opacity="1" transform="matrix(1,0,0,1,17.388999938964844,14.204999923706055)"><path fill="rgb(195,189,212)" fill-opacity="1" d=" M0,6.922999858856201 C-3.822999954223633,6.922999858856201 -6.922999858856201,3.822999954223633 -6.922999858856201,0 C-6.922999858856201,-3.822999954223633 -3.822999954223633,-6.922999858856201 0,-6.922999858856201 C3.822999954223633,-6.922999858856201 6.922999858856201,-3.822999954223633 6.922999858856201,0 C6.922999858856201,3.822999954223633 3.822999954223633,6.922999858856201 0,6.922999858856201z M0,-4.9670000076293945 C-2.757999897003174,-4.9670000076293945 -4.99399995803833,-2.7309999465942383 -4.99399995803833,0.027000000700354576 C-4.99399995803833,2.7850000858306885 -2.757999897003174,5.020999908447266 0,5.020999908447266 C2.757999897003174,5.020999908447266 4.99399995803833,2.7850000858306885 4.99399995803833,0.027000000700354576 C4.99399995803833,-2.7309999465942383 2.757999897003174,-4.9670000076293945 0,-4.9670000076293945z"></path></g><g opacity="1" transform="matrix(1,0,0,1,17.39699935913086,25.459999084472656)"><path fill="rgb(195,189,212)" fill-opacity="1" d=" M9.38700008392334,3.003000020980835 C9.10200023651123,3.003000020980835 8.831999778747559,2.878000020980835 8.64799976348877,2.6610000133514404 C6.447999954223633,0.2029999941587448 3.2909998893737793,-1.1829999685287476 -0.00800000037997961,-1.1390000581741333 C-3.306999921798706,-1.1829999685287476 -6.4629998207092285,0.2029999941587448 -8.663000106811523,2.6610000133514404 C-9.015000343322754,3.062999963760376 -9.626999855041504,3.1040000915527344 -10.029000282287598,2.752000093460083 C-10.420999526977539,2.4079999923706055 -10.470999717712402,1.815000057220459 -10.140999794006348,1.4110000133514404 C-7.568999767303467,-1.475000023841858 -3.872999906539917,-3.1040000915527344 -0.00800000037997961,-3.055999994277954 C3.8580000400543213,-3.1029999256134033 7.554999828338623,-1.472000002861023 10.12600040435791,1.4149999618530273 C10.470999717712402,1.8229999542236328 10.42199993133545,2.433000087738037 10.013999938964844,2.7780001163482666 C9.83899974822998,2.9260001182556152 9.616000175476074,3.006999969482422 9.38700008392334,3.006999969482422 C9.38700008392334,3.006999969482422 9.38700008392334,3.003000020980835 9.38700008392334,3.003000020980835z"></path></g></g><g transform="matrix(1,0,0,1,77.79000091552734,277.5)" opacity="1" style="display: block;"><g opacity="1" transform="matrix(1,0,0,1,17.388999938964844,17.388999938964844)"><path fill="rgb(195,189,212)" fill-opacity="1" d=" M0,-15.454000473022461 C8.53499984741211,-15.454000473022461 15.454000473022461,-8.53600025177002 15.454000473022461,-0.0010000000474974513 C15.454000473022461,-0.0010000000474974513 15.454000473022461,0.0010000000474974513 15.454000473022461,0.0010000000474974513 C15.454000473022461,8.53600025177002 8.53499984741211,15.456000328063965 -0.0010000000474974513,15.456000328063965 C-8.53600025177002,15.456000328063965 -15.454999923706055,8.53600025177002 -15.454999923706055,0.0010000000474974513 C-15.456000328063965,-8.534000396728516 -8.536999702453613,-15.45300006866455 -0.0020000000949949026,-15.454000473022461 C-0.0020000000949949026,-15.454000473022461 0,-15.454000473022461 0,-15.454000473022461z M0,-17.388999938964844 C-9.604000091552734,-17.388999938964844 -17.388999938964844,-9.602999687194824 -17.388999938964844,0.0010000000474974513 C-17.388999938964844,9.604999542236328 -9.604000091552734,17.388999938964844 0,17.388999938964844 C9.604000091552734,17.388999938964844 17.388999938964844,9.604999542236328 17.388999938964844,0.0010000000474974513 C17.388999938964844,-9.602999687194824 9.604000091552734,-17.388999938964844 0,-17.388999938964844z"></path></g><g opacity="1" transform="matrix(1,0,0,1,17.388999938964844,14.204999923706055)"><path fill="rgb(195,189,212)" fill-opacity="1" d=" M0,6.922999858856201 C-3.822999954223633,6.922999858856201 -6.922999858856201,3.822999954223633 -6.922999858856201,0 C-6.922999858856201,-3.822999954223633 -3.822999954223633,-6.922999858856201 0,-6.922999858856201 C3.822999954223633,-6.922999858856201 6.922999858856201,-3.822999954223633 6.922999858856201,0 C6.922999858856201,3.822999954223633 3.822999954223633,6.922999858856201 0,6.922999858856201z M0,-4.9670000076293945 C-2.757999897003174,-4.9670000076293945 -4.99399995803833,-2.7309999465942383 -4.99399995803833,0.027000000700354576 C-4.99399995803833,2.7850000858306885 -2.757999897003174,5.020999908447266 0,5.020999908447266 C2.757999897003174,5.020999908447266 4.99399995803833,2.7850000858306885 4.99399995803833,0.027000000700354576 C4.99399995803833,-2.7309999465942383 2.757999897003174,-4.9670000076293945 0,-4.9670000076293945z"></path></g><g opacity="1" transform="matrix(1,0,0,1,17.39699935913086,25.459999084472656)"><path fill="rgb(195,189,212)" fill-opacity="1" d=" M9.38700008392334,3.003000020980835 C9.10200023651123,3.003000020980835 8.831999778747559,2.878000020980835 8.64799976348877,2.6610000133514404 C6.447999954223633,0.2029999941587448 3.2909998893737793,-1.1829999685287476 -0.00800000037997961,-1.1390000581741333 C-3.306999921798706,-1.1829999685287476 -6.4629998207092285,0.2029999941587448 -8.663000106811523,2.6610000133514404 C-9.015000343322754,3.062999963760376 -9.626999855041504,3.1040000915527344 -10.029000282287598,2.752000093460083 C-10.420999526977539,2.4079999923706055 -10.470999717712402,1.815000057220459 -10.140999794006348,1.4110000133514404 C-7.568999767303467,-1.475000023841858 -3.872999906539917,-3.1040000915527344 -0.00800000037997961,-3.055999994277954 C3.8580000400543213,-3.1029999256134033 7.554999828338623,-1.472000002861023 10.12600040435791,1.4149999618530273 C10.470999717712402,1.8229999542236328 10.42199993133545,2.433000087738037 10.013999938964844,2.7780001163482666 C9.83899974822998,2.9260001182556152 9.616000175476074,3.006999969482422 9.38700008392334,3.006999969482422 C9.38700008392334,3.006999969482422 9.38700008392334,3.003000020980835 9.38700008392334,3.003000020980835z"></path></g></g><g transform="matrix(1,0,0,1,143.0399932861328,133)" opacity="1" style="display: block;"><g opacity="1" transform="matrix(1,0,0,1,9.35200023651123,15.758000373840332)"><path fill="rgb(93,51,118)" fill-opacity="1" d=" M-2.246999979019165,-11.392999649047852 C-2.246999979019165,-11.392999649047852 -8.918999671936035,-11.454000473022461 -8.918999671936035,-11.454000473022461 C-8.918999671936035,-11.454000473022461 -8.918999671936035,-7.0279998779296875 -8.918999671936035,-7.0279998779296875 C-8.918999671936035,-7.0279998779296875 2.13700008392334,-7.0279998779296875 2.13700008392334,-7.0279998779296875 C2.13700008392334,-7.0279998779296875 -9.35200023651123,7.698999881744385 -9.35200023651123,7.698999881744385 C-9.35200023651123,7.698999881744385 -9.35200023651123,11.444000244140625 -9.35200023651123,11.444000244140625 C-9.35200023651123,11.444000244140625 -2.246999979019165,11.444000244140625 -2.246999979019165,11.444000244140625 C-2.246999979019165,11.444000244140625 -2.246999979019165,15.758000373840332 -2.246999979019165,15.758000373840332 C-2.246999979019165,15.758000373840332 2.0160000324249268,15.758000373840332 2.0160000324249268,15.758000373840332 C2.0160000324249268,15.758000373840332 2.0160000324249268,11.442000389099121 2.0160000324249268,11.442000389099121 C2.0160000324249268,11.442000389099121 9.26200008392334,11.442000389099121 9.26200008392334,11.442000389099121 C9.35200023651123,11.059000015258789 9.23900032043457,10.656999588012695 8.961999893188477,10.378000259399414 C8.3149995803833,9.66100025177002 7.7729997634887695,8.857999801635742 7.3480000495910645,7.991000175476074 C7.135000228881836,7.574999809265137 6.9720001220703125,7.076000213623047 6.910999774932861,7.035999774932861 C5.484000205993652,6.9710001945495605 -2.7260000705718994,6.98799991607666 -2.7209999561309814,6.935999870300293 C-2.7209999561309814,6.935999870300293 8.779000282287598,-7.881999969482422 8.779000282287598,-7.881999969482422 C8.779000282287598,-7.881999969482422 8.779000282287598,-11.395000457763672 8.779000282287598,-11.395000457763672 C8.779000282287598,-11.395000457763672 2.0179998874664307,-11.395000457763672 2.0179998874664307,-11.395000457763672 C2.0179998874664307,-11.395000457763672 2.0179998874664307,-15.758000373840332 2.0179998874664307,-15.758000373840332 C2.0179998874664307,-15.758000373840332 -2.244999885559082,-15.758000373840332 -2.244999885559082,-15.758000373840332 C-2.244999885559082,-15.758000373840332 -2.246999979019165,-11.392999649047852 -2.246999979019165,-11.392999649047852z"></path></g><g opacity="1" transform="matrix(1,0,0,1,41.76499938964844,14.894000053405762)"><path fill="rgb(93,51,118)" fill-opacity="1" d=" M-3.874000072479248,-12.59000015258789 C-3.9739999771118164,-12.548999786376953 -4.00600004196167,-10.307000160217285 -4.00600004196167,-1.8109999895095825 C-4.00600004196167,9.668999671936035 -4.015999794006348,9.47700023651123 -3.50600004196167,10.461999893188477 C-2.868000030517578,11.47700023651123 -1.8530000448226929,12.196000099182129 -0.6840000152587891,12.461999893188477 C0.4740000069141388,12.64900016784668 1.6540000438690186,12.661999702453613 2.815999984741211,12.503000259399414 C3.815999984741211,12.289999961853027 4.015999794006348,11.984000205993652 3.615999937057495,11.20199966430664 C3.299999952316284,10.520000457763672 3.075000047683716,9.800999641418457 2.946000099182129,9.060999870300293 C2.8340001106262207,8.361000061035156 2.691999912261963,8.248000144958496 1.840000033378601,8.267999649047852 C1.5509999990463257,8.288000106811523 1.2599999904632568,8.269000053405762 0.9769999980926514,8.208000183105469 C0.5609999895095825,7.943999767303467 0.5609999895095825,7.872000217437744 0.5609999895095825,-2.4100000858306885 C0.5609999895095825,-9.017999649047852 0.531000018119812,-12.336999893188477 0.460999995470047,-12.468999862670898 C0.3610000014305115,-12.652000427246094 0.2280000001192093,-12.661999702453613 -1.7009999752044678,-12.652000427246094 C-2.8289999961853027,-12.652000427246094 -3.812999963760376,-12.619999885559082 -3.874000072479248,-12.59000015258789z"></path></g><g opacity="1" transform="matrix(1,0,0,1,51.37799835205078,14.906000137329102)"><path fill="rgb(93,51,118)" fill-opacity="1" d=" M-4.179999828338623,-12.572999954223633 C-4.311999797821045,-12.491999626159668 -4.330999851226807,-11.192999839782715 -4.330999851226807,-1.8949999809265137 C-4.330999851226807,8.123000144958496 -4.322000026702881,8.732000350952148 -4.138999938964844,9.432999610900879 C-3.828000068664551,10.77299976348877 -2.8380000591278076,11.85099983215332 -1.5299999713897705,12.274999618530273 C-0.9049999713897705,12.52299976348877 -0.23199999332427979,12.625 0.4390000104904175,12.574999809265137 C1.4950000047683716,12.699000358581543 2.566999912261963,12.536999702453613 3.5399999618530273,12.107999801635742 C4.310999870300293,11.732000350952148 4.330999851226807,11.468999862670898 3.6710000038146973,10.508000373840332 C3.4070000648498535,10.121999740600586 3.002000093460083,9.463000297546387 2.7790000438690186,9.045999526977539 C2.7790000438690186,9.045999526977539 2.371999979019165,8.28499984741211 2.371999979019165,8.28499984741211 C2.371999979019165,8.28499984741211 1.6319999694824219,8.274999618530273 1.6319999694824219,8.274999618530273 C0.7080000042915344,8.255000114440918 0.6159999966621399,8.21399974822998 0.4429999887943268,7.775000095367432 C0.3109999895095825,7.480999946594238 0.2919999957084656,5.9679999351501465 0.2919999957084656,-2.424999952316284 C0.2919999957084656,-9.032999992370605 0.26100000739097595,-12.35200023651123 0.19099999964237213,-12.484000205993652 C0.09099999815225601,-12.666999816894531 -0.041999999433755875,-12.677000045776367 -1.9709999561309814,-12.677000045776367 C-2.7090001106262207,-12.699000358581543 -3.447000026702881,-12.663999557495117 -4.179999828338623,-12.572999954223633z"></path></g><g opacity="1" transform="matrix(1,0,0,1,76.35199737548828,5.052999973297119)"><path fill="rgb(93,51,118)" fill-opacity="1" d=" M-1.246999979019165,-3.440000057220459 C-2.5950000286102295,-2.8989999294281006 -3.4609999656677246,-1.5729999542236328 -3.4130001068115234,-0.12099999934434891 C-3.4760000705718994,1.11899995803833 -2.8529999256134033,2.2939999103546143 -1.7899999618530273,2.936000108718872 C-0.28600001335144043,3.8440001010894775 1.6440000534057617,3.614000082015991 2.8919999599456787,2.377000093460083 C4.239999771118164,0.8410000205039978 4.086999893188477,-1.496999979019165 2.5510001182556152,-2.8440001010894775 C2.4590001106262207,-2.924999952316284 2.36299991607666,-3.002000093460083 2.263000011444092,-3.072999954223633 C1.2050000429153442,-3.7090001106262207 -0.07999999821186066,-3.8440001010894775 -1.246999979019165,-3.440000057220459z M1.5479999780654907,-2.7939999103546143 C3.0429999828338623,-2.062999963760376 3.6619999408721924,-0.2590000033378601 2.930999994277954,1.2359999418258667 C2.743000030517578,1.621999979019165 2.4739999771118164,1.9639999866485596 2.1419999599456787,2.236999988555908 C1.5290000438690186,2.8350000381469727 0.6549999713897705,3.0850000381469727 -0.18199999630451202,2.9010000228881836 C-3.2209999561309814,2.6010000705718994 -3.815000057220459,-1.6579999923706055 -0.9819999933242798,-2.933000087738037 C-0.16200000047683716,-3.2760000228881836 0.7710000276565552,-3.2249999046325684 1.5479999780654907,-2.7929999828338623 C1.5479999780654907,-2.7929999828338623 1.5479999780654907,-2.7939999103546143 1.5479999780654907,-2.7939999103546143z"></path></g><g opacity="1" transform="matrix(1,0,0,1,76.7229995727539,5.002999782562256)"><path fill="rgb(93,51,118)" fill-opacity="1" d=" M-1.4950000047683716,-1.9570000171661377 C-1.6239999532699585,-0.6970000267028809 -1.628999948501587,0.5720000267028809 -1.5119999647140503,1.8329999446868896 C-1.4609999656677246,1.9869999885559082 -1.3240000009536743,2.0959999561309814 -1.1629999876022339,2.111999988555908 C-0.9879999756813049,2.111999988555908 -0.9190000295639038,1.8669999837875366 -0.9190000295639038,1.2389999628067017 C-0.9190000295639038,0.453000009059906 -0.8830000162124634,0.3659999966621399 -0.5180000066757202,0.3659999966621399 C-0.23899999260902405,0.3659999966621399 0.006000000052154064,0.6110000014305115 0.38999998569488525,1.2389999628067017 C0.7039999961853027,1.7630000114440918 1.0190000534057617,2.111999988555908 1.2109999656677246,2.111999988555908 C1.6299999952316284,2.111999988555908 1.6100000143051147,2.0420000553131104 0.9649999737739563,1.0989999771118164 C0.5809999704360962,0.5400000214576721 0.47699999809265137,0.27799999713897705 0.6340000033378601,0.22599999606609344 C1.121000051498413,0.026000000536441803 1.4609999656677246,-0.421999990940094 1.524999976158142,-0.9440000057220459 C1.524999976158142,-1.7300000190734863 0.9660000205039978,-2.0789999961853027 -0.2919999957084656,-2.0789999961853027 C-0.6970000267028809,-2.111999988555908 -1.1050000190734863,-2.071000099182129 -1.4950000047683716,-1.9570000171661377z M0.6190000176429749,-1.3980000019073486 C0.7770000100135803,-1.2589999437332153 0.843999981880188,-1.0429999828338623 0.7940000295639038,-0.8389999866485596 C0.7419999837875366,-0.47200000286102295 0.6370000243186951,-0.41999998688697815 -0.07900000363588333,-0.367000013589859 C-0.07900000363588333,-0.367000013589859 -0.9169999957084656,-0.3149999976158142 -0.9169999957084656,-0.3149999976158142 C-0.9169999957084656,-0.3149999976158142 -0.9169999957084656,-0.9259999990463257 -0.9169999957084656,-0.9259999990463257 C-0.9169999957084656,-1.5369999408721924 -0.8999999761581421,-1.5549999475479126 -0.2529999911785126,-1.5549999475479126 C0.04600000008940697,-1.5670000314712524 0.34299999475479126,-1.5140000581741333 0.6190000176429749,-1.3980000019073486z"></path></g><g opacity="1" transform="matrix(1,0,0,1,26.625,18.06100082397461)"><path fill="rgb(93,51,118)" fill-opacity="1" d=" M-1.503999948501587,-9.381999969482422 C-1.5549999475479126,-9.362000465393066 -1.9509999752044678,-9.270000457763672 -2.367000102996826,-9.182000160217285 C-5.046000003814697,-8.527000427246094 -7.241000175476074,-6.611999988555908 -8.253999710083008,-4.046000003814697 C-8.77299976348877,-2.743000030517578 -9.024999618530273,-1.3480000495910645 -8.994999885559082,0.05400000140070915 C-9.08899974822998,2.002000093460083 -8.567000389099121,3.930999994277954 -7.502999782562256,5.565999984741211 C-6.298999786376953,7.361999988555908 -4.4670000076293945,8.642999649047852 -2.367000102996826,9.159000396728516 C-1.437999963760376,9.38700008392334 -0.4790000021457672,9.46500015258789 0.4749999940395355,9.392000198364258 C1.4140000343322754,9.46399974822998 2.3589999675750732,9.387999534606934 3.2750000953674316,9.168999671936035 C4.96999979019165,8.727999687194824 6.5289998054504395,7.874000072479248 7.811999797821045,6.682000160217285 C8.593999862670898,5.951000213623047 8.583000183105469,5.748000144958496 7.791999816894531,5.138999938964844 C7.329999923706055,4.761000156402588 6.895999908447266,4.349999904632568 6.492000102996826,3.9110000133514404 C6.005000114440918,3.3929998874664307 5.710000038146973,3.1500000953674316 5.558000087738037,3.1500000953674316 C5.255000114440918,3.24399995803833 4.985000133514404,3.4200000762939453 4.776000022888184,3.6579999923706055 C3.6010000705718994,4.676000118255615 2.075000047683716,5.192999839782715 0.5230000019073486,5.098999977111816 C-0.8109999895095825,5.210999965667725 -2.127000093460083,4.732999801635742 -3.0769999027252197,3.7899999618530273 C-3.5369999408721924,3.2019999027252197 -3.868000030517578,2.5250000953674316 -4.051000118255615,1.8009999990463257 C-4.051000118255615,1.8009999990463257 -4.111999988555908,1.4249999523162842 -4.111999988555908,1.4249999523162842 C-4.111999988555908,1.4249999523162842 2.2070000171661377,1.4249999523162842 2.2070000171661377,1.4249999523162842 C5.689000129699707,1.4249999523162842 8.60200023651123,1.3839999437332153 8.67300033569336,1.3339999914169312 C9.008000373840332,1.121000051498413 9.08899974822998,-0.35100001096725464 8.845999717712402,-1.9550000429153442 C8.5,-5.531000137329102 5.881999969482422,-8.473999977111816 2.369999885559082,-9.232999801635742 C1.6160000562667847,-9.399999618530273 0.8420000076293945,-9.46500015258789 0.07000000029802322,-9.425999641418457 C-0.7419999837875366,-9.42300033569336 -1.4429999589920044,-9.402999877929688 -1.503999948501587,-9.381999969482422z M1.2059999704360962,-5.464000225067139 C1.99399995803833,-5.283999919891357 2.7149999141693115,-4.88700008392334 3.2869999408721924,-4.316999912261963 C3.7139999866485596,-3.802000045776367 4.021999835968018,-3.1989998817443848 4.186999797821045,-2.5510001182556152 C4.186999797821045,-2.5510001182556152 4.257999897003174,-2.2260000705718994 4.257999897003174,-2.2260000705718994 C4.257999897003174,-2.2260000705718994 -4.013999938964844,-2.2260000705718994 -4.013999938964844,-2.2260000705718994 C-4.013999938964844,-2.2260000705718994 -3.943000078201294,-2.5510001182556152 -3.943000078201294,-2.5510001182556152 C-3.572000026702881,-3.9839999675750732 -2.438999891281128,-5.0929999351501465 -0.9990000128746033,-5.434000015258789 C-0.27399998903274536,-5.5970001220703125 0.4779999852180481,-5.60699987411499 1.2070000171661377,-5.464000225067139 C1.2070000171661377,-5.464000225067139 1.2059999704360962,-5.464000225067139 1.2059999704360962,-5.464000225067139z"></path></g><g opacity="1" transform="matrix(1,0,0,1,63.96200180053711,18.073999404907227)"><path fill="rgb(93,51,118)" fill-opacity="1" d=" M-1.944000005722046,-9.305000305175781 C-5.464000225067139,-8.58899974822998 -8.17300033569336,-5.76800012588501 -8.744000434875488,-2.2209999561309814 C-9.201000213623047,0.007000000216066837 -8.970999717712402,2.322000026702881 -8.083999633789062,4.416999816894531 C-6.931000232696533,6.958000183105469 -4.5920000076293945,8.76200008392334 -1.840999960899353,9.229000091552734 C-0.9409999847412109,9.42199993133545 -0.017999999225139618,9.479999542236328 0.8989999890327454,9.402000427246094 C1.725000023841858,9.407999992370605 2.5490000247955322,9.317999839782715 3.3550000190734863,9.13700008392334 C5.010000228881836,8.722000122070312 6.5329999923706055,7.894999980926514 7.781000137329102,6.73199987411499 C8.673999786376953,5.86899995803833 8.673999786376953,5.831999778747559 7.710000038146973,5.0269999504089355 C7.236000061035156,4.633999824523926 6.790999889373779,4.205999851226807 6.380000114440918,3.746999979019165 C5.71999979019165,2.9860000610351562 5.547999858856201,2.9769999980926514 4.807000160217285,3.6480000019073486 C3.634999990463257,4.677000045776367 2.0999999046325684,5.196000099182129 0.5440000295639038,5.089000225067139 C-2.0339999198913574,5.078999996185303 -3.5360000133514404,3.9709999561309814 -4.02400016784668,1.7380000352859497 C-4.02400016784668,1.7380000352859497 -4.09499979019165,1.475000023841858 -4.09499979019165,1.475000023841858 C-4.09499979019165,1.475000023841858 8.765000343322754,1.475000023841858 8.765000343322754,1.475000023841858 C9.201000213623047,1.159999966621399 9.038999557495117,-2.1689999103546143 8.51099967956543,-3.7119998931884766 C8.33899974822998,-4.171000003814697 8.138999938964844,-4.617000102996826 7.910999774932861,-5.051000118255615 C6.7769999504089355,-7.288000106811523 4.656000137329102,-8.859999656677246 2.186000108718872,-9.293999671936035 C0.8159999847412109,-9.475000381469727 -0.5730000138282776,-9.479000091552734 -1.944000005722046,-9.305000305175781z M1.2230000495910645,-5.479000091552734 C1.9290000200271606,-5.321000099182129 2.5850000381469727,-4.98799991607666 3.13100004196167,-4.513999938964844 C3.6600000858306885,-3.936000108718872 4.043000221252441,-3.240000009536743 4.248000144958496,-2.4839999675750732 C4.248000144958496,-2.4839999675750732 4.248000144958496,-2.240000009536743 4.248000144958496,-2.240000009536743 C4.248000144958496,-2.240000009536743 -3.99399995803833,-2.240000009536743 -3.99399995803833,-2.240000009536743 C-3.99399995803833,-2.240000009536743 -3.9230000972747803,-2.5250000953674316 -3.9230000972747803,-2.5250000953674316 C-3.306999921798706,-4.754000186920166 -1.0119999647140503,-6.071000099182129 1.2230000495910645,-5.479000091552734z"></path></g></g><g filter="url(#__lottie_element_80)" style="display: block;" transform="matrix(1,0,0,1,34.03999328613281,255)" opacity="1"><g opacity="1" transform="matrix(1,0,0,1,140,45)"><path fill="rgb(255,254,255)" fill-opacity="1" d=" M-132.08900451660156,44.5 C-136.1750030517578,44.5 -139.5,41.137001037597656 -139.5,37.00199890136719 C-139.5,37.00199890136719 -139.5,-37.00299835205078 -139.5,-37.00299835205078 C-139.5,-41.137001037597656 -136.1750030517578,-44.5 -132.08900451660156,-44.5 C-132.08900451660156,-44.5 132.08900451660156,-44.5 132.08900451660156,-44.5 C136.17599487304688,-44.5 139.5,-41.137001037597656 139.5,-37.00299835205078 C139.5,-37.00299835205078 139.5,37.00199890136719 139.5,37.00199890136719 C139.5,41.137001037597656 136.17599487304688,44.5 132.08900451660156,44.5 C132.08900451660156,44.5 -132.08900451660156,44.5 -132.08900451660156,44.5z"></path></g><g opacity="1" transform="matrix(1,0,0,1,140,45)"><path fill="rgb(239,239,239)" fill-opacity="1" d=" M132.08900451660156,-44 C135.89999389648438,-44 139,-40.861000061035156 139,-37.00299835205078 C139,-37.00299835205078 139,37.00299835205078 139,37.00299835205078 C139,40.861000061035156 135.89999389648438,44 132.08900451660156,44 C132.08900451660156,44 -132.08900451660156,44 -132.08900451660156,44 C-135.89999389648438,44 -139,40.861000061035156 -139,37.00299835205078 C-139,37.00299835205078 -139,-37.00299835205078 -139,-37.00299835205078 C-139,-40.861000061035156 -135.89999389648438,-44 -132.08900451660156,-44 C-132.08900451660156,-44 132.08900451660156,-44 132.08900451660156,-44z M132.08900451660156,-45 C132.08900451660156,-45 -132.08900451660156,-45 -132.08900451660156,-45 C-136.45799255371094,-45 -140,-41.41899871826172 -140,-37.00299835205078 C-140,-37.00299835205078 -140,37.00299835205078 -140,37.00299835205078 C-140,41.41899871826172 -136.45799255371094,45 -132.08900451660156,45 C-132.08900451660156,45 132.08900451660156,45 132.08900451660156,45 C136.45799255371094,45 140,41.41899871826172 140,37.00299835205078 C140,37.00299835205078 140,-37.00299835205078 140,-37.00299835205078 C140,-41.41899871826172 136.45799255371094,-45 132.08900451660156,-45z"></path></g><g opacity="1" transform="matrix(1,0,0,1,0,0)"><path stroke-linecap="round" stroke-linejoin="round" fill-opacity="0" stroke="rgb(192,230,232)" stroke-opacity="1" stroke-width="6" d=" M84.0530014038086,35.327999114990234 C84.0530014038086,35.327999114990234 174.41000366210938,35.327999114990234 174.41000366210938,35.327999114990234"></path></g><g opacity="1" transform="matrix(1,0,0,1,0,0)"><path stroke-linecap="round" stroke-linejoin="round" fill-opacity="0" stroke="rgb(192,230,232)" stroke-opacity="1" stroke-width="6" d=" M84.0530014038086,54.672000885009766 C84.0530014038086,54.672000885009766 209.2989959716797,54.672000885009766 209.2989959716797,54.672000885009766"></path></g></g><g filter="url(#__lottie_element_82)" style="display: block;" transform="matrix(1.4700000286102295,0,0,1.4700000286102295,53.81499481201172,274.2749938964844)" opacity="1"><g opacity="1" transform="matrix(1,0,0,1,17.388999938964844,17.388999938964844)"><path fill="rgb(195,189,212)" fill-opacity="1" d=" M0,-15.454000473022461 C8.53499984741211,-15.454000473022461 15.454000473022461,-8.53600025177002 15.454000473022461,-0.0010000000474974513 C15.454000473022461,-0.0010000000474974513 15.454000473022461,0.0010000000474974513 15.454000473022461,0.0010000000474974513 C15.454000473022461,8.53600025177002 8.53499984741211,15.456000328063965 -0.0010000000474974513,15.456000328063965 C-8.53600025177002,15.456000328063965 -15.454999923706055,8.53600025177002 -15.454999923706055,0.0010000000474974513 C-15.456000328063965,-8.534000396728516 -8.536999702453613,-15.45300006866455 -0.0020000000949949026,-15.454000473022461 C-0.0020000000949949026,-15.454000473022461 0,-15.454000473022461 0,-15.454000473022461z M0,-17.388999938964844 C-9.604000091552734,-17.388999938964844 -17.388999938964844,-9.602999687194824 -17.388999938964844,0.0010000000474974513 C-17.388999938964844,9.604999542236328 -9.604000091552734,17.388999938964844 0,17.388999938964844 C9.604000091552734,17.388999938964844 17.388999938964844,9.604999542236328 17.388999938964844,0.0010000000474974513 C17.388999938964844,-9.602999687194824 9.604000091552734,-17.388999938964844 0,-17.388999938964844z"></path></g><g opacity="1" transform="matrix(1,0,0,1,17.388999938964844,14.204999923706055)"><path fill="rgb(195,189,212)" fill-opacity="1" d=" M0,6.922999858856201 C-3.822999954223633,6.922999858856201 -6.922999858856201,3.822999954223633 -6.922999858856201,0 C-6.922999858856201,-3.822999954223633 -3.822999954223633,-6.922999858856201 0,-6.922999858856201 C3.822999954223633,-6.922999858856201 6.922999858856201,-3.822999954223633 6.922999858856201,0 C6.922999858856201,3.822999954223633 3.822999954223633,6.922999858856201 0,6.922999858856201z M0,-4.9670000076293945 C-2.757999897003174,-4.9670000076293945 -4.99399995803833,-2.7309999465942383 -4.99399995803833,0.027000000700354576 C-4.99399995803833,2.7850000858306885 -2.757999897003174,5.020999908447266 0,5.020999908447266 C2.757999897003174,5.020999908447266 4.99399995803833,2.7850000858306885 4.99399995803833,0.027000000700354576 C4.99399995803833,-2.7309999465942383 2.757999897003174,-4.9670000076293945 0,-4.9670000076293945z"></path></g><g opacity="1" transform="matrix(1,0,0,1,17.39699935913086,25.459999084472656)"><path fill="rgb(195,189,212)" fill-opacity="1" d=" M9.38700008392334,3.003000020980835 C9.10200023651123,3.003000020980835 8.831999778747559,2.878000020980835 8.64799976348877,2.6610000133514404 C6.447999954223633,0.2029999941587448 3.2909998893737793,-1.1829999685287476 -0.00800000037997961,-1.1390000581741333 C-3.306999921798706,-1.1829999685287476 -6.4629998207092285,0.2029999941587448 -8.663000106811523,2.6610000133514404 C-9.015000343322754,3.062999963760376 -9.626999855041504,3.1040000915527344 -10.029000282287598,2.752000093460083 C-10.420999526977539,2.4079999923706055 -10.470999717712402,1.815000057220459 -10.140999794006348,1.4110000133514404 C-7.568999767303467,-1.475000023841858 -3.872999906539917,-3.1040000915527344 -0.00800000037997961,-3.055999994277954 C3.8580000400543213,-3.1029999256134033 7.554999828338623,-1.472000002861023 10.12600040435791,1.4149999618530273 C10.470999717712402,1.8229999542236328 10.42199993133545,2.433000087738037 10.013999938964844,2.7780001163482666 C9.83899974822998,2.9260001182556152 9.616000175476074,3.006999969482422 9.38700008392334,3.006999969482422 C9.38700008392334,3.006999969482422 9.38700008392334,3.003000020980835 9.38700008392334,3.003000020980835z"></path></g></g><g transform="matrix(1,0,0,1,303.75,299.25)" opacity="1" style="display: block;"><g opacity="1" transform="matrix(1,0,0,1,-136.031005859375,-96.03299713134766)"><path fill="rgb(198,192,215)" fill-opacity="1" d=" M45.96900177001953,0 C45.96900177001953,0 45.96900177001953,0 45.96900177001953,0 C45.96900177001953,1.4997882843017578 44.75128936767578,2.7174999713897705 43.251502990722656,2.7174999713897705 C43.251502990722656,2.7174999713897705 -43.251502990722656,2.7174999713897705 -43.251502990722656,2.7174999713897705 C-44.75128936767578,2.7174999713897705 -45.96900177001953,1.4997882843017578 -45.96900177001953,0 C-45.96900177001953,0 -45.96900177001953,0 -45.96900177001953,0 C-45.96900177001953,-1.4997882843017578 -44.75128936767578,-2.7174999713897705 -43.251502990722656,-2.7174999713897705 C-43.251502990722656,-2.7174999713897705 43.251502990722656,-2.7174999713897705 43.251502990722656,-2.7174999713897705 C44.75128936767578,-2.7174999713897705 45.96900177001953,-1.4997882843017578 45.96900177001953,0z"></path><path stroke-linecap="butt" stroke-linejoin="miter" fill-opacity="0" stroke-miterlimit="4" stroke="rgb(201,201,201)" stroke-opacity="1" stroke-width="1" d=" M45.96900177001953,0 C45.96900177001953,0 45.96900177001953,0 45.96900177001953,0 C45.96900177001953,1.4997882843017578 44.75128936767578,2.7174999713897705 43.251502990722656,2.7174999713897705 C43.251502990722656,2.7174999713897705 -43.251502990722656,2.7174999713897705 -43.251502990722656,2.7174999713897705 C-44.75128936767578,2.7174999713897705 -45.96900177001953,1.4997882843017578 -45.96900177001953,0 C-45.96900177001953,0 -45.96900177001953,0 -45.96900177001953,0 C-45.96900177001953,-1.4997882843017578 -44.75128936767578,-2.7174999713897705 -43.251502990722656,-2.7174999713897705 C-43.251502990722656,-2.7174999713897705 43.251502990722656,-2.7174999713897705 43.251502990722656,-2.7174999713897705 C44.75128936767578,-2.7174999713897705 45.96900177001953,-1.4997882843017578 45.96900177001953,0z"></path></g></g><g transform="matrix(1,0,0,1,302.75,314.75)" opacity="1" style="display: block;"><g opacity="1" transform="matrix(1,0,0,1,-123.01300048828125,-96.03299713134766)"><path fill="rgb(198,192,215)" fill-opacity="1" d=" M57.96900177001953,0 C57.96900177001953,0 57.96900177001953,0 57.96900177001953,0 C57.96900177001953,1.4997882843017578 56.75128936767578,2.7174999713897705 55.251502990722656,2.7174999713897705 C55.251502990722656,2.7174999713897705 -55.251502990722656,2.7174999713897705 -55.251502990722656,2.7174999713897705 C-56.75128936767578,2.7174999713897705 -57.96900177001953,1.4997882843017578 -57.96900177001953,0 C-57.96900177001953,0 -57.96900177001953,0 -57.96900177001953,0 C-57.96900177001953,-1.4997882843017578 -56.75128936767578,-2.7174999713897705 -55.251502990722656,-2.7174999713897705 C-55.251502990722656,-2.7174999713897705 55.251502990722656,-2.7174999713897705 55.251502990722656,-2.7174999713897705 C56.75128936767578,-2.7174999713897705 57.96900177001953,-1.4997882843017578 57.96900177001953,0z"></path><path stroke-linecap="butt" stroke-linejoin="miter" fill-opacity="0" stroke-miterlimit="4" stroke="rgb(201,201,201)" stroke-opacity="1" stroke-width="1" d=" M57.96900177001953,0 C57.96900177001953,0 57.96900177001953,0 57.96900177001953,0 C57.96900177001953,1.4997882843017578 56.75128936767578,2.7174999713897705 55.251502990722656,2.7174999713897705 C55.251502990722656,2.7174999713897705 -55.251502990722656,2.7174999713897705 -55.251502990722656,2.7174999713897705 C-56.75128936767578,2.7174999713897705 -57.96900177001953,1.4997882843017578 -57.96900177001953,0 C-57.96900177001953,0 -57.96900177001953,0 -57.96900177001953,0 C-57.96900177001953,-1.4997882843017578 -56.75128936767578,-2.7174999713897705 -55.251502990722656,-2.7174999713897705 C-55.251502990722656,-2.7174999713897705 55.251502990722656,-2.7174999713897705 55.251502990722656,-2.7174999713897705 C56.75128936767578,-2.7174999713897705 57.96900177001953,-1.4997882843017578 57.96900177001953,0z"></path></g></g><g transform="matrix(1,0,0,1,303.75,473.25)" opacity="1" style="display: block;"><g opacity="1" transform="matrix(1,0,0,1,-136.031005859375,-96.03299713134766)"><path fill="rgb(198,192,215)" fill-opacity="1" d=" M45.96900177001953,0 C45.96900177001953,0 45.96900177001953,0 45.96900177001953,0 C45.96900177001953,1.4997882843017578 44.75128936767578,2.7174999713897705 43.251502990722656,2.7174999713897705 C43.251502990722656,2.7174999713897705 -43.251502990722656,2.7174999713897705 -43.251502990722656,2.7174999713897705 C-44.75128936767578,2.7174999713897705 -45.96900177001953,1.4997882843017578 -45.96900177001953,0 C-45.96900177001953,0 -45.96900177001953,0 -45.96900177001953,0 C-45.96900177001953,-1.4997882843017578 -44.75128936767578,-2.7174999713897705 -43.251502990722656,-2.7174999713897705 C-43.251502990722656,-2.7174999713897705 43.251502990722656,-2.7174999713897705 43.251502990722656,-2.7174999713897705 C44.75128936767578,-2.7174999713897705 45.96900177001953,-1.4997882843017578 45.96900177001953,0z"></path><path stroke-linecap="butt" stroke-linejoin="miter" fill-opacity="0" stroke-miterlimit="4" stroke="rgb(201,201,201)" stroke-opacity="1" stroke-width="1" d=" M45.96900177001953,0 C45.96900177001953,0 45.96900177001953,0 45.96900177001953,0 C45.96900177001953,1.4997882843017578 44.75128936767578,2.7174999713897705 43.251502990722656,2.7174999713897705 C43.251502990722656,2.7174999713897705 -43.251502990722656,2.7174999713897705 -43.251502990722656,2.7174999713897705 C-44.75128936767578,2.7174999713897705 -45.96900177001953,1.4997882843017578 -45.96900177001953,0 C-45.96900177001953,0 -45.96900177001953,0 -45.96900177001953,0 C-45.96900177001953,-1.4997882843017578 -44.75128936767578,-2.7174999713897705 -43.251502990722656,-2.7174999713897705 C-43.251502990722656,-2.7174999713897705 43.251502990722656,-2.7174999713897705 43.251502990722656,-2.7174999713897705 C44.75128936767578,-2.7174999713897705 45.96900177001953,-1.4997882843017578 45.96900177001953,0z"></path></g></g><g transform="matrix(1,0,0,1,302.75,488.75)" opacity="1" style="display: block;"><g opacity="1" transform="matrix(1,0,0,1,-123.01300048828125,-96.03299713134766)"><path fill="rgb(198,192,215)" fill-opacity="1" d=" M57.96900177001953,0 C57.96900177001953,0 57.96900177001953,0 57.96900177001953,0 C57.96900177001953,1.4997882843017578 56.75128936767578,2.7174999713897705 55.251502990722656,2.7174999713897705 C55.251502990722656,2.7174999713897705 -55.251502990722656,2.7174999713897705 -55.251502990722656,2.7174999713897705 C-56.75128936767578,2.7174999713897705 -57.96900177001953,1.4997882843017578 -57.96900177001953,0 C-57.96900177001953,0 -57.96900177001953,0 -57.96900177001953,0 C-57.96900177001953,-1.4997882843017578 -56.75128936767578,-2.7174999713897705 -55.251502990722656,-2.7174999713897705 C-55.251502990722656,-2.7174999713897705 55.251502990722656,-2.7174999713897705 55.251502990722656,-2.7174999713897705 C56.75128936767578,-2.7174999713897705 57.96900177001953,-1.4997882843017578 57.96900177001953,0z"></path><path stroke-linecap="butt" stroke-linejoin="miter" fill-opacity="0" stroke-miterlimit="4" stroke="rgb(201,201,201)" stroke-opacity="1" stroke-width="1" d=" M57.96900177001953,0 C57.96900177001953,0 57.96900177001953,0 57.96900177001953,0 C57.96900177001953,1.4997882843017578 56.75128936767578,2.7174999713897705 55.251502990722656,2.7174999713897705 C55.251502990722656,2.7174999713897705 -55.251502990722656,2.7174999713897705 -55.251502990722656,2.7174999713897705 C-56.75128936767578,2.7174999713897705 -57.96900177001953,1.4997882843017578 -57.96900177001953,0 C-57.96900177001953,0 -57.96900177001953,0 -57.96900177001953,0 C-57.96900177001953,-1.4997882843017578 -56.75128936767578,-2.7174999713897705 -55.251502990722656,-2.7174999713897705 C-55.251502990722656,-2.7174999713897705 55.251502990722656,-2.7174999713897705 55.251502990722656,-2.7174999713897705 C56.75128936767578,-2.7174999713897705 57.96900177001953,-1.4997882843017578 57.96900177001953,0z"></path></g></g></g></svg>