<svg xmlns="http://www.w3.org/2000/svg" viewBox="0 0 600 600" width="600" height="600" preserveAspectRatio="xMidYMid meet" style="width: 100%; height: 100%; transform: translate3d(0px, 0px, 0px);"><defs><clipPath id="__lottie_element_120"><rect width="600" height="600" x="0" y="0"></rect></clipPath><filter id="__lottie_element_153" filterUnits="objectBoundingBox" x="0%" y="0%" width="100%" height="100%"><feColorMatrix type="matrix" color-interpolation-filters="sRGB" values="0 0 0 0 0.18039216101169586 0 0 0 0 0.10196078568696976 0 0 0 0 0.27843138575553894 0 0 0 1 0"></feColorMatrix></filter></defs><g clip-path="url(#__lottie_element_120)"><g style="display: block;" transform="matrix(0.8803328275680542,0.18712051212787628,-0.18712051212787628,0.8803328275680542,350.3519287109375,57.01338195800781)" opacity="1"><g opacity="1" transform="matrix(1,0,0,1,125,245)"><path fill="rgb(255,254,255)" fill-opacity="1" d=" M-95.052001953125,244.5 C-111.29000091552734,244.5 -124.5,231.2899932861328 -124.5,215.05299377441406 C-124.5,215.05299377441406 -124.5,-215.052001953125 -124.5,-215.052001953125 C-124.5,-231.2899932861328 -111.29000091552734,-244.5 -95.052001953125,-244.5 C-95.052001953125,-244.5 95.052001953125,-244.5 95.052001953125,-244.5 C111.29000091552734,-244.5 124.5,-231.2899932861328 124.5,-215.052001953125 C124.5,-215.052001953125 124.5,215.05299377441406 124.5,215.05299377441406 C124.5,231.2899932861328 111.29000091552734,244.5 95.052001953125,244.5 C95.052001953125,244.5 -95.052001953125,244.5 -95.052001953125,244.5z"></path></g><g opacity="1" transform="matrix(1,0,0,1,125,245)"><path fill="rgb(213,213,213)" fill-opacity="1" d=" M95.052001953125,-244 C111.01399993896484,-244 124,-231.01400756835938 124,-215.052001953125 C124,-215.052001953125 124,215.052001953125 124,215.052001953125 C124,231.01400756835938 111.01399993896484,244 95.052001953125,244 C95.052001953125,244 -95.052001953125,244 -95.052001953125,244 C-111.01399993896484,244 -124,231.01400756835938 -124,215.052001953125 C-124,215.052001953125 -124,-215.052001953125 -124,-215.052001953125 C-124,-231.01400756835938 -111.01399993896484,-244 -95.052001953125,-244 C-95.052001953125,-244 95.052001953125,-244 95.052001953125,-244z M95.052001953125,-245 C95.052001953125,-245 -95.052001953125,-245 -95.052001953125,-245 C-111.59200286865234,-245 -125,-231.5919952392578 -125,-215.052001953125 C-125,-215.052001953125 -125,215.052001953125 -125,215.052001953125 C-125,231.5919952392578 -111.59200286865234,245 -95.052001953125,245 C-95.052001953125,245 95.052001953125,245 95.052001953125,245 C111.59200286865234,245 125,231.5919952392578 125,215.052001953125 C125,215.052001953125 125,-215.052001953125 125,-215.052001953125 C125,-231.5919952392578 111.59200286865234,-245 95.052001953125,-245z"></path></g><g opacity="1" transform="matrix(1,0,0,1,125,246.41799926757812)"><path fill="rgb(247,247,247)" fill-opacity="1" d=" M92.26499938964844,235 C92.26499938964844,235 -92.26499938964844,235 -92.26499938964844,235 C-104.82099914550781,235 -115,224.8209991455078 -115,212.26499938964844 C-115,212.26499938964844 -115,-212.26499938964844 -115,-212.26499938964844 C-115,-224.8209991455078 -104.82099914550781,-235 -92.26499938964844,-235 C-92.26499938964844,-235 92.26499938964844,-235 92.26499938964844,-235 C104.82099914550781,-235 115,-224.8209991455078 115,-212.26499938964844 C115,-212.26499938964844 115,212.26499938964844 115,212.26499938964844 C115,224.8209991455078 104.82099914550781,235 92.26499938964844,235z"></path></g></g><g style="display: block;" transform="matrix(0.8803328275680542,0.18712051212787628,-0.18712051212787628,0.8803328275680542,407.7499084472656,328.22369384765625)" opacity="1"><g opacity="1" transform="matrix(1,0,0,1,0,0)"><path fill="rgb(77,62,99)" fill-opacity="1" d=" M36.8849983215332,-6.40500020980835 C37.106998443603516,-7.894999980926514 37.99300003051758,-8.76200008392334 39.301998138427734,-8.76200008392334 C40.69200134277344,-8.76200008392334 41.49800109863281,-7.995999813079834 41.5989990234375,-6.40500020980835 C41.5989990234375,-6.40500020980835 36.8849983215332,-6.40500020980835 36.8849983215332,-6.40500020980835z M39.382999420166016,0.22200000286102295 C42.26300048828125,0.22200000286102295 44.07600021362305,-1.0470000505447388 44.417999267578125,-3.322999954223633 C44.417999267578125,-3.322999954223633 41.659000396728516,-3.322999954223633 41.659000396728516,-3.322999954223633 C41.47800064086914,-2.437000036239624 40.8129997253418,-1.8530000448226929 39.4640007019043,-1.8530000448226929 C37.87300109863281,-1.8530000448226929 36.92599868774414,-2.859999895095825 36.845001220703125,-4.611999988555908 C36.845001220703125,-4.611999988555908 44.43899917602539,-4.611999988555908 44.43899917602539,-4.611999988555908 C44.43899917602539,-4.611999988555908 44.43899917602539,-5.418000221252441 44.43899917602539,-5.418000221252441 C44.43899917602539,-9.184000015258789 42.020999908447266,-10.776000022888184 39.301998138427734,-10.776000022888184 C36.2400016784668,-10.776000022888184 33.88399887084961,-8.619999885559082 33.88399887084961,-5.296999931335449 C33.88399887084961,-5.296999931335449 33.88399887084961,-5.136000156402588 33.88399887084961,-5.136000156402588 C33.88399887084961,-1.7719999551773071 36.20100021362305,0.22200000286102295 39.382999420166016,0.22200000286102295z"></path></g><g opacity="1" transform="matrix(1,0,0,1,0,0)"><path fill="rgb(77,62,99)" fill-opacity="1" d=" M16.069000244140625,0 C16.069000244140625,0 18.989999771118164,0 18.989999771118164,0 C18.989999771118164,0 18.989999771118164,-6.223999977111816 18.989999771118164,-6.223999977111816 C18.989999771118164,-7.6539998054504395 19.895999908447266,-8.378999710083008 21.02400016784668,-8.378999710083008 C22.051000595092773,-8.378999710083008 22.676000595092773,-7.77400016784668 22.676000595092773,-6.425000190734863 C22.676000595092773,-6.425000190734863 22.676000595092773,0 22.676000595092773,0 C22.676000595092773,0 25.576000213623047,0 25.576000213623047,0 C25.576000213623047,0 25.576000213623047,-6.223999977111816 25.576000213623047,-6.223999977111816 C25.576000213623047,-7.6539998054504395 26.48200035095215,-8.378999710083008 27.610000610351562,-8.378999710083008 C28.656999588012695,-8.378999710083008 29.261999130249023,-7.77400016784668 29.261999130249023,-6.425000190734863 C29.261999130249023,-6.425000190734863 29.261999130249023,0 29.261999130249023,0 C29.261999130249023,0 32.1619987487793,0 32.1619987487793,0 C32.1619987487793,0 32.1619987487793,-6.747000217437744 32.1619987487793,-6.747000217437744 C32.1619987487793,-9.54699993133545 30.652000427246094,-10.776000022888184 28.697999954223633,-10.776000022888184 C27.368999481201172,-10.776000022888184 25.999000549316406,-10.211999893188477 25.152999877929688,-8.942999839782715 C24.64900016784668,-10.192000389099121 23.601999282836914,-10.776000022888184 22.211999893188477,-10.776000022888184 C20.641000747680664,-10.776000022888184 19.513999938964844,-9.90999984741211 18.989999771118164,-8.92300033569336 C18.989999771118164,-8.92300033569336 18.989999771118164,-10.534000396728516 18.989999771118164,-10.534000396728516 C18.989999771118164,-10.534000396728516 16.069000244140625,-10.534000396728516 16.069000244140625,-10.534000396728516 C16.069000244140625,-10.534000396728516 16.069000244140625,0 16.069000244140625,0z"></path></g><g opacity="1" transform="matrix(1,0,0,1,0,0)"><path fill="rgb(77,62,99)" fill-opacity="1" d=" M8.663999557495117,-1.99399995803833 C7.01200008392334,-1.99399995803833 6.085999965667725,-3.203000068664551 6.085999965667725,-5.2170000076293945 C6.085999965667725,-5.2170000076293945 6.085999965667725,-5.377999782562256 6.085999965667725,-5.377999782562256 C6.085999965667725,-7.392000198364258 7.052999973297119,-8.5600004196167 8.663999557495117,-8.5600004196167 C10.295000076293945,-8.5600004196167 11.241999626159668,-7.3520002365112305 11.241999626159668,-5.3379998207092285 C11.241999626159668,-5.3379998207092285 11.241999626159668,-5.197000026702881 11.241999626159668,-5.197000026702881 C11.241999626159668,-3.203000068664551 10.295000076293945,-1.99399995803833 8.663999557495117,-1.99399995803833z M8.644000053405762,0.22200000286102295 C11.805999755859375,0.22200000286102295 14.20300006866455,-1.8940000534057617 14.20300006866455,-5.2170000076293945 C14.20300006866455,-5.2170000076293945 14.20300006866455,-5.377999782562256 14.20300006866455,-5.377999782562256 C14.20300006866455,-8.66100025177002 11.826000213623047,-10.776000022888184 8.663999557495117,-10.776000022888184 C5.501999855041504,-10.776000022888184 3.1050000190734863,-8.619999885559082 3.1050000190734863,-5.316999912261963 C3.1050000190734863,-5.316999912261963 3.1050000190734863,-5.156000137329102 3.1050000190734863,-5.156000137329102 C3.1050000190734863,-1.8730000257492065 5.501999855041504,0.22200000286102295 8.644000053405762,0.22200000286102295z"></path></g><g opacity="1" transform="matrix(1,0,0,1,0,0)"><path fill="rgb(77,62,99)" fill-opacity="1" d=" M-3.0369999408721924,0.22200000286102295 C0.02500000037252903,0.22200000286102295 1.8370000123977661,-1.5099999904632568 1.9980000257492065,-4.007999897003174 C1.9980000257492065,-4.007999897003174 -0.6399999856948853,-4.007999897003174 -0.6399999856948853,-4.007999897003174 C-0.781000018119812,-2.6589999198913574 -1.7280000448226929,-1.9739999771118164 -2.8959999084472656,-1.9739999771118164 C-4.5269999504089355,-1.9739999771118164 -5.473999977111816,-3.061000108718872 -5.473999977111816,-5.176000118255615 C-5.473999977111816,-5.176000118255615 -5.473999977111816,-5.3379998207092285 -5.473999977111816,-5.3379998207092285 C-5.473999977111816,-7.3520002365112305 -4.4670000076293945,-8.479999542236328 -2.9560000896453857,-8.479999542236328 C-1.7680000066757202,-8.479999542236328 -1.0219999551773071,-7.915999889373779 -0.8209999799728394,-6.686999797821045 C-0.8209999799728394,-6.686999797821045 1.937999963760376,-6.686999797821045 1.937999963760376,-6.686999797821045 C1.6759999990463257,-9.708000183105469 -0.5799999833106995,-10.776000022888184 -3.0169999599456787,-10.776000022888184 C-6.01800012588501,-10.776000022888184 -8.454999923706055,-8.701000213623047 -8.454999923706055,-5.296999931335449 C-8.454999923706055,-5.296999931335449 -8.454999923706055,-5.136000156402588 -8.454999923706055,-5.136000156402588 C-8.454999923706055,-1.6920000314712524 -6.11899995803833,0.22200000286102295 -3.0369999408721924,0.22200000286102295z"></path></g><g opacity="1" transform="matrix(1,0,0,1,0,0)"><path fill="rgb(77,62,99)" fill-opacity="1" d=" M-13.329999923706055,0 C-13.329999923706055,0 -10.430000305175781,0 -10.430000305175781,0 C-10.430000305175781,0 -10.430000305175781,-15.307999610900879 -10.430000305175781,-15.307999610900879 C-10.430000305175781,-15.307999610900879 -13.329999923706055,-15.307999610900879 -13.329999923706055,-15.307999610900879 C-13.329999923706055,-15.307999610900879 -13.329999923706055,0 -13.329999923706055,0z"></path></g><g opacity="1" transform="matrix(1,0,0,1,0,0)"><path fill="rgb(77,62,99)" fill-opacity="1" d=" M-22.79400062561035,-6.40500020980835 C-22.57200050354004,-7.894999980926514 -21.68600082397461,-8.76200008392334 -20.37700080871582,-8.76200008392334 C-18.98699951171875,-8.76200008392334 -18.18199920654297,-7.995999813079834 -18.08099937438965,-6.40500020980835 C-18.08099937438965,-6.40500020980835 -22.79400062561035,-6.40500020980835 -22.79400062561035,-6.40500020980835z M-20.29599952697754,0.22200000286102295 C-17.416000366210938,0.22200000286102295 -15.602999687194824,-1.0470000505447388 -15.26099967956543,-3.322999954223633 C-15.26099967956543,-3.322999954223633 -18.020000457763672,-3.322999954223633 -18.020000457763672,-3.322999954223633 C-18.201000213623047,-2.437000036239624 -18.867000579833984,-1.8530000448226929 -20.215999603271484,-1.8530000448226929 C-21.80699920654297,-1.8530000448226929 -22.753000259399414,-2.859999895095825 -22.833999633789062,-4.611999988555908 C-22.833999633789062,-4.611999988555908 -15.241000175476074,-4.611999988555908 -15.241000175476074,-4.611999988555908 C-15.241000175476074,-4.611999988555908 -15.241000175476074,-5.418000221252441 -15.241000175476074,-5.418000221252441 C-15.241000175476074,-9.184000015258789 -17.658000946044922,-10.776000022888184 -20.37700080871582,-10.776000022888184 C-23.43899917602539,-10.776000022888184 -25.795000076293945,-8.619999885559082 -25.795000076293945,-5.296999931335449 C-25.795000076293945,-5.296999931335449 -25.795000076293945,-5.136000156402588 -25.795000076293945,-5.136000156402588 C-25.795000076293945,-1.7719999551773071 -23.47800064086914,0.22200000286102295 -20.29599952697754,0.22200000286102295z"></path></g><g opacity="1" transform="matrix(1,0,0,1,0,0)"><path fill="rgb(77,62,99)" fill-opacity="1" d=" M-41.051998138427734,0 C-41.051998138427734,0 -37.90999984741211,0 -37.90999984741211,0 C-37.90999984741211,0 -35.270999908447266,-9.949999809265137 -35.270999908447266,-9.949999809265137 C-35.270999908447266,-9.949999809265137 -32.67300033569336,0 -32.67300033569336,0 C-32.67300033569336,0 -29.350000381469727,0 -29.350000381469727,0 C-29.350000381469727,0 -25.844999313354492,-14.401000022888184 -25.844999313354492,-14.401000022888184 C-25.844999313354492,-14.401000022888184 -28.865999221801758,-14.401000022888184 -28.865999221801758,-14.401000022888184 C-28.865999221801758,-14.401000022888184 -31.202999114990234,-4.390999794006348 -31.202999114990234,-4.390999794006348 C-31.202999114990234,-4.390999794006348 -33.76100158691406,-14.401000022888184 -33.76100158691406,-14.401000022888184 C-33.76100158691406,-14.401000022888184 -36.540000915527344,-14.401000022888184 -36.540000915527344,-14.401000022888184 C-36.540000915527344,-14.401000022888184 -38.99700164794922,-4.451000213623047 -38.99700164794922,-4.451000213623047 C-38.99700164794922,-4.451000213623047 -41.25299835205078,-14.401000022888184 -41.25299835205078,-14.401000022888184 C-41.25299835205078,-14.401000022888184 -44.55699920654297,-14.401000022888184 -44.55699920654297,-14.401000022888184 C-44.55699920654297,-14.401000022888184 -41.051998138427734,0 -41.051998138427734,0z"></path></g></g><g filter="url(#__lottie_element_153)" style="display: block;" transform="matrix(1.173774242401123,0.24949340522289276,-0.24949340522289276,1.173774242401123,361.1007385253906,270.7799987792969)" opacity="1"><g opacity="1" transform="matrix(1,0,0,1,47.87699890136719,-0.37299999594688416)"><path stroke-linecap="butt" stroke-linejoin="miter" fill-opacity="0" stroke-miterlimit="4" stroke="rgb(124,94,151)" stroke-opacity="1" stroke-width="2" d=" M13.126500129699707,-11.126500129699707 C13.126500129699707,-11.126500129699707 13.126500129699707,11.126500129699707 13.126500129699707,11.126500129699707 C13.126500129699707,12.230299949645996 12.230299949645996,13.126500129699707 11.126500129699707,13.126500129699707 C11.126500129699707,13.126500129699707 -11.126500129699707,13.126500129699707 -11.126500129699707,13.126500129699707 C-12.230299949645996,13.126500129699707 -13.126500129699707,12.230299949645996 -13.126500129699707,11.126500129699707 C-13.126500129699707,11.126500129699707 -13.126500129699707,-11.126500129699707 -13.126500129699707,-11.126500129699707 C-13.126500129699707,-12.230299949645996 -12.230299949645996,-13.126500129699707 -11.126500129699707,-13.126500129699707 C-11.126500129699707,-13.126500129699707 11.126500129699707,-13.126500129699707 11.126500129699707,-13.126500129699707 C12.230299949645996,-13.126500129699707 13.126500129699707,-12.230299949645996 13.126500129699707,-11.126500129699707z"></path></g><g opacity="1" transform="matrix(1,0,0,1,39.62200164794922,-0.19200000166893005)"><path stroke-linecap="butt" stroke-linejoin="miter" fill-opacity="0" stroke-miterlimit="4" stroke="rgb(124,94,151)" stroke-opacity="1" stroke-width="2" d=" M4.809500217437744,0 C4.809500217437744,0 4.809500217437744,0 4.809500217437744,0 C4.809500217437744,0.13549144566059113 4.699491500854492,0.24549999833106995 4.564000129699707,0.24549999833106995 C4.564000129699707,0.24549999833106995 -4.564000129699707,0.24549999833106995 -4.564000129699707,0.24549999833106995 C-4.699491500854492,0.24549999833106995 -4.809500217437744,0.13549144566059113 -4.809500217437744,0 C-4.809500217437744,0 -4.809500217437744,0 -4.809500217437744,0 C-4.809500217437744,-0.13549144566059113 -4.699491500854492,-0.24549999833106995 -4.564000129699707,-0.24549999833106995 C-4.564000129699707,-0.24549999833106995 4.564000129699707,-0.24549999833106995 4.564000129699707,-0.24549999833106995 C4.699491500854492,-0.24549999833106995 4.809500217437744,-0.13549144566059113 4.809500217437744,0z"></path></g><g opacity="1" transform="matrix(1,0,0,1,56.01100158691406,-0.1679999977350235)"><path stroke-linecap="butt" stroke-linejoin="miter" fill-opacity="0" stroke-miterlimit="4" stroke="rgb(124,94,151)" stroke-opacity="1" stroke-width="2" d=" M4.948500156402588,0 C4.948500156402588,0 4.948500156402588,0 4.948500156402588,0 C4.948500156402588,0.045531753450632095 4.911531925201416,0.08250000327825546 4.866000175476074,0.08250000327825546 C4.866000175476074,0.08250000327825546 -4.866000175476074,0.08250000327825546 -4.866000175476074,0.08250000327825546 C-4.911531925201416,0.08250000327825546 -4.948500156402588,0.045531753450632095 -4.948500156402588,0 C-4.948500156402588,0 -4.948500156402588,0 -4.948500156402588,0 C-4.948500156402588,-0.045531753450632095 -4.911531925201416,-0.08250000327825546 -4.866000175476074,-0.08250000327825546 C-4.866000175476074,-0.08250000327825546 4.866000175476074,-0.08250000327825546 4.866000175476074,-0.08250000327825546 C4.911531925201416,-0.08250000327825546 4.948500156402588,-0.045531753450632095 4.948500156402588,0z"></path></g><g opacity="1" transform="matrix(1,0,0,1,51.19900131225586,0.0020000000949949026)"><path stroke-linecap="butt" stroke-linejoin="miter" fill-opacity="0" stroke-miterlimit="4" stroke="rgb(124,94,151)" stroke-opacity="1" stroke-width="2" d=" M0.13650000095367432,-5.927999973297119 C0.13650000095367432,-5.927999973297119 0.13650000095367432,5.927999973297119 0.13650000095367432,5.927999973297119 C0.13650000095367432,6.003334045410156 0.0753343477845192,6.064499855041504 0,6.064499855041504 C0,6.064499855041504 0,6.064499855041504 0,6.064499855041504 C-0.0753343477845192,6.064499855041504 -0.13650000095367432,6.003334045410156 -0.13650000095367432,5.927999973297119 C-0.13650000095367432,5.927999973297119 -0.13650000095367432,-5.927999973297119 -0.13650000095367432,-5.927999973297119 C-0.13650000095367432,-6.003334045410156 -0.0753343477845192,-6.064499855041504 0,-6.064499855041504 C0,-6.064499855041504 0,-6.064499855041504 0,-6.064499855041504 C0.0753343477845192,-6.064499855041504 0.13650000095367432,-6.003334045410156 0.13650000095367432,-5.927999973297119z M-6.29,-5.55 C-6.29,-5.55 -6.29,5.6 -6.29,5.6 C-6.29,5.65 -6.32,5.68 -6.37,5.68 C-6.37,5.68 -6.37,5.68 -6.37,5.68 C-6.41,5.68 -6.45,5.65 -6.45,5.6 C-6.45,5.6 -6.45,-5.55 -6.45,-5.55 C-6.45,-5.59 -6.41,-5.63 -6.37,-5.63 C-6.37,-5.63 -6.37,-5.63 -6.37,-5.63 C-6.32,-5.63 -6.29,-5.59 -6.29,-5.55z"></path><g opacity="1" transform="matrix(1,0,0,1,-6.368000030517578,0.02800000086426735)"><path stroke-linecap="butt" stroke-linejoin="miter" fill-opacity="0" stroke-miterlimit="4" stroke="rgb(124,94,151)" stroke-opacity="1" stroke-width="2" d=" M0.08150000125169754,-5.573500156402588 C0.08150000125169754,-5.573500156402588 0.08150000125169754,5.573500156402588 0.08150000125169754,5.573500156402588 C0.08150000125169754,5.618480205535889 0.04497985169291496,5.65500020980835 0,5.65500020980835 C0,5.65500020980835 0,5.65500020980835 0,5.65500020980835 C-0.04497985169291496,5.65500020980835 -0.08150000125169754,5.618480205535889 -0.08150000125169754,5.573500156402588 C-0.08150000125169754,5.573500156402588 -0.08150000125169754,-5.573500156402588 -0.08150000125169754,-5.573500156402588 C-0.08150000125169754,-5.618480205535889 -0.04497985169291496,-5.65500020980835 0,-5.65500020980835 C0,-5.65500020980835 0,-5.65500020980835 0,-5.65500020980835 C0.04497985169291496,-5.65500020980835 0.08150000125169754,-5.618480205535889 0.08150000125169754,-5.573500156402588z"></path></g></g></g><g transform="matrix(1,0,0,1,329.5400085449219,300)" opacity="1" style="display: block;"><g opacity="1" transform="matrix(1,0,0,1,-156.27999877929688,-3.138000011444092)"><path fill="rgb(255,255,255)" fill-opacity="1" d=" M127.28949737548828,-220 C127.28949737548828,-220 127.28949737548828,220 127.28949737548828,220 C127.28949737548828,233.79750061035156 116.08699798583984,245 102.28949737548828,245 C102.28949737548828,245 -102.28949737548828,245 -102.28949737548828,245 C-116.08699798583984,245 -127.28949737548828,233.79750061035156 -127.28949737548828,220 C-127.28949737548828,220 -127.28949737548828,-220 -127.28949737548828,-220 C-127.28949737548828,-233.79750061035156 -116.08699798583984,-245 -102.28949737548828,-245 C-102.28949737548828,-245 102.28949737548828,-245 102.28949737548828,-245 C116.08699798583984,-245 127.28949737548828,-233.79750061035156 127.28949737548828,-220z"></path><path stroke-linecap="butt" stroke-linejoin="miter" fill-opacity="0" stroke-miterlimit="4" stroke="rgb(201,201,201)" stroke-opacity="1" stroke-width="1" d=" M127.28949737548828,-220 C127.28949737548828,-220 127.28949737548828,220 127.28949737548828,220 C127.28949737548828,233.79750061035156 116.08699798583984,245 102.28949737548828,245 C102.28949737548828,245 -102.28949737548828,245 -102.28949737548828,245 C-116.08699798583984,245 -127.28949737548828,233.79750061035156 -127.28949737548828,220 C-127.28949737548828,220 -127.28949737548828,-220 -127.28949737548828,-220 C-127.28949737548828,-233.79750061035156 -116.08699798583984,-245 -102.28949737548828,-245 C-102.28949737548828,-245 102.28949737548828,-245 102.28949737548828,-245 C116.08699798583984,-245 127.28949737548828,-233.79750061035156 127.28949737548828,-220z"></path></g></g><g transform="matrix(0.9056400060653687,0,0,0.9475200176239014,313.51300048828125,300)" opacity="1" style="display: block;"><g opacity="1" transform="matrix(1,0,0,1,-156.27999877929688,-3.138000011444092)"><path fill="rgb(195,189,213)" fill-opacity="0.3" d=" M127.28949737548828,-235 C127.28949737548828,-235 127.28949737548828,235 127.28949737548828,235 C127.28949737548828,240.5189971923828 122.8084945678711,245 117.28949737548828,245 C117.28949737548828,245 -117.28949737548828,245 -117.28949737548828,245 C-122.8084945678711,245 -127.28949737548828,240.5189971923828 -127.28949737548828,235 C-127.28949737548828,235 -127.28949737548828,-235 -127.28949737548828,-235 C-127.28949737548828,-240.5189971923828 -122.8084945678711,-245 -117.28949737548828,-245 C-117.28949737548828,-245 117.28949737548828,-245 117.28949737548828,-245 C122.8084945678711,-245 127.28949737548828,-240.5189971923828 127.28949737548828,-235z"></path><path stroke-linecap="butt" stroke-linejoin="miter" fill-opacity="0" stroke-miterlimit="4" stroke="rgb(201,201,201)" stroke-opacity="1" stroke-width="0" d=" M127.28949737548828,-235 C127.28949737548828,-235 127.28949737548828,235 127.28949737548828,235 C127.28949737548828,240.5189971923828 122.8084945678711,245 117.28949737548828,245 C117.28949737548828,245 -117.28949737548828,245 -117.28949737548828,245 C-122.8084945678711,245 -127.28949737548828,240.5189971923828 -127.28949737548828,235 C-127.28949737548828,235 -127.28949737548828,-235 -127.28949737548828,-235 C-127.28949737548828,-240.5189971923828 -122.8084945678711,-245 -117.28949737548828,-245 C-117.28949737548828,-245 117.28949737548828,-245 117.28949737548828,-245 C122.8084945678711,-245 127.28949737548828,-240.5189971923828 127.28949737548828,-235z"></path></g></g><g transform="matrix(1,0,0,1,135,113)" opacity="1" style="display: block;"><g opacity="1" transform="matrix(1,0,0,1,62.42900085449219,62.64099884033203)"><path fill="rgb(195,189,212)" fill-opacity="1" d=" M9.152000427246094,-10.64900016784668 C8.16100025177002,-10.642000198364258 7.359000205993652,-9.84000015258789 7.3520002365112305,-8.848999977111816 C7.3520002365112305,-8.848999977111816 7.3520002365112305,-1.3489999771118164 7.3520002365112305,-1.3489999771118164 C7.355999946594238,3.2899999618530273 3.5980000495910645,7.053999900817871 -1.0410000085830688,7.058000087738037 C-1.0460000038146973,7.058000087738037 -1.0499999523162842,7.058000087738037 -1.0549999475479126,7.058000087738037 C-1.0549999475479126,7.058000087738037 -9.208000183105469,7.058000087738037 -9.208000183105469,7.058000087738037 C-10.199999809265137,7.127999782562256 -10.946999549865723,7.988999843597412 -10.87600040435791,8.980999946594238 C-10.812999725341797,9.875 -10.10200023651123,10.586000442504883 -9.208000183105469,10.64900016784668 C-9.208000183105469,10.64900016784668 -1.0460000038146973,10.64900016784668 -1.0460000038146973,10.64900016784668 C5.577000141143799,10.638999938964844 10.944000244140625,5.271999835968018 10.954000473022461,-1.3509999513626099 C10.954000473022461,-1.3509999513626099 10.954000473022461,-8.848999977111816 10.954000473022461,-8.848999977111816 C10.946999549865723,-9.840999603271484 10.144000053405762,-10.644000053405762 9.152000427246094,-10.64900016784668z"></path></g><g opacity="1" transform="matrix(1,0,0,1,62.42900085449219,11.236000061035156)"><path fill="rgb(195,189,212)" fill-opacity="1" d=" M-1.0499999523162842,-11.236000061035156 C-1.0499999523162842,-11.236000061035156 -9.208000183105469,-11.236000061035156 -9.208000183105469,-11.236000061035156 C-10.199999809265137,-11.166000366210938 -10.946999549865723,-10.305000305175781 -10.87600040435791,-9.312999725341797 C-10.812999725341797,-8.418999671936035 -10.10200023651123,-7.708000183105469 -9.208000183105469,-7.644999980926514 C-9.208000183105469,-7.644999980926514 -1.0460000038146973,-7.644999980926514 -1.0460000038146973,-7.644999980926514 C3.5929999351501465,-7.646999835968018 7.355000019073486,-3.88700008392334 7.35699987411499,0.7519999742507935 C7.35699987411499,0.7559999823570251 7.35699987411499,0.7599999904632568 7.35699987411499,0.7639999985694885 C7.35699987411499,0.7639999985694885 7.35699987411499,9.496999740600586 7.35699987411499,9.496999740600586 C7.427000045776367,10.48900032043457 8.288000106811523,11.236000061035156 9.279999732971191,11.164999961853027 C10.173999786376953,11.10200023651123 10.885000228881836,10.390999794006348 10.947999954223633,9.496999740600586 C10.947999954223633,9.496999740600586 10.947999954223633,0.7639999985694885 10.947999954223633,0.7639999985694885 C10.937999725341797,-5.859000205993652 5.572999954223633,-11.225000381469727 -1.0499999523162842,-11.236000061035156z"></path></g><g opacity="1" transform="matrix(1,0,0,1,52.16999816894531,30.56599998474121)"><path fill="rgb(195,189,212)" fill-opacity="1" d=" M-0.014999999664723873,5.184000015258789 C1.2070000171661377,5.166999816894531 2.2070000171661377,4.204999923706055 2.2699999809265137,2.9839999675750732 C2.2699999809265137,2.9839999675750732 2.2699999809265137,-2.8970000743865967 2.2699999809265137,-2.8970000743865967 C2.299999952316284,-4.129000186920166 1.3250000476837158,-5.1519999504089355 0.09200000017881393,-5.182000160217285 C0.05700000002980232,-5.183000087738037 0.020999999716877937,-5.183000087738037 -0.014999999664723873,-5.182000160217285 C-1.274999976158142,-5.184000015258789 -2.2980000972747803,-4.164999961853027 -2.299999952316284,-2.9049999713897705 C-2.299999952316284,-2.9019999504089355 -2.299999952316284,-2.9000000953674316 -2.299999952316284,-2.8970000743865967 C-2.299999952316284,-2.8970000743865967 -2.299999952316284,2.9030001163482666 -2.299999952316284,2.9030001163482666 C-2.299999952316284,4.163000106811523 -1.2790000438690186,5.184000015258789 -0.01899999938905239,5.184000015258789 C-0.017999999225139618,5.184000015258789 -0.01600000075995922,5.184000015258789 -0.014999999664723873,5.184000015258789z"></path></g><g opacity="1" transform="matrix(1,0,0,1,36.73099899291992,55.32099914550781)"><path fill="rgb(195,189,212)" fill-opacity="1" d=" M11.180000305175781,-3.73799991607666 C8.3100004196167,-0.8370000123977661 4.406000137329102,0.8069999814033508 0.32499998807907104,0.8330000042915344 C0.32499998807907104,0.8330000042915344 -0.32899999618530273,0.8330000042915344 -0.32899999618530273,0.8330000042915344 C-4.413000106811523,0.8230000138282776 -8.322999954223633,-0.8230000138282776 -11.184000015258789,-3.73799991607666 C-11.88599967956543,-4.433000087738037 -13.019000053405762,-4.427000045776367 -13.71399974822998,-3.7249999046325684 C-14.404999732971191,-3.0280001163482666 -14.404999732971191,-1.9049999713897705 -13.71399974822998,-1.2079999446868896 C-10.187000274658203,2.38700008392334 -5.36299991607666,4.416999816894531 -0.3269999921321869,4.423999786376953 C-0.3269999921321869,4.423999786376953 0.32600000500679016,4.423999786376953 0.32600000500679016,4.423999786376953 C5.364999771118164,4.432000160217285 10.192999839782715,2.4000000953674316 13.710000038146973,-1.2079999446868896 C14.404999732971191,-1.909999966621399 14.39900016784668,-3.0429999828338623 13.696999549865723,-3.73799991607666 C13,-4.428999900817871 11.876999855041504,-4.428999900817871 11.180000305175781,-3.73799991607666z"></path></g><g opacity="1" transform="matrix(1,0,0,1,34.91699981689453,36.15599822998047)"><path fill="rgb(195,189,212)" fill-opacity="1" d=" M-2.6730000972747803,10.449000358581543 C-2.6730000972747803,10.449000358581543 -2.2730000019073486,10.449000358581543 -2.2730000019073486,10.449000358581543 C1.3539999723434448,10.47599983215332 4.315000057220459,7.557000160217285 4.3420000076293945,3.930000066757202 C4.3420000076293945,3.9260001182556152 4.3420000076293945,3.9210000038146973 4.3420000076293945,3.9170000553131104 C4.3420000076293945,3.9170000553131104 4.3420000076293945,-8.482000350952148 4.3420000076293945,-8.482000350952148 C4.4120001792907715,-9.473999977111816 3.6649999618530273,-10.335000038146973 2.6740000247955322,-10.406000137329102 C1.6820000410079956,-10.47599983215332 0.8209999799728394,-9.727999687194824 0.7509999871253967,-8.736000061035156 C0.7450000047683716,-8.652000427246094 0.7450000047683716,-8.567000389099121 0.7509999871253967,-8.482000350952148 C0.7509999871253967,-8.482000350952148 0.7509999871253967,3.8380000591278076 0.7509999871253967,3.8380000591278076 C0.7549999952316284,5.501999855041504 -0.5910000205039978,6.853000164031982 -2.255000114440918,6.85699987411499 C-2.259999990463257,6.85699987411499 -2.2639999389648438,6.85699987411499 -2.2690000534057617,6.85699987411499 C-2.2690000534057617,6.85699987411499 -2.6730000972747803,6.85699987411499 -2.6730000972747803,6.85699987411499 C-3.6649999618530273,6.927000045776367 -4.4120001792907715,7.789000034332275 -4.341000080108643,8.781000137329102 C-4.2779998779296875,9.675000190734863 -3.566999912261963,10.38599967956543 -2.6730000972747803,10.449000358581543z"></path></g><g opacity="1" transform="matrix(1,0,0,1,20.15999984741211,30.586999893188477)"><path fill="rgb(195,189,212)" fill-opacity="1" d=" M0,-5.203999996185303 C-1.2599999904632568,-5.205999851226807 -2.2829999923706055,-4.185999870300293 -2.2850000858306885,-2.9260001182556152 C-2.2850000858306885,-2.9230000972747803 -2.2850000858306885,-2.921999931335449 -2.2850000858306885,-2.9189999103546143 C-2.2850000858306885,-2.9189999103546143 -2.2850000858306885,2.881999969482422 -2.2850000858306885,2.881999969482422 C-2.2869999408721924,4.142000198364258 -1.2680000066757202,5.164999961853027 -0.00800000037997961,5.166999816894531 C-0.004999999888241291,5.166999816894531 -0.003000000026077032,5.166999816894531 0,5.166999816894531 C1.222000002861023,5.205999851226807 2.244999885559082,4.247000217437744 2.2839999198913574,3.0250000953674316 C2.2850000858306885,3.00600004196167 2.2850000858306885,2.9860000610351562 2.2850000858306885,2.9670000076293945 C2.2850000858306885,2.9670000076293945 2.2850000858306885,-2.9189999103546143 2.2850000858306885,-2.9189999103546143 C2.2869999408721924,-4.178999900817871 1.2680000066757202,-5.202000141143799 0.00800000037997961,-5.203999996185303 C0.004999999888241291,-5.203999996185303 0.003000000026077032,-5.203999996185303 0,-5.203999996185303z"></path></g><g opacity="1" transform="matrix(1,0,0,1,11.159000396728516,11.262999534606934)"><path fill="rgb(195,189,212)" fill-opacity="1" d=" M-9.277000427246094,11.263999938964844 C-8.28600025177002,11.256999969482422 -7.484000205993652,10.454999923706055 -7.4770002365112305,9.46399974822998 C-7.4770002365112305,9.46399974822998 -7.4770002365112305,0.7360000014305115 -7.4770002365112305,0.7360000014305115 C-7.48199987411499,-3.9030001163482666 -3.7239999771118164,-7.668000221252441 0.9150000214576721,-7.672999858856201 C0.9150000214576721,-7.672999858856201 0.9229999780654907,-7.672999858856201 0.9229999780654907,-7.672999858856201 C0.9229999780654907,-7.672999858856201 9.083000183105469,-7.672999858856201 9.083000183105469,-7.672999858856201 C10.074999809265137,-7.603000164031982 10.935999870300293,-8.348999977111816 11.006999969482422,-9.34000015258789 C11.07699966430664,-10.331999778747559 10.329000473022461,-11.194000244140625 9.336999893188477,-11.263999938964844 C9.253000259399414,-11.270000457763672 9.168000221252441,-11.270000457763672 9.083000183105469,-11.263999938964844 C9.083000183105469,-11.263999938964844 0.9229999780654907,-11.263999938964844 0.9229999780654907,-11.263999938964844 C-5.699999809265137,-11.253999710083008 -11.067000389099121,-5.88700008392334 -11.07699966430664,0.7360000014305115 C-11.07699966430664,0.7360000014305115 -11.07699966430664,9.468999862670898 -11.07699966430664,9.468999862670898 C-11.067000389099121,10.458000183105469 -10.265999794006348,11.256999969482422 -9.277000427246094,11.263999938964844z"></path></g><g opacity="1" transform="matrix(1,0,0,1,10.979999542236328,62.67399978637695)"><path fill="rgb(195,189,212)" fill-opacity="1" d=" M9.180000305175781,7.03000020980835 C9.180000305175781,7.03000020980835 1.0199999809265137,7.03000020980835 1.0199999809265137,7.03000020980835 C-3.61899995803833,7.034999847412109 -7.383999824523926,3.2780001163482666 -7.388999938964844,-1.3609999418258667 C-7.388999938964844,-1.3680000305175781 -7.388999938964844,-1.375 -7.388999938964844,-1.3819999694824219 C-7.388999938964844,-1.3819999694824219 -7.388999938964844,-8.881999969482422 -7.388999938964844,-8.881999969482422 C-7.459000110626221,-9.87399959564209 -8.319999694824219,-10.621000289916992 -9.312000274658203,-10.550000190734863 C-10.206000328063965,-10.487000465393066 -10.916999816894531,-9.776000022888184 -10.979999542236328,-8.881999969482422 C-10.979999542236328,-8.881999969482422 -10.979999542236328,-1.3819999694824219 -10.979999542236328,-1.3819999694824219 C-10.970000267028809,5.241000175476074 -5.603000164031982,10.607999801635742 1.0199999809265137,10.618000030517578 C1.0199999809265137,10.618000030517578 9.180000305175781,10.618000030517578 9.180000305175781,10.618000030517578 C10.152000427246094,10.640000343322754 10.958000183105469,9.871000289916992 10.979999542236328,8.89900016784668 C10.980999946594238,8.871999740600586 10.980999946594238,8.845000267028809 10.979999542236328,8.817999839782715 C10.967000007629395,7.830999851226807 10.166999816894531,7.035999774932861 9.180000305175781,7.03000020980835z"></path></g></g><g transform="matrix(1,0,0,1,170,217)" opacity="1" style="display: block;"><g opacity="1" transform="matrix(1,0,0,1,0,0)"><path fill="rgb(123,104,146)" fill-opacity="1" d=" M23.187000274658203,-2.2839999198913574 C23.187000274658203,-2.2839999198913574 23.187000274658203,-10.677000045776367 23.187000274658203,-10.677000045776367 C23.187000274658203,-10.677000045776367 24.347000122070312,-10.677000045776367 24.347000122070312,-10.677000045776367 C27.083999633789062,-10.677000045776367 28.226999282836914,-9.244999885559082 28.226999282836914,-6.579999923706055 C28.226999282836914,-6.579999923706055 28.226999282836914,-6.434999942779541 28.226999282836914,-6.434999942779541 C28.226999282836914,-3.752000093460083 26.993999481201172,-2.2839999198913574 24.384000778198242,-2.2839999198913574 C24.384000778198242,-2.2839999198913574 23.187000274658203,-2.2839999198913574 23.187000274658203,-2.2839999198913574z M20.250999450683594,0 C20.250999450683594,0 24.474000930786133,0 24.474000930786133,0 C29.02400016784668,0 31.290000915527344,-2.5920000076293945 31.290000915527344,-6.4710001945495605 C31.290000915527344,-6.4710001945495605 31.290000915527344,-6.617000102996826 31.290000915527344,-6.617000102996826 C31.290000915527344,-10.496000289916992 29.04199981689453,-12.961000442504883 24.492000579833984,-12.961000442504883 C24.492000579833984,-12.961000442504883 20.250999450683594,-12.961000442504883 20.250999450683594,-12.961000442504883 C20.250999450683594,-12.961000442504883 20.250999450683594,0 20.250999450683594,0z"></path></g><g opacity="1" transform="matrix(1,0,0,1,0,0)"><path fill="rgb(123,104,146)" fill-opacity="1" d=" M14.472999572753906,0 C14.472999572753906,0 17.42799949645996,0 17.42799949645996,0 C17.42799949645996,0 17.42799949645996,-12.961000442504883 17.42799949645996,-12.961000442504883 C17.42799949645996,-12.961000442504883 14.472999572753906,-12.961000442504883 14.472999572753906,-12.961000442504883 C14.472999572753906,-12.961000442504883 14.472999572753906,0 14.472999572753906,0z"></path></g><g opacity="1" transform="matrix(1,0,0,1,0,0)"><path fill="rgb(123,104,146)" fill-opacity="1" d=" M1.7239999771118164,-5.764999866485596 C1.9229999780654907,-7.105999946594238 2.7219998836517334,-7.885000228881836 3.9000000953674316,-7.885000228881836 C5.151000022888184,-7.885000228881836 5.875,-7.197000026702881 5.966000080108643,-5.764999866485596 C5.966000080108643,-5.764999866485596 1.7239999771118164,-5.764999866485596 1.7239999771118164,-5.764999866485596z M3.9719998836517334,0.19900000095367432 C6.564000129699707,0.19900000095367432 8.196000099182129,-0.9430000185966492 8.503999710083008,-2.990999937057495 C8.503999710083008,-2.990999937057495 6.020999908447266,-2.990999937057495 6.020999908447266,-2.990999937057495 C5.857999801635742,-2.193000078201294 5.260000228881836,-1.6679999828338623 4.045000076293945,-1.6679999828338623 C2.61299991607666,-1.6679999828338623 1.7610000371932983,-2.5739998817443848 1.687999963760376,-4.151000022888184 C1.687999963760376,-4.151000022888184 8.522000312805176,-4.151000022888184 8.522000312805176,-4.151000022888184 C8.522000312805176,-4.151000022888184 8.522000312805176,-4.875999927520752 8.522000312805176,-4.875999927520752 C8.522000312805176,-8.265999794006348 6.3470001220703125,-9.697999954223633 3.9000000953674316,-9.697999954223633 C1.1449999809265137,-9.697999954223633 -0.9769999980926514,-7.758999824523926 -0.9769999980926514,-4.76800012588501 C-0.9769999980926514,-4.76800012588501 -0.9769999980926514,-4.622000217437744 -0.9769999980926514,-4.622000217437744 C-0.9769999980926514,-1.5950000286102295 1.1080000400543213,0.19900000095367432 3.9719998836517334,0.19900000095367432z"></path></g><g opacity="1" transform="matrix(1,0,0,1,0,0)"><path fill="rgb(123,104,146)" fill-opacity="1" d=" M-6.504000186920166,0.19900000095367432 C-3.749000072479248,0.19900000095367432 -2.117000102996826,-1.3589999675750732 -1.972000002861023,-3.6070001125335693 C-1.972000002861023,-3.6070001125335693 -4.3470001220703125,-3.6070001125335693 -4.3470001220703125,-3.6070001125335693 C-4.473999977111816,-2.3919999599456787 -5.326000213623047,-1.7760000228881836 -6.376999855041504,-1.7760000228881836 C-7.84499979019165,-1.7760000228881836 -8.697999954223633,-2.75600004196167 -8.697999954223633,-4.658999919891357 C-8.697999954223633,-4.658999919891357 -8.697999954223633,-4.803999900817871 -8.697999954223633,-4.803999900817871 C-8.697999954223633,-6.617000102996826 -7.791999816894531,-7.631999969482422 -6.432000160217285,-7.631999969482422 C-5.361999988555908,-7.631999969482422 -4.690999984741211,-7.124000072479248 -4.510000228881836,-6.01800012588501 C-4.510000228881836,-6.01800012588501 -2.0269999504089355,-6.01800012588501 -2.0269999504089355,-6.01800012588501 C-2.263000011444092,-8.737000465393066 -4.293000221252441,-9.697999954223633 -6.486000061035156,-9.697999954223633 C-9.187000274658203,-9.697999954223633 -11.380000114440918,-7.831999778747559 -11.380000114440918,-4.76800012588501 C-11.380000114440918,-4.76800012588501 -11.380000114440918,-4.622000217437744 -11.380000114440918,-4.622000217437744 C-11.380000114440918,-1.5219999551773071 -9.277000427246094,0.19900000095367432 -6.504000186920166,0.19900000095367432z"></path></g><g opacity="1" transform="matrix(1,0,0,1,0,0)"><path fill="rgb(123,104,146)" fill-opacity="1" d=" M-17.617000579833984,-1.63100004196167 C-18.577999114990234,-1.63100004196167 -18.993999481201172,-2.0840001106262207 -18.993999481201172,-2.7730000019073486 C-18.993999481201172,-3.7880001068115234 -18.10700035095215,-4.114999771118164 -16.583999633789062,-4.114999771118164 C-16.583999633789062,-4.114999771118164 -15.567999839782715,-4.114999771118164 -15.567999839782715,-4.114999771118164 C-15.567999839782715,-4.114999771118164 -15.567999839782715,-3.316999912261963 -15.567999839782715,-3.316999912261963 C-15.567999839782715,-2.2660000324249268 -16.457000732421875,-1.63100004196167 -17.617000579833984,-1.63100004196167z M-18.395999908447266,0.19900000095367432 C-16.90999984741211,0.19900000095367432 -16.076000213623047,-0.38100001215934753 -15.531999588012695,-1.1419999599456787 C-15.531999588012695,-1.1419999599456787 -15.531999588012695,0 -15.531999588012695,0 C-15.531999588012695,0 -12.97599983215332,0 -12.97599983215332,0 C-12.97599983215332,0 -12.97599983215332,-6.181000232696533 -12.97599983215332,-6.181000232696533 C-12.97599983215332,-8.755000114440918 -14.62600040435791,-9.697999954223633 -16.945999145507812,-9.697999954223633 C-19.266000747680664,-9.697999954223633 -21.042999267578125,-8.701000213623047 -21.20599937438965,-6.453000068664551 C-21.20599937438965,-6.453000068664551 -18.722999572753906,-6.453000068664551 -18.722999572753906,-6.453000068664551 C-18.61400032043457,-7.269000053405762 -18.142000198364258,-7.795000076293945 -17.108999252319336,-7.795000076293945 C-15.913000106811523,-7.795000076293945 -15.567999839782715,-7.178999900817871 -15.567999839782715,-6.054999828338623 C-15.567999839782715,-6.054999828338623 -15.567999839782715,-5.673999786376953 -15.567999839782715,-5.673999786376953 C-15.567999839782715,-5.673999786376953 -16.63800048828125,-5.673999786376953 -16.63800048828125,-5.673999786376953 C-19.538000106811523,-5.673999786376953 -21.569000244140625,-4.840000152587891 -21.569000244140625,-2.628000020980835 C-21.569000244140625,-0.6340000033378601 -20.118000030517578,0.19900000095367432 -18.395999908447266,0.19900000095367432z"></path></g><g opacity="1" transform="matrix(1,0,0,1,0,0)"><path fill="rgb(123,104,146)" fill-opacity="1" d=" M-30.527000427246094,0 C-30.527000427246094,0 -27.59000015258789,0 -27.59000015258789,0 C-27.59000015258789,0 -27.59000015258789,-5.020999908447266 -27.59000015258789,-5.020999908447266 C-27.59000015258789,-5.020999908447266 -23.329999923706055,-5.020999908447266 -23.329999923706055,-5.020999908447266 C-23.329999923706055,-5.020999908447266 -23.329999923706055,-7.232999801635742 -23.329999923706055,-7.232999801635742 C-23.329999923706055,-7.232999801635742 -27.59000015258789,-7.232999801635742 -27.59000015258789,-7.232999801635742 C-27.59000015258789,-7.232999801635742 -27.59000015258789,-10.659000396728516 -27.59000015258789,-10.659000396728516 C-27.59000015258789,-10.659000396728516 -22.20599937438965,-10.659000396728516 -22.20599937438965,-10.659000396728516 C-22.20599937438965,-10.659000396728516 -22.20599937438965,-12.961000442504883 -22.20599937438965,-12.961000442504883 C-22.20599937438965,-12.961000442504883 -30.527000427246094,-12.961000442504883 -30.527000427246094,-12.961000442504883 C-30.527000427246094,-12.961000442504883 -30.527000427246094,0 -30.527000427246094,0z"></path></g></g><g transform="matrix(1.0319997072219849,0,0,1.0319997072219849,172.1999969482422,369.5999755859375)" opacity="1" style="display: block;"><g opacity="1" transform="matrix(1,0,0,1,0,0)"><path fill="rgb(123,104,146)" fill-opacity="1" d=" M46.47200012207031,0.1809999942779541 C47.17900085449219,0.1809999942779541 47.70399856567383,0.05400000140070915 48.06700134277344,-0.0729999989271164 C48.06700134277344,-0.0729999989271164 48.06700134277344,-2.1029999256134033 48.06700134277344,-2.1029999256134033 C47.75899887084961,-1.9759999513626099 47.46900177001953,-1.9220000505447388 47.06999969482422,-1.9220000505447388 C46.39899826049805,-1.9220000505447388 46.01900100708008,-2.2839999198913574 46.01900100708008,-3.0450000762939453 C46.01900100708008,-3.0450000762939453 46.01900100708008,-7.613999843597412 46.01900100708008,-7.613999843597412 C46.01900100708008,-7.613999843597412 48.01300048828125,-7.613999843597412 48.01300048828125,-7.613999843597412 C48.01300048828125,-7.613999843597412 48.01300048828125,-9.480999946594238 48.01300048828125,-9.480999946594238 C48.01300048828125,-9.480999946594238 46.01900100708008,-9.480999946594238 46.01900100708008,-9.480999946594238 C46.01900100708008,-9.480999946594238 46.01900100708008,-11.529000282287598 46.01900100708008,-11.529000282287598 C46.01900100708008,-11.529000282287598 43.40800094604492,-11.529000282287598 43.40800094604492,-11.529000282287598 C43.40800094604492,-11.529000282287598 43.40800094604492,-9.480999946594238 43.40800094604492,-9.480999946594238 C43.40800094604492,-9.480999946594238 42.194000244140625,-9.480999946594238 42.194000244140625,-9.480999946594238 C42.194000244140625,-9.480999946594238 42.194000244140625,-7.613999843597412 42.194000244140625,-7.613999843597412 C42.194000244140625,-7.613999843597412 43.40800094604492,-7.613999843597412 43.40800094604492,-7.613999843597412 C43.40800094604492,-7.613999843597412 43.40800094604492,-2.809999942779541 43.40800094604492,-2.809999942779541 C43.40800094604492,-0.8339999914169312 44.47800064086914,0.1809999942779541 46.47200012207031,0.1809999942779541z"></path></g><g opacity="1" transform="matrix(1,0,0,1,0,0)"><path fill="rgb(123,104,146)" fill-opacity="1" d=" M31.940000534057617,0 C31.940000534057617,0 34.56800079345703,0 34.56800079345703,0 C34.56800079345703,0 34.56800079345703,-5.473999977111816 34.56800079345703,-5.473999977111816 C34.56800079345703,-6.869999885559082 35.41999816894531,-7.559000015258789 36.54399871826172,-7.559000015258789 C37.70399856567383,-7.559000015258789 38.21200180053711,-6.942999839782715 38.21200180053711,-5.656000137329102 C38.21200180053711,-5.656000137329102 38.21200180053711,0 38.21200180053711,0 C38.21200180053711,0 40.84000015258789,0 40.84000015258789,0 C40.84000015258789,0 40.84000015258789,-6.035999774932861 40.84000015258789,-6.035999774932861 C40.84000015258789,-8.574000358581543 39.516998291015625,-9.697999954223633 37.650001525878906,-9.697999954223633 C36.073001861572266,-9.697999954223633 35.03900146484375,-8.918999671936035 34.56800079345703,-7.97599983215332 C34.56800079345703,-7.97599983215332 34.56800079345703,-9.480999946594238 34.56800079345703,-9.480999946594238 C34.56800079345703,-9.480999946594238 31.940000534057617,-9.480999946594238 31.940000534057617,-9.480999946594238 C31.940000534057617,-9.480999946594238 31.940000534057617,0 31.940000534057617,0z"></path></g><g opacity="1" transform="matrix(1,0,0,1,0,0)"><path fill="rgb(123,104,146)" fill-opacity="1" d=" M26.95400047302246,0 C26.95400047302246,0 29.565000534057617,0 29.565000534057617,0 C29.565000534057617,0 29.565000534057617,-9.480999946594238 29.565000534057617,-9.480999946594238 C29.565000534057617,-9.480999946594238 26.95400047302246,-9.480999946594238 26.95400047302246,-9.480999946594238 C26.95400047302246,-9.480999946594238 26.95400047302246,0 26.95400047302246,0z M28.242000579833984,-10.767999649047852 C29.0939998626709,-10.767999649047852 29.746000289916992,-11.383999824523926 29.746000289916992,-12.199999809265137 C29.746000289916992,-13.015999794006348 29.0939998626709,-13.631999969482422 28.242000579833984,-13.631999969482422 C27.408000946044922,-13.631999969482422 26.7549991607666,-13.015999794006348 26.7549991607666,-12.199999809265137 C26.7549991607666,-11.383999824523926 27.408000946044922,-10.767999649047852 28.242000579833984,-10.767999649047852z"></path></g><g opacity="1" transform="matrix(1,0,0,1,0,0)"><path fill="rgb(123,104,146)" fill-opacity="1" d=" M19.520000457763672,0 C19.520000457763672,0 22.14900016784668,0 22.14900016784668,0 C22.14900016784668,0 22.14900016784668,-4.749000072479248 22.14900016784668,-4.749000072479248 C22.14900016784668,-6.561999797821045 23.27199935913086,-7.196000099182129 25.211999893188477,-7.177999973297119 C25.211999893188477,-7.177999973297119 25.211999893188477,-9.62600040435791 25.211999893188477,-9.62600040435791 C23.67099952697754,-9.607999801635742 22.746999740600586,-8.937000274658203 22.14900016784668,-7.668000221252441 C22.14900016784668,-7.668000221252441 22.14900016784668,-9.480999946594238 22.14900016784668,-9.480999946594238 C22.14900016784668,-9.480999946594238 19.520000457763672,-9.480999946594238 19.520000457763672,-9.480999946594238 C19.520000457763672,-9.480999946594238 19.520000457763672,0 19.520000457763672,0z"></path></g><g opacity="1" transform="matrix(1,0,0,1,0,0)"><path fill="rgb(123,104,146)" fill-opacity="1" d=" M12.930000305175781,-1.8489999771118164 C11.498000144958496,-1.8489999771118164 10.592000007629395,-2.7739999294281006 10.592000007629395,-4.677000045776367 C10.592000007629395,-4.677000045776367 10.592000007629395,-4.822000026702881 10.592000007629395,-4.822000026702881 C10.592000007629395,-6.724999904632568 11.534000396728516,-7.685999870300293 12.911999702453613,-7.685999870300293 C14.234999656677246,-7.685999870300293 15.178000450134277,-6.74399995803833 15.178000450134277,-4.822000026702881 C15.178000450134277,-4.822000026702881 15.178000450134277,-4.677000045776367 15.178000450134277,-4.677000045776367 C15.178000450134277,-2.828000068664551 14.380000114440918,-1.8489999771118164 12.930000305175781,-1.8489999771118164z M8.053999900817871,3.2269999980926514 C8.053999900817871,3.2269999980926514 10.682999610900879,3.2269999980926514 10.682999610900879,3.2269999980926514 C10.682999610900879,3.2269999980926514 10.682999610900879,-1.4500000476837158 10.682999610900879,-1.4500000476837158 C11.17199993133545,-0.5260000228881836 12.241999626159668,0.19900000095367432 13.710000038146973,0.19900000095367432 C16.066999435424805,0.19900000095367432 17.843000411987305,-1.559000015258789 17.843000411987305,-4.695000171661377 C17.843000411987305,-4.695000171661377 17.843000411987305,-4.840000152587891 17.843000411987305,-4.840000152587891 C17.843000411987305,-7.97599983215332 16.030000686645508,-9.697999954223633 13.710000038146973,-9.697999954223633 C12.314000129699707,-9.697999954223633 11.208999633789062,-8.899999618530273 10.682999610900879,-7.99399995803833 C10.682999610900879,-7.99399995803833 10.682999610900879,-9.480999946594238 10.682999610900879,-9.480999946594238 C10.682999610900879,-9.480999946594238 8.053999900817871,-9.480999946594238 8.053999900817871,-9.480999946594238 C8.053999900817871,-9.480999946594238 8.053999900817871,3.2269999980926514 8.053999900817871,3.2269999980926514z"></path></g><g opacity="1" transform="matrix(1,0,0,1,0,0)"><path fill="rgb(123,104,146)" fill-opacity="1" d=" M0.6919999718666077,0 C0.6919999718666077,0 3.321000099182129,0 3.321000099182129,0 C3.321000099182129,0 3.321000099182129,-4.749000072479248 3.321000099182129,-4.749000072479248 C3.321000099182129,-6.561999797821045 4.443999767303467,-7.196000099182129 6.383999824523926,-7.177999973297119 C6.383999824523926,-7.177999973297119 6.383999824523926,-9.62600040435791 6.383999824523926,-9.62600040435791 C4.8429999351501465,-9.607999801635742 3.9189999103546143,-8.937000274658203 3.321000099182129,-7.668000221252441 C3.321000099182129,-7.668000221252441 3.321000099182129,-9.480999946594238 3.321000099182129,-9.480999946594238 C3.321000099182129,-9.480999946594238 0.6919999718666077,-9.480999946594238 0.6919999718666077,-9.480999946594238 C0.6919999718666077,-9.480999946594238 0.6919999718666077,0 0.6919999718666077,0z"></path></g><g opacity="1" transform="matrix(1,0,0,1,0,0)"><path fill="rgb(123,104,146)" fill-opacity="1" d=" M-7.752999782562256,-5.764999866485596 C-7.553999900817871,-7.105999946594238 -6.755000114440918,-7.885000228881836 -5.577000141143799,-7.885000228881836 C-4.326000213623047,-7.885000228881836 -3.6019999980926514,-7.197000026702881 -3.510999917984009,-5.764999866485596 C-3.510999917984009,-5.764999866485596 -7.752999782562256,-5.764999866485596 -7.752999782562256,-5.764999866485596z M-5.505000114440918,0.19900000095367432 C-2.9130001068115234,0.19900000095367432 -1.281000018119812,-0.9430000185966492 -0.9729999899864197,-2.990999937057495 C-0.9729999899864197,-2.990999937057495 -3.4560000896453857,-2.990999937057495 -3.4560000896453857,-2.990999937057495 C-3.61899995803833,-2.193000078201294 -4.2170000076293945,-1.6679999828338623 -5.432000160217285,-1.6679999828338623 C-6.863999843597412,-1.6679999828338623 -7.716000080108643,-2.5739998817443848 -7.789000034332275,-4.151000022888184 C-7.789000034332275,-4.151000022888184 -0.9549999833106995,-4.151000022888184 -0.9549999833106995,-4.151000022888184 C-0.9549999833106995,-4.151000022888184 -0.9549999833106995,-4.875999927520752 -0.9549999833106995,-4.875999927520752 C-0.9549999833106995,-8.265999794006348 -3.130000114440918,-9.697999954223633 -5.577000141143799,-9.697999954223633 C-8.331999778747559,-9.697999954223633 -10.454000473022461,-7.758999824523926 -10.454000473022461,-4.76800012588501 C-10.454000473022461,-4.76800012588501 -10.454000473022461,-4.622000217437744 -10.454000473022461,-4.622000217437744 C-10.454000473022461,-1.5950000286102295 -8.369000434875488,0.19900000095367432 -5.505000114440918,0.19900000095367432z"></path></g><g opacity="1" transform="matrix(1,0,0,1,0,0)"><path fill="rgb(123,104,146)" fill-opacity="1" d=" M-16.98900032043457,-2.3929998874664307 C-18.29400062561035,-2.3929998874664307 -19.2189998626709,-3.371999979019165 -19.2189998626709,-4.948999881744385 C-19.2189998626709,-4.948999881744385 -19.2189998626709,-5.093999862670898 -19.2189998626709,-5.093999862670898 C-19.2189998626709,-6.6529998779296875 -18.402999877929688,-7.703999996185303 -16.934999465942383,-7.703999996185303 C-15.503000259399414,-7.703999996185303 -14.649999618530273,-6.724999904632568 -14.649999618530273,-5.111999988555908 C-14.649999618530273,-5.111999988555908 -14.649999618530273,-4.985000133514404 -14.649999618530273,-4.985000133514404 C-14.649999618530273,-3.371999979019165 -15.611000061035156,-2.3929998874664307 -16.98900032043457,-2.3929998874664307z M-17.115999221801758,3.499000072479248 C-13.998000144958496,3.499000072479248 -12.130999565124512,2.066999912261963 -12.11299991607666,-0.7429999709129333 C-12.11299991607666,-0.7429999709129333 -12.11299991607666,-9.480999946594238 -12.11299991607666,-9.480999946594238 C-12.11299991607666,-9.480999946594238 -14.722999572753906,-9.480999946594238 -14.722999572753906,-9.480999946594238 C-14.722999572753906,-9.480999946594238 -14.722999572753906,-8.067000389099121 -14.722999572753906,-8.067000389099121 C-15.267000198364258,-9.027999877929688 -16.19099998474121,-9.697999954223633 -17.73200035095215,-9.697999954223633 C-20.089000701904297,-9.697999954223633 -21.900999069213867,-7.795000076293945 -21.900999069213867,-5.076000213623047 C-21.900999069213867,-5.076000213623047 -21.900999069213867,-4.948999881744385 -21.900999069213867,-4.948999881744385 C-21.900999069213867,-2.1389999389648438 -20.06999969482422,-0.4169999957084656 -17.76799964904785,-0.4169999957084656 C-16.371999740600586,-0.4169999957084656 -15.24899959564209,-1.2510000467300415 -14.722999572753906,-2.174999952316284 C-14.722999572753906,-2.174999952316284 -14.722999572753906,-0.7429999709129333 -14.722999572753906,-0.7429999709129333 C-14.722999572753906,0.7429999709129333 -15.520999908447266,1.5770000219345093 -17.115999221801758,1.5770000219345093 C-18.457000732421875,1.5770000219345093 -19.055999755859375,1.0329999923706055 -19.2189998626709,0.19900000095367432 C-19.2189998626709,0.19900000095367432 -21.82900047302246,0.19900000095367432 -21.82900047302246,0.19900000095367432 C-21.575000762939453,2.1570000648498535 -20.18000030517578,3.499000072479248 -17.115999221801758,3.499000072479248z"></path></g><g opacity="1" transform="matrix(1,0,0,1,0,0)"><path fill="rgb(123,104,146)" fill-opacity="1" d=" M-32.39099884033203,0 C-32.39099884033203,0 -29.76300048828125,0 -29.76300048828125,0 C-29.76300048828125,0 -29.76300048828125,-5.473999977111816 -29.76300048828125,-5.473999977111816 C-29.76300048828125,-6.869999885559082 -28.910999298095703,-7.559000015258789 -27.78700065612793,-7.559000015258789 C-26.62700080871582,-7.559000015258789 -26.118999481201172,-6.942999839782715 -26.118999481201172,-5.656000137329102 C-26.118999481201172,-5.656000137329102 -26.118999481201172,0 -26.118999481201172,0 C-26.118999481201172,0 -23.490999221801758,0 -23.490999221801758,0 C-23.490999221801758,0 -23.490999221801758,-6.035999774932861 -23.490999221801758,-6.035999774932861 C-23.490999221801758,-8.574000358581543 -24.81399917602539,-9.697999954223633 -26.680999755859375,-9.697999954223633 C-28.257999420166016,-9.697999954223633 -29.29199981689453,-8.918999671936035 -29.76300048828125,-7.97599983215332 C-29.76300048828125,-7.97599983215332 -29.76300048828125,-9.480999946594238 -29.76300048828125,-9.480999946594238 C-29.76300048828125,-9.480999946594238 -32.39099884033203,-9.480999946594238 -32.39099884033203,-9.480999946594238 C-32.39099884033203,-9.480999946594238 -32.39099884033203,0 -32.39099884033203,0z"></path></g><g opacity="1" transform="matrix(1,0,0,1,0,0)"><path fill="rgb(123,104,146)" fill-opacity="1" d=" M-37.375999450683594,0 C-37.375999450683594,0 -34.76599884033203,0 -34.76599884033203,0 C-34.76599884033203,0 -34.76599884033203,-9.480999946594238 -34.76599884033203,-9.480999946594238 C-34.76599884033203,-9.480999946594238 -37.375999450683594,-9.480999946594238 -37.375999450683594,-9.480999946594238 C-37.375999450683594,-9.480999946594238 -37.375999450683594,0 -37.375999450683594,0z M-36.0890007019043,-10.767999649047852 C-35.23699951171875,-10.767999649047852 -34.584999084472656,-11.383999824523926 -34.584999084472656,-12.199999809265137 C-34.584999084472656,-13.015999794006348 -35.23699951171875,-13.631999969482422 -36.0890007019043,-13.631999969482422 C-36.92300033569336,-13.631999969482422 -37.57600021362305,-13.015999794006348 -37.57600021362305,-12.199999809265137 C-37.57600021362305,-11.383999824523926 -36.92300033569336,-10.767999649047852 -36.0890007019043,-10.767999649047852z"></path></g><g opacity="1" transform="matrix(1,0,0,1,0,0)"><path fill="rgb(123,104,146)" fill-opacity="1" d=" M-47.23899841308594,0 C-47.23899841308594,0 -44.303001403808594,0 -44.303001403808594,0 C-44.303001403808594,0 -44.303001403808594,-5.020999908447266 -44.303001403808594,-5.020999908447266 C-44.303001403808594,-5.020999908447266 -40.042999267578125,-5.020999908447266 -40.042999267578125,-5.020999908447266 C-40.042999267578125,-5.020999908447266 -40.042999267578125,-7.232999801635742 -40.042999267578125,-7.232999801635742 C-40.042999267578125,-7.232999801635742 -44.303001403808594,-7.232999801635742 -44.303001403808594,-7.232999801635742 C-44.303001403808594,-7.232999801635742 -44.303001403808594,-10.659000396728516 -44.303001403808594,-10.659000396728516 C-44.303001403808594,-10.659000396728516 -38.91899871826172,-10.659000396728516 -38.91899871826172,-10.659000396728516 C-38.91899871826172,-10.659000396728516 -38.91899871826172,-12.961000442504883 -38.91899871826172,-12.961000442504883 C-38.91899871826172,-12.961000442504883 -47.23899841308594,-12.961000442504883 -47.23899841308594,-12.961000442504883 C-47.23899841308594,-12.961000442504883 -47.23899841308594,0 -47.23899841308594,0z"></path></g></g><g transform="matrix(1.1999996900558472,0,0,1.1999996900558472,144,264.6000061035156)" opacity="1" style="display: block;"><g opacity="1" transform="matrix(1,0,0,1,21.297000885009766,37.45899963378906)"><path fill="rgb(195,189,212)" fill-opacity="1" d=" M19.23200035095215,4.945000171661377 C19.163000106811523,8.29800033569336 18.74799919128418,11.633999824523926 17.9950008392334,14.902000427246094 C17.788999557495117,15.72599983215332 17.240999221801758,16.138999938964844 16.621999740600586,16.003000259399414 C16.017000198364258,15.88700008392334 15.621000289916992,15.300999641418457 15.73799991607666,14.696999549865723 C15.75100040435791,14.62600040435791 15.770999908447266,14.557999610900879 15.79800033569336,14.491999626159668 C16.562000274658203,11.204000473022461 16.952999114990234,7.841000080108643 16.964000701904297,4.465000152587891 C17.069000244140625,-4.88700008392334 9.572999954223633,-12.553999900817871 0.22100000083446503,-12.657999992370605 C-8.161999702453613,-12.751999855041504 -15.35099983215332,-6.697999954223633 -16.68600082397461,1.5789999961853027 C-16.7549991607666,2.128000020980835 -16.823999404907227,2.746999979019165 -16.89299964904785,3.296999931335449 C-16.961999893188477,4.120999813079834 -17.44099998474121,4.5329999923706055 -18.128000259399414,4.464000225067139 C-18.770999908447266,4.386000156402588 -19.231000900268555,3.803999900817871 -19.158000946044922,3.1600000858306885 C-19.014999389648438,-0.8360000252723694 -17.51300048828125,-4.664000034332275 -14.899999618530273,-7.690999984741211 C-9.74899959564209,-13.734999656677246 -3.1579999923706055,-16.13800048828125 4.534999847412109,-14.21500015258789 C12.227999687194824,-12.291999816894531 16.96500015258789,-7.142000198364258 18.81999969482422,0.5490000247955322 C18.950000762939453,1.184000015258789 19.041000366210938,1.8270000219345093 19.0939998626709,2.4730000495910645 C19.16200065612793,3.1600000858306885 19.23200035095215,4.052999973297119 19.23200035095215,4.945000171661377z"></path></g><g opacity="1" transform="matrix(1,0,0,1,22.5310001373291,31.516000747680664)"><path fill="rgb(195,189,212)" fill-opacity="1" d=" M22.5310001373291,11.368000030517578 C22.461999893188477,12.192000389099121 22.461999893188477,13.085000038146973 22.393999099731445,13.909000396728516 C22.326000213623047,14.732999801635742 21.844999313354492,15.208999633789062 21.22599983215332,15.208999633789062 C20.565000534057617,15.168000221252441 20.062000274658203,14.597999572753906 20.10300064086914,13.935999870300293 C20.10700035095215,13.880000114440918 20.11400032043457,13.822999954223633 20.125999450683594,13.767000198364258 C20.399999618530273,10.946000099182129 20.261999130249023,8.10099983215332 19.714000701904297,5.320000171661377 C17.02400016784668,-6.23799991607666 5.4730000495910645,-13.425999641418457 -6.085000038146973,-10.736000061035156 C-12.182000160217285,-9.317000389099121 -17.356000900268555,-5.309999942779541 -20.256000518798828,0.23800000548362732 C-20.667999267578125,0.9929999709129333 -21.14900016784668,1.1990000009536743 -21.767000198364258,1.062000036239624 C-22.35700035095215,0.871999979019165 -22.68199920654297,0.23899999260902405 -22.492000579833984,-0.35100001096725464 C-22.46500015258789,-0.43299999833106995 -22.429000854492188,-0.5120000243186951 -22.385000228881836,-0.5860000252723694 C-21.441999435424805,-2.4609999656677246 -20.23900032043457,-4.193999767303467 -18.812000274658203,-5.73199987411499 C-12.149999618530273,-12.668000221252441 -4.114999771118164,-15.208999633789062 5.086999893188477,-12.604000091552734 C14.427000045776367,-9.994000434875488 19.98699951171875,-3.6040000915527344 22.118999481201172,5.801000118255615 C22.249000549316406,6.435999870300293 22.340999603271484,7.078000068664551 22.393999099731445,7.723999977111816 C22.46299934387207,8.890999794006348 22.46299934387207,10.12399959564209 22.5310001373291,11.36400032043457 C22.5310001373291,11.36400032043457 22.5310001373291,11.368000030517578 22.5310001373291,11.368000030517578z"></path></g><g opacity="1" transform="matrix(1,0,0,1,20.781999588012695,41.59000015258789)"><path fill="rgb(195,189,212)" fill-opacity="1" d=" M15.28499984741211,0.7450000047683716 C15.114999771118164,5.394999980926514 14.281999588012695,9.998000144958496 12.812000274658203,14.413000106811523 C12.536999702453613,15.237000465393066 11.98799991607666,15.579999923706055 11.300999641418457,15.37399959564209 C10.61400032043457,15.098999977111816 10.409000396728516,14.550000190734863 10.684000015258789,13.656999588012695 C12.012999534606934,9.592000007629395 12.774999618530273,5.36299991607666 12.949000358581543,1.0889999866485596 C13.154999732971191,-5.367000102996826 9.17199993133545,-10.793000221252441 3.197000026702881,-12.029000282287598 C-3.503999948501587,-13.51099967956543 -10.13599967956543,-9.279000282287598 -11.618000030517578,-2.5789999961853027 C-11.805000305175781,-1.7350000143051147 -11.902999877929688,-0.8740000128746033 -11.91100025177002,-0.009999999776482582 C-11.956999778747559,1.9040000438690186 -12.281000137329102,3.8010001182556152 -12.871999740600586,5.622000217437744 C-12.940999984741211,5.758999824523926 -12.942000389099121,5.965000152587891 -13.010000228881836,6.103000164031982 C-13.229999542236328,6.642000198364258 -13.833000183105469,6.914000034332275 -14.383000373840332,6.7210001945495605 C-14.947999954223633,6.566999912261963 -15.28499984741211,5.98799991607666 -15.138999938964844,5.421000003814697 C-14.246000289916992,3.0209999084472656 -14.314000129699707,0.5440000295639038 -14.038000106811523,-1.9279999732971191 C-12.987000465393066,-9.937999725341797 -5.642000198364258,-15.579999923706055 2.368000030517578,-14.529000282287598 C8.708000183105469,-13.697999954223633 13.772000312805176,-8.845000267028809 14.87399959564209,-2.5460000038146973 C15.13700008392334,-1.468000054359436 15.274999618530273,-0.36399999260902405 15.28499984741211,0.7450000047683716z"></path></g><g opacity="1" transform="matrix(1,0,0,1,24.447999954223633,23.466999053955078)"><path fill="rgb(195,189,212)" fill-opacity="1" d=" M24.32200050354004,11.795000076293945 C24.378999710083008,12.373000144958496 23.9950008392334,12.904000282287598 23.42799949645996,13.031000137329102 C22.8439998626709,13.145999908447266 22.273000717163086,12.784000396728516 22.128000259399414,12.206999778747559 C21.922000885009766,11.45199966430664 21.715999603271484,10.696000099182129 21.44099998474121,9.940999984741211 C17.797000885009766,0.050999999046325684 10.793000221252441,-5.923999786376953 0.35899999737739563,-7.434000015258789 C-8.293999671936035,-8.734000205993652 -15.711999893188477,-5.922999858856201 -21.89299964904785,0.257999986410141 C-22.0049991607666,0.35499998927116394 -22.097000122070312,0.47099998593330383 -22.16699981689453,0.6010000109672546 C-22.554000854492188,1.1050000190734863 -23.277000427246094,1.1990000009536743 -23.7810001373291,0.8119999766349792 C-24.284000396728516,0.42500001192092896 -24.378999710083008,-0.296999990940094 -23.992000579833984,-0.800000011920929 C-23.941999435424805,-0.8659999966621399 -23.882999420166016,-0.9259999990463257 -23.81999969482422,-0.9789999723434448 C-13.227999687194824,-12.440999984741211 4.64900016784668,-13.145999908447266 16.111000061035156,-2.553999900817871 C20.124000549316406,1.1549999713897705 22.976999282836914,5.947999954223633 24.32200050354004,11.244999885559082 C24.32200050354004,11.244999885559082 24.32200050354004,11.795000076293945 24.32200050354004,11.795000076293945z"></path></g><g opacity="1" transform="matrix(1,0,0,1,20.172000885009766,44.65800094604492)"><path fill="rgb(195,189,212)" fill-opacity="1" d=" M11.361000061035156,-1.6349999904632568 C11.064000129699707,3.365999937057495 9.949000358581543,8.284000396728516 8.060999870300293,12.923999786376953 C7.921999931335449,13.552000045776367 7.301000118255615,13.946000099182129 6.672999858856201,13.807000160217285 C6.607999801635742,13.793000221252441 6.544000148773193,13.77299976348877 6.48199987411499,13.746999740600586 C5.885000228881836,13.472000122070312 5.623000144958496,12.763999938964844 5.8979997634887695,12.166999816894531 C5.908999919891357,12.144000053405762 5.920000076293945,12.121999740600586 5.932000160217285,12.100000381469727 C7.414000034332275,8.574999809265137 8.36400032043457,4.8470001220703125 8.74899959564209,1.0420000553131104 C8.944000244140625,-0.8059999942779541 8.967000007629395,-2.6689999103546143 8.817999839782715,-4.520999908447266 C8.015999794006348,-8.772000312805176 3.9179999828338623,-11.567000389099121 -0.3330000042915344,-10.763999938964844 C-3.4760000705718994,-10.170999526977539 -5.942999839782715,-7.7270002365112305 -6.564000129699707,-4.589000225067139 C-6.839000225067139,-3.078000068664551 -6.769000053405762,-1.565999984741211 -6.974999904632568,-0.054999999701976776 C-7.314000129699707,2.367000102996826 -8.010000228881836,4.724999904632568 -9.03600025177002,6.945000171661377 C-9.22599983215332,7.510000228881836 -9.836999893188477,7.813000202178955 -10.402000427246094,7.622000217437744 C-10.451000213623047,7.605999946594238 -10.5,7.585999965667725 -10.54699993133545,7.561999797821045 C-11.114999771118164,7.298999786376953 -11.361000061035156,6.626999855041504 -11.097999572753906,6.059000015258789 C-11.097000122070312,6.057000160217285 -11.097000122070312,6.052999973297119 -11.095999717712402,6.051000118255615 C-10.199999809265137,4.013000011444092 -9.576000213623047,1.8650000095367432 -9.241999626159668,-0.335999995470047 C-9.104999542236328,-1.7100000381469727 -9.104000091552734,-3.0820000171661377 -8.89799976348877,-4.38700008392334 C-8.144000053405762,-9.946000099182129 -3.0260000228881836,-13.840999603271484 2.5329999923706055,-13.086999893188477 C7.033999919891357,-12.47700023651123 10.581999778747559,-8.95199966430664 11.222999572753906,-4.455999851226807 C11.295999526977539,-3.490000009536743 11.295999526977539,-2.5969998836517334 11.361000061035156,-1.6349999904632568z"></path></g><g opacity="1" transform="matrix(1,0,0,1,25.641000747680664,17.649999618530273)"><path fill="rgb(195,189,212)" fill-opacity="1" d=" M-3.0360000133514404,-8.760000228881836 C7.4710001945495605,-8.347999572753906 16.81100082397461,-3.4030001163482666 23.334999084472656,6.554999828338623 C23.472000122070312,6.761000156402588 23.541000366210938,6.89900016784668 23.67799949645996,7.105000019073486 C23.913999557495117,7.60099983215332 23.736000061035156,8.194999694824219 23.266000747680664,8.479000091552734 C22.797000885009766,8.760000228881836 22.19499969482422,8.673999786376953 21.823999404907227,8.27299976348877 C21.7549991607666,8.13599967956543 21.618000030517578,8.067000389099121 21.548999786376953,7.929999828338623 C16.90399932861328,0.3440000116825104 9.130000114440918,-4.789000034332275 0.32899999618530273,-6.080999851226807 C-7.254000186920166,-7.311999797821045 -15.020000457763672,-5.591000080108643 -21.37299919128418,-1.2730000019073486 C-21.56399917602539,-1.1330000162124634 -21.770999908447266,-1.0180000066757202 -21.990999221801758,-0.9300000071525574 C-22.492000579833984,-0.6899999976158142 -23.093000411987305,-0.8330000042915344 -23.433000564575195,-1.2730000019073486 C-23.77199935913086,-1.715999960899353 -23.711999893188477,-2.3450000286102295 -23.29599952697754,-2.7160000801086426 C-23.125999450683594,-2.869999885559082 -22.941999435424805,-3.006999969482422 -22.746999740600586,-3.128000020980835 C-17.114999771118164,-6.835999965667725 -11.003000259399414,-8.690999984741211 -3.0360000133514404,-8.760000228881836z"></path></g><g opacity="1" transform="matrix(1,0,0,1,19.719999313354492,47.05699920654297)"><path fill="rgb(195,189,212)" fill-opacity="1" d=" M7.2789998054504395,-4.171999931335449 C7.00600004196167,0.8679999709129333 5.771999835968018,5.809000015258789 3.6410000324249268,10.385000228881836 C3.4549999237060547,10.777000427246094 3.1389999389648438,11.093000411987305 2.746999979019165,11.279000282287598 C2.371999979019165,11.303000450134277 2.003000020980835,11.180000305175781 1.7170000076293945,10.935999870300293 C1.3049999475479126,10.593000411987305 1.375,10.111000061035156 1.5809999704360962,9.635000228881836 C2.3359999656677246,7.711999893188477 3.0920000076293945,5.789000034332275 3.7100000381469727,3.7980000972747803 C4.611999988555908,0.8610000014305115 5.073999881744385,-2.194000005722046 5.083000183105469,-5.267000198364258 C5.193999767303467,-7.125 3.7769999504089355,-8.722000122070312 1.9190000295639038,-8.833000183105469 C0.061000000685453415,-8.944000244140625 -1.534999966621399,-7.5279998779296875 -1.6460000276565552,-5.669000148773193 C-1.6540000438690186,-5.534999847412109 -1.6540000438690186,-5.401000022888184 -1.6460000276565552,-5.267000198364258 C-1.8960000276565552,-0.8560000061988831 -3.0190000534057617,3.4619998931884766 -4.947000026702881,7.438000202178955 C-5.166999816894531,8.041000366210938 -5.834000110626221,8.35200023651123 -6.438000202178955,8.133000373840332 C-6.445000171661377,8.130000114440918 -6.451000213623047,8.128999710083008 -6.458000183105469,8.12600040435791 C-7.025000095367432,7.875 -7.28000020980835,7.211999893188477 -7.0289998054504395,6.644999980926514 C-7.004000186920166,6.586999893188477 -6.973999977111816,6.53000020980835 -6.939000129699707,6.4770002365112305 C-5.635000228881836,3.734999895095825 -4.730999946594238,0.8190000057220459 -4.256999969482422,-2.180999994277954 C-4.119999885559082,-3.4170000553131104 -4.119999885559082,-4.7220001220703125 -3.9820001125335693,-6.0269999504089355 C-3.7230000495910645,-9.045000076293945 -1.0989999771118164,-11.303000450134277 1.9240000247955322,-11.109000205993652 C4.875999927520752,-10.911999702453613 7.196000099182129,-8.503999710083008 7.281000137329102,-5.546000003814697 C7.281000137329102,-5.546000003814697 7.2789998054504395,-4.171999931335449 7.2789998054504395,-4.171999931335449z"></path></g><g opacity="1" transform="matrix(1,0,0,1,26.5310001373291,9.732999801635742)"><path fill="rgb(195,189,212)" fill-opacity="1" d=" M20.45400047302246,5.13100004196167 C20.676000595092773,5.4730000495910645 20.648000717163086,5.920000076293945 20.385000228881836,6.230999946594238 C20.24799919128418,6.368000030517578 20.110000610351562,6.573999881744385 19.972999572753906,6.64300012588501 C19.492000579833984,6.918000221252441 19.079999923706055,6.711999893188477 18.67300033569336,6.368000030517578 C17.506000518798828,5.4070000648498535 16.406999588012695,4.375999927520752 15.23900032043457,3.552000045776367 C8.477999687194824,-1.3799999952316284 0.14900000393390656,-3.6760001182556152 -8.184000015258789,-2.9040000438690186 C-11.82800006866455,-2.614000082015991 -15.399999618530273,-1.7319999933242798 -18.760000228881836,-0.2939999997615814 C-19.514999389648438,-0.01899999938905239 -19.996000289916992,-0.08799999952316284 -20.34000015258789,-0.5690000057220459 C-20.676000595092773,-1.1030000448226929 -20.516000747680664,-1.809000015258789 -19.98200035095215,-2.1449999809265137 C-19.8799991607666,-2.2090001106262207 -19.768999099731445,-2.256999969482422 -19.652999877929688,-2.2860000133514404 C-8.729000091552734,-6.918000221252441 3.752000093460083,-6.050000190734863 13.930000305175781,0.04899999871850014 C16.149999618530273,1.3819999694824219 18.222000122070312,2.947999954223633 20.111000061035156,4.718999862670898 C20.274999618530273,4.804999828338623 20.39900016784668,4.953999996185303 20.45400047302246,5.13100004196167z"></path></g><g opacity="1" transform="matrix(1,0,0,1,27.163999557495117,3.3910000324249268)"><path fill="rgb(195,189,212)" fill-opacity="1" d=" M-5.863999843597412,-3.3589999675750732 C0.5189999938011169,-3.4609999656677246 6.831999778747559,-2.0250000953674316 12.541999816894531,0.8289999961853027 C12.678999900817871,0.8980000019073486 12.748000144958496,0.9670000076293945 12.885000228881836,0.9670000076293945 C13.527999877929688,1.2269999980926514 13.838000297546387,1.9589999914169312 13.57800006866455,2.6010000705718994 C13.576000213623047,2.6059999465942383 13.574000358581543,2.609999895095825 13.571999549865723,2.615000009536743 C13.293000221252441,3.1679999828338623 12.618000030517578,3.390000104904175 12.0649995803833,3.1110000610351562 C12.015999794006348,3.0859999656677246 11.968999862670898,3.059000015258789 11.923999786376953,3.0269999504089355 C8.449999809265137,1.3040000200271606 4.750999927520752,0.07900000363588333 0.9359999895095825,-0.6129999756813049 C-3.309999942779541,-1.3450000286102295 -7.645999908447266,-1.3919999599456787 -11.906999588012695,-0.7509999871253967 C-12.11299991607666,-0.7509999871253967 -12.319000244140625,-0.6819999814033508 -12.456000328063965,-0.6819999814033508 C-13.029999732971191,-0.5770000219345093 -13.581000328063965,-0.9559999704360962 -13.685999870300293,-1.531000018119812 C-13.689000129699707,-1.5449999570846558 -13.690999984741211,-1.559000015258789 -13.692999839782715,-1.5740000009536743 C-13.838000297546387,-2.13100004196167 -13.503999710083008,-2.7009999752044678 -12.946999549865723,-2.8459999561309814 C-12.87600040435791,-2.865000009536743 -12.803999900817871,-2.877000093460083 -12.730999946594238,-2.880000114440918 C-11.458000183105469,-3.1080000400543213 -10.175000190734863,-3.2669999599456787 -8.885000228881836,-3.3589999675750732 C-7.855000019073486,-3.427999973297119 -6.824999809265137,-3.3589999675750732 -5.863999843597412,-3.3589999675750732z"></path></g><g opacity="1" transform="matrix(1,0,0,1,19.485000610351562,49.60200119018555)"><path fill="rgb(195,189,212)" fill-opacity="1" d=" M2.9860000610351562,-6.374000072479248 C2.7290000915527344,-1.50600004196167 1.4910000562667847,3.259000062942505 -0.6539999842643738,7.636000156402588 C-0.8600000143051147,8.206999778747559 -1.4910000562667847,8.503000259399414 -2.062000036239624,8.29699993133545 C-2.0969998836517334,8.28499984741211 -2.13100004196167,8.270000457763672 -2.1649999618530273,8.253999710083008 C-2.7320001125335693,8.003000259399414 -2.98799991607666,7.340000152587891 -2.736999988555908,6.7729997634887695 C-2.7119998931884766,6.715000152587891 -2.680999994277954,6.658999919891357 -2.6459999084472656,6.605999946594238 C-1.340999960899353,3.9019999504089355 -0.39500001072883606,1.0390000343322754 0.16699999570846558,-1.909999966621399 C0.44200000166893005,-3.627000093460083 0.5789999961853027,-5.343999862670898 0.7160000205039978,-7.129000186920166 C0.7860000133514404,-7.953999996185303 1.1970000267028809,-8.503000259399414 1.815000057220459,-8.503000259399414 C2.502000093460083,-8.503000259399414 2.9149999618530273,-7.953999996185303 2.9149999618530273,-7.129000186920166 C2.9639999866485596,-6.880000114440918 2.98799991607666,-6.626999855041504 2.9860000610351562,-6.374000072479248z"></path></g></g><g transform="matrix(0.9999994039535522,0,0,0.9999994039535522,246.1009521484375,293.0000915527344)" opacity="1" style="display: block;"><g opacity="1" transform="matrix(1,0,0,1,-74.552001953125,165.95599365234375)"><path fill="rgb(198,192,215)" fill-opacity="0" d=" M21.072999954223633,-17.072999954223633 C21.072999954223633,-17.072999954223633 21.072999954223633,17.072999954223633 21.072999954223633,17.072999954223633 C21.072999954223633,19.28059959411621 19.28059959411621,21.072999954223633 17.072999954223633,21.072999954223633 C17.072999954223633,21.072999954223633 -17.072999954223633,21.072999954223633 -17.072999954223633,21.072999954223633 C-19.28059959411621,21.072999954223633 -21.072999954223633,19.28059959411621 -21.072999954223633,17.072999954223633 C-21.072999954223633,17.072999954223633 -21.072999954223633,-17.072999954223633 -21.072999954223633,-17.072999954223633 C-21.072999954223633,-19.28059959411621 -19.28059959411621,-21.072999954223633 -17.072999954223633,-21.072999954223633 C-17.072999954223633,-21.072999954223633 17.072999954223633,-21.072999954223633 17.072999954223633,-21.072999954223633 C19.28059959411621,-21.072999954223633 21.072999954223633,-19.28059959411621 21.072999954223633,-17.072999954223633z"></path><path stroke-linecap="butt" stroke-linejoin="miter" fill-opacity="0" stroke-miterlimit="4" stroke="rgb(196,188,206)" stroke-opacity="1" stroke-width="2.5" d=" M21.072999954223633,-17.072999954223633 C21.072999954223633,-17.072999954223633 21.072999954223633,17.072999954223633 21.072999954223633,17.072999954223633 C21.072999954223633,19.28059959411621 19.28059959411621,21.072999954223633 17.072999954223633,21.072999954223633 C17.072999954223633,21.072999954223633 -17.072999954223633,21.072999954223633 -17.072999954223633,21.072999954223633 C-19.28059959411621,21.072999954223633 -21.072999954223633,19.28059959411621 -21.072999954223633,17.072999954223633 C-21.072999954223633,17.072999954223633 -21.072999954223633,-17.072999954223633 -21.072999954223633,-17.072999954223633 C-21.072999954223633,-19.28059959411621 -19.28059959411621,-21.072999954223633 -17.072999954223633,-21.072999954223633 C-17.072999954223633,-21.072999954223633 17.072999954223633,-21.072999954223633 17.072999954223633,-21.072999954223633 C19.28059959411621,-21.072999954223633 21.072999954223633,-19.28059959411621 21.072999954223633,-17.072999954223633z"></path></g></g><g transform="matrix(0.9999994039535522,0,0,0.9999994039535522,246.7499542236328,292.2500915527344)" opacity="1" style="display: block;"><g opacity="1" transform="matrix(1,0,0,1,-0.375,0)"><path fill="rgb(198,192,215)" fill-opacity="1" d=" M-83.125,145.25 C-83.125,145.25 -83,133.375 -83,133.375"></path><path stroke-linecap="butt" stroke-linejoin="miter" fill-opacity="0" stroke-miterlimit="4" stroke="rgb(201,194,210)" stroke-opacity="1" stroke-width="3" d=" M-83.125,145.25 C-83.125,145.25 -83,133.375 -83,133.375"></path></g></g><g transform="matrix(0.9999994039535522,0,0,0.9999994039535522,245.3749542236328,281.5000915527344)" opacity="1" style="display: block;"><g opacity="1" transform="matrix(1,0,0,1,0,0)"><path fill="rgb(198,192,215)" fill-opacity="0" d=" M-82.25,145.5 C-82.25,145.5 -82,136.625 -82,136.625 C-82,136.625 -81.875,131.125 -73.75,131.125 C-65.625,131.125 -64.625,135.875 -64.625,135.875 C-64.625,135.875 -65.125,144.875 -65.125,144.875"></path><path stroke-linecap="butt" stroke-linejoin="miter" fill-opacity="0" stroke-miterlimit="4" stroke="rgb(196,188,206)" stroke-opacity="1" stroke-width="3" d=" M-82.25,145.5 C-82.25,145.5 -82,136.625 -82,136.625 C-82,136.625 -81.875,131.125 -73.75,131.125 C-65.625,131.125 -64.625,135.875 -64.625,135.875 C-64.625,135.875 -65.125,144.875 -65.125,144.875"></path></g></g></g></svg>