<svg xmlns="http://www.w3.org/2000/svg" viewBox="0 0 600 600" width="600" height="600" preserveAspectRatio="xMidYMid meet" style="width: 100%; height: 100%; transform: translate3d(0px, 0px, 0px);"><defs><clipPath id="__lottie_element_158"><rect width="600" height="600" x="0" y="0"></rect></clipPath><clipPath id="__lottie_element_163"><path fill="#ffffff" clip-rule="nonzero" d=" M-4.5,-21.586999893188477 C-4.5,-21.586999893188477 -4.5,-6.816999912261963 -4.5,-6.816999912261963 C-4.5,-6.816999912261963 237,-6.816999912261963 237,-6.816999912261963 C237,-6.816999912261963 237,-21.586999893188477 237,-21.586999893188477 C237,-21.586999893188477 -4.5,-21.586999893188477 -4.5,-21.586999893188477" fill-opacity="1"></path><path fill="#ffffff" clip-rule="nonzero" d=" M-6.125,-5.086999893188477 C-6.125,-5.086999893188477 -6.125,9.682999610900879 -6.125,9.682999610900879 C-6.125,9.682999610900879 106.5,9.682999610900879 106.5,9.682999610900879 C106.5,9.682999610900879 106.5,-5.086999893188477 106.5,-5.086999893188477 C106.5,-5.086999893188477 -6.125,-5.086999893188477 -6.125,-5.086999893188477" fill-opacity="1"></path></clipPath><clipPath id="__lottie_element_178"><path d="M0,0 L62,0 L62,52 L0,52z"></path></clipPath><filter id="__lottie_element_186" filterUnits="objectBoundingBox" x="0%" y="0%" width="100%" height="100%"><feColorMatrix type="matrix" color-interpolation-filters="sRGB" values="0 0 0 0 0.8980392217636108 0 0 0 0 0.886274516582489 0 0 0 0 0.9254902005195618 0 0 0 1 0"></feColorMatrix></filter><filter id="__lottie_element_189" filterUnits="objectBoundingBox" x="0%" y="0%" width="100%" height="100%"><feColorMatrix type="matrix" color-interpolation-filters="sRGB" values="0 0 0 0 0.8980392217636108 0 0 0 0 0.886274516582489 0 0 0 0 0.9254902005195618 0 0 0 1 0"></feColorMatrix></filter><filter id="__lottie_element_192" filterUnits="objectBoundingBox" x="0%" y="0%" width="100%" height="100%"><feColorMatrix type="matrix" color-interpolation-filters="sRGB" values="0 0 0 0 0.8980392217636108 0 0 0 0 0.886274516582489 0 0 0 0 0.9254902005195618 0 0 0 1 0"></feColorMatrix></filter></defs><g clip-path="url(#__lottie_element_158)"><g transform="matrix(0.8943790197372437,0.1901061236858368,-0.17311766743659973,0.8144546151161194,406.1659851074219,304.7980041503906)" opacity="1" style="display: block;"><g opacity="1" transform="matrix(1,0,0,1,-7.360000133514404,-0.8069999814033508)"><path fill="rgb(255,255,255)" fill-opacity="1" d=" M126.8324966430664,-235.9510040283203 C126.8324966430664,-235.9510040283203 126.8324966430664,235.9510040283203 126.8324966430664,235.9510040283203 C126.8324966430664,240.91810607910156 122.79959869384766,244.9510040283203 117.8324966430664,244.9510040283203 C117.8324966430664,244.9510040283203 -117.8324966430664,244.9510040283203 -117.8324966430664,244.9510040283203 C-122.79959869384766,244.9510040283203 -126.8324966430664,240.91810607910156 -126.8324966430664,235.9510040283203 C-126.8324966430664,235.9510040283203 -126.8324966430664,-235.9510040283203 -126.8324966430664,-235.9510040283203 C-126.8324966430664,-240.91810607910156 -122.79959869384766,-244.9510040283203 -117.8324966430664,-244.9510040283203 C-117.8324966430664,-244.9510040283203 117.8324966430664,-244.9510040283203 117.8324966430664,-244.9510040283203 C122.79959869384766,-244.9510040283203 126.8324966430664,-240.91810607910156 126.8324966430664,-235.9510040283203z"></path><path stroke-linecap="butt" stroke-linejoin="miter" fill-opacity="0" stroke-miterlimit="4" stroke="rgb(201,201,201)" stroke-opacity="1" stroke-width="1" d=" M126.8324966430664,-235.9510040283203 C126.8324966430664,-235.9510040283203 126.8324966430664,235.9510040283203 126.8324966430664,235.9510040283203 C126.8324966430664,240.91810607910156 122.79959869384766,244.9510040283203 117.8324966430664,244.9510040283203 C117.8324966430664,244.9510040283203 -117.8324966430664,244.9510040283203 -117.8324966430664,244.9510040283203 C-122.79959869384766,244.9510040283203 -126.8324966430664,240.91810607910156 -126.8324966430664,235.9510040283203 C-126.8324966430664,235.9510040283203 -126.8324966430664,-235.9510040283203 -126.8324966430664,-235.9510040283203 C-126.8324966430664,-240.91810607910156 -122.79959869384766,-244.9510040283203 -117.8324966430664,-244.9510040283203 C-117.8324966430664,-244.9510040283203 117.8324966430664,-244.9510040283203 117.8324966430664,-244.9510040283203 C122.79959869384766,-244.9510040283203 126.8324966430664,-240.91810607910156 126.8324966430664,-235.9510040283203z"></path></g></g><g transform="matrix(0.9781465530395508,0.20791146159172058,-0.20791085064411163,0.9781436324119568,413.67498779296875,243.37420654296875)" opacity="1" style="display: block;"><g opacity="1" transform="matrix(1,0,0,1,0,0)"><path fill="rgb(123,104,146)" fill-opacity="1" d=" M13.010000228881836,-5.764999866485596 C13.208999633789062,-7.105999946594238 14.006999969482422,-7.885000228881836 15.1850004196167,-7.885000228881836 C16.43600082397461,-7.885000228881836 17.160999298095703,-7.197000026702881 17.25200080871582,-5.764999866485596 C17.25200080871582,-5.764999866485596 13.010000228881836,-5.764999866485596 13.010000228881836,-5.764999866485596z M15.258000373840332,0.19900000095367432 C17.850000381469727,0.19900000095367432 19.48200035095215,-0.9430000185966492 19.790000915527344,-2.990999937057495 C19.790000915527344,-2.990999937057495 17.305999755859375,-2.990999937057495 17.305999755859375,-2.990999937057495 C17.14299964904785,-2.193000078201294 16.545000076293945,-1.6679999828338623 15.329999923706055,-1.6679999828338623 C13.89799976348877,-1.6679999828338623 13.04699993133545,-2.5739998817443848 12.973999977111816,-4.151000022888184 C12.973999977111816,-4.151000022888184 19.808000564575195,-4.151000022888184 19.808000564575195,-4.151000022888184 C19.808000564575195,-4.151000022888184 19.808000564575195,-4.875999927520752 19.808000564575195,-4.875999927520752 C19.808000564575195,-8.265999794006348 17.631999969482422,-9.697999954223633 15.1850004196167,-9.697999954223633 C12.430000305175781,-9.697999954223633 10.309000015258789,-7.758999824523926 10.309000015258789,-4.76800012588501 C10.309000015258789,-4.76800012588501 10.309000015258789,-4.622000217437744 10.309000015258789,-4.622000217437744 C10.309000015258789,-1.5950000286102295 12.394000053405762,0.19900000095367432 15.258000373840332,0.19900000095367432z"></path></g><g opacity="1" transform="matrix(1,0,0,1,0,0)"><path fill="rgb(123,104,146)" fill-opacity="1" d=" M5.02400016784668,0 C5.02400016784668,0 7.635000228881836,0 7.635000228881836,0 C7.635000228881836,0 7.635000228881836,-7.613999843597412 7.635000228881836,-7.613999843597412 C7.635000228881836,-7.613999843597412 9.701000213623047,-7.613999843597412 9.701000213623047,-7.613999843597412 C9.701000213623047,-7.613999843597412 9.701000213623047,-9.480999946594238 9.701000213623047,-9.480999946594238 C9.701000213623047,-9.480999946594238 7.635000228881836,-9.480999946594238 7.635000228881836,-9.480999946594238 C7.635000228881836,-9.480999946594238 7.635000228881836,-10.640999794006348 7.635000228881836,-10.640999794006348 C7.635000228881836,-11.366000175476074 7.979000091552734,-11.892000198364258 8.812999725341797,-11.892000198364258 C9.194000244140625,-11.892000198364258 9.520000457763672,-11.819000244140625 9.77400016784668,-11.727999687194824 C9.77400016784668,-11.727999687194824 9.77400016784668,-13.704000473022461 9.77400016784668,-13.704000473022461 C9.357000350952148,-13.831000328063965 8.97599983215332,-13.88599967956543 8.413999557495117,-13.88599967956543 C6.310999870300293,-13.88599967956543 5.02400016784668,-12.779999732971191 5.02400016784668,-10.567999839782715 C5.02400016784668,-10.567999839782715 5.02400016784668,-9.480999946594238 5.02400016784668,-9.480999946594238 C5.02400016784668,-9.480999946594238 3.7739999294281006,-9.480999946594238 3.7739999294281006,-9.480999946594238 C3.7739999294281006,-9.480999946594238 3.7739999294281006,-7.613999843597412 3.7739999294281006,-7.613999843597412 C3.7739999294281006,-7.613999843597412 5.02400016784668,-7.613999843597412 5.02400016784668,-7.613999843597412 C5.02400016784668,-7.613999843597412 5.02400016784668,0 5.02400016784668,0z"></path></g><g opacity="1" transform="matrix(1,0,0,1,0,0)"><path fill="rgb(123,104,146)" fill-opacity="1" d=" M-2.2269999980926514,-1.63100004196167 C-3.187999963760376,-1.63100004196167 -3.6050000190734863,-2.0840001106262207 -3.6050000190734863,-2.7730000019073486 C-3.6050000190734863,-3.7880001068115234 -2.7170000076293945,-4.114999771118164 -1.194000005722046,-4.114999771118164 C-1.194000005722046,-4.114999771118164 -0.17900000512599945,-4.114999771118164 -0.17900000512599945,-4.114999771118164 C-0.17900000512599945,-4.114999771118164 -0.17900000512599945,-3.316999912261963 -0.17900000512599945,-3.316999912261963 C-0.17900000512599945,-2.2660000324249268 -1.0670000314712524,-1.63100004196167 -2.2269999980926514,-1.63100004196167z M-3.006999969482422,0.19900000095367432 C-1.5210000276565552,0.19900000095367432 -0.6859999895095825,-0.38100001215934753 -0.1420000046491623,-1.1419999599456787 C-0.1420000046491623,-1.1419999599456787 -0.1420000046491623,0 -0.1420000046491623,0 C-0.1420000046491623,0 2.4130001068115234,0 2.4130001068115234,0 C2.4130001068115234,0 2.4130001068115234,-6.181000232696533 2.4130001068115234,-6.181000232696533 C2.4130001068115234,-8.755000114440918 0.7639999985694885,-9.697999954223633 -1.555999994277954,-9.697999954223633 C-3.875999927520752,-9.697999954223633 -5.6529998779296875,-8.701000213623047 -5.815999984741211,-6.453000068664551 C-5.815999984741211,-6.453000068664551 -3.3329999446868896,-6.453000068664551 -3.3329999446868896,-6.453000068664551 C-3.2239999771118164,-7.269000053405762 -2.753000020980835,-7.795000076293945 -1.7200000286102295,-7.795000076293945 C-0.5239999890327454,-7.795000076293945 -0.17900000512599945,-7.178999900817871 -0.17900000512599945,-6.054999828338623 C-0.17900000512599945,-6.054999828338623 -0.17900000512599945,-5.673999786376953 -0.17900000512599945,-5.673999786376953 C-0.17900000512599945,-5.673999786376953 -1.2480000257492065,-5.673999786376953 -1.2480000257492065,-5.673999786376953 C-4.1479997634887695,-5.673999786376953 -6.178999900817871,-4.840000152587891 -6.178999900817871,-2.628000020980835 C-6.178999900817871,-0.6340000033378601 -4.729000091552734,0.19900000095367432 -3.006999969482422,0.19900000095367432z"></path></g><g opacity="1" transform="matrix(1,0,0,1,0,0)"><path fill="rgb(123,104,146)" fill-opacity="1" d=" M-13.062000274658203,0.19900000095367432 C-9.871999740600586,0.19900000095367432 -7.568999767303467,-1.4500000476837158 -7.243000030517578,-4.658999919891357 C-7.243000030517578,-4.658999919891357 -10.125,-4.658999919891357 -10.125,-4.658999919891357 C-10.361000061035156,-2.990999937057495 -11.484999656677246,-2.174999952316284 -13.097999572753906,-2.174999952316284 C-15.237000465393066,-2.174999952316284 -16.469999313354492,-3.7339999675750732 -16.469999313354492,-6.416999816894531 C-16.469999313354492,-6.416999816894531 -16.469999313354492,-6.561999797821045 -16.469999313354492,-6.561999797821045 C-16.469999313354492,-9.244999885559082 -15.163999557495117,-10.84000015258789 -13.116000175476074,-10.84000015258789 C-11.484999656677246,-10.84000015258789 -10.614999771118164,-10.005999565124512 -10.397000312805176,-8.446999549865723 C-10.397000312805176,-8.446999549865723 -7.388000011444092,-8.446999549865723 -7.388000011444092,-8.446999549865723 C-7.696000099182129,-11.63700008392334 -10.015999794006348,-13.16100025177002 -13.133999824523926,-13.16100025177002 C-16.81399917602539,-13.16100025177002 -19.569000244140625,-10.477999687194824 -19.569000244140625,-6.544000148773193 C-19.569000244140625,-6.544000148773193 -19.569000244140625,-6.39900016784668 -19.569000244140625,-6.39900016784668 C-19.569000244140625,-2.4110000133514404 -17.304000854492188,0.19900000095367432 -13.062000274658203,0.19900000095367432z"></path></g></g><g filter="url(#__lottie_element_192)" transform="matrix(0.9781465530395508,0.20791146159172058,-0.20791085064411163,0.9781436324119568,338.92254638671875,275.0243225097656)" opacity="1" style="display: block;"><g opacity="1" transform="matrix(1,0,0,1,0,0)"><path stroke-linecap="round" stroke-linejoin="round" fill-opacity="0" stroke="rgb(195,189,212)" stroke-opacity="1" stroke-width="6" d=" M3.3499999046325684,3.183000087738037 C3.3499999046325684,3.183000087738037 93.70800018310547,3.183000087738037 93.70800018310547,3.183000087738037"></path></g><g opacity="1" transform="matrix(1,0,0,1,0,0)"><path stroke-linecap="round" stroke-linejoin="round" fill-opacity="0" stroke="rgb(195,189,212)" stroke-opacity="1" stroke-width="6" d=" M3.3499999046325684,22.527999877929688 C3.3499999046325684,22.527999877929688 128.5959930419922,22.527999877929688 128.5959930419922,22.527999877929688"></path></g></g><g filter="url(#__lottie_element_189)" transform="matrix(0.9781465530395508,0.20791146159172058,-0.20791085064411163,0.9781436324119568,326.5937805175781,337.8335266113281)" opacity="1" style="display: block;"><g opacity="1" transform="matrix(1,0,0,1,0,0)"><path stroke-linecap="round" stroke-linejoin="round" fill-opacity="0" stroke="rgb(195,189,212)" stroke-opacity="1" stroke-width="6" d=" M3.3499999046325684,3.183000087738037 C3.3499999046325684,3.183000087738037 93.70800018310547,3.183000087738037 93.70800018310547,3.183000087738037"></path></g><g opacity="1" transform="matrix(1,0,0,1,0,0)"><path stroke-linecap="round" stroke-linejoin="round" fill-opacity="0" stroke="rgb(195,189,212)" stroke-opacity="1" stroke-width="6" d=" M3.3499999046325684,22.527999877929688 C3.3499999046325684,22.527999877929688 128.5959930419922,22.527999877929688 128.5959930419922,22.527999877929688"></path></g></g><g filter="url(#__lottie_element_186)" transform="matrix(0.9781465530395508,0.20791146159172058,-0.20791085064411163,0.9781436324119568,313.8072814941406,397.9891662597656)" opacity="1" style="display: block;"><g opacity="1" transform="matrix(1,0,0,1,0,0)"><path stroke-linecap="round" stroke-linejoin="round" fill-opacity="0" stroke="rgb(195,189,212)" stroke-opacity="1" stroke-width="6" d=" M3.3499999046325684,3.183000087738037 C3.3499999046325684,3.183000087738037 93.70800018310547,3.183000087738037 93.70800018310547,3.183000087738037"></path></g><g opacity="1" transform="matrix(1,0,0,1,0,0)"><path stroke-linecap="round" stroke-linejoin="round" fill-opacity="0" stroke="rgb(195,189,212)" stroke-opacity="1" stroke-width="6" d=" M3.3499999046325684,22.527999877929688 C3.3499999046325684,22.527999877929688 128.5959930419922,22.527999877929688 128.5959930419922,22.527999877929688"></path></g></g><g clip-path="url(#__lottie_element_178)" transform="matrix(0.9781465530395508,0.20791146159172058,-0.20791085064411163,0.9781436324119568,402.58624267578125,156.67478942871094)" opacity="1" style="display: block;"><g transform="matrix(1,0,0,1,-1,-1)" opacity="1" style="display: block;"><g opacity="1" transform="matrix(1,0,0,1,27.839000701904297,30.142000198364258)"><path stroke-linecap="round" stroke-linejoin="round" fill-opacity="0" stroke="rgb(119,88,147)" stroke-opacity="1" stroke-width="2" d=" M-24.242000579833984,12.979999542236328 C-24.242000579833984,12.979999542236328 -24.242000579833984,-21.486000061035156 -24.242000579833984,-21.486000061035156 C-24.242000579833984,-21.486000061035156 24.242000579833984,-21.486000061035156 24.242000579833984,-21.486000061035156 C24.242000579833984,-21.486000061035156 24.242000579833984,12.979999542236328 24.242000579833984,12.979999542236328 C24.242000579833984,12.979999542236328 19.808000564575195,21.073999404907227 -1.0820000171661377,21.280000686645508 C-21.972000122070312,21.486000061035156 -24.242000579833984,12.979999542236328 -24.242000579833984,12.979999542236328z"></path></g><g opacity="1" transform="matrix(1,0,0,1,27.618000030517578,9.4399995803833)"><path fill="rgb(255,254,255)" fill-opacity="1" d=" M0,-8.4399995803833 C14.701000213623047,-8.4399995803833 26.618000030517578,-4.660999774932861 26.618000030517578,0 C26.618000030517578,4.660999774932861 14.701000213623047,8.4399995803833 0,8.4399995803833 C-14.701000213623047,8.4399995803833 -26.618000030517578,4.660999774932861 -26.618000030517578,0 C-26.618000030517578,-4.660999774932861 -14.701000213623047,-8.4399995803833 0,-8.4399995803833z"></path></g><g opacity="1" transform="matrix(1,0,0,1,27.618000030517578,9.4399995803833)"><path stroke-linecap="round" stroke-linejoin="round" fill-opacity="0" stroke="rgb(119,88,147)" stroke-opacity="1" stroke-width="2" d=" M0,-7.440000057220459 C14.14799976348877,-7.440000057220459 25.618000030517578,-4.109000205993652 25.618000030517578,0 C25.618000030517578,4.109000205993652 14.14799976348877,7.440000057220459 0,7.440000057220459 C-14.14799976348877,7.440000057220459 -25.618000030517578,4.109000205993652 -25.618000030517578,0 C-25.618000030517578,-4.109000205993652 -14.14799976348877,-7.440000057220459 0,-7.440000057220459z"></path></g><g opacity="1" transform="matrix(1,0,0,1,56.88199996948242,28.202999114990234)"><path stroke-linecap="round" stroke-linejoin="round" fill-opacity="0" stroke="rgb(119,88,147)" stroke-opacity="1" stroke-width="2" d=" M-4.802999973297119,-10.64799976348877 C-4.802999973297119,-10.64799976348877 2.509999990463257,-10.64799976348877 2.509999990463257,-10.64799976348877 C4.050000190734863,-7.184999942779541 4.802000045776367,-3.4240000247955322 4.710000038146973,0.36500000953674316 C4.710000038146973,7.176000118255615 2.509999990463257,10.64799976348877 2.509999990463257,10.64799976348877 C2.509999990463257,10.64799976348877 -4.802999973297119,10.64799976348877 -4.802999973297119,10.64799976348877"></path></g><g opacity="1" transform="matrix(1,0,0,1,27.667999267578125,11.993000030517578)"><path fill="rgb(248,245,242)" fill-opacity="1" d=" M-21.408000946044922,-0.1889999955892563 C-21.408000946044922,-0.1889999955892563 -21.408000946044922,-0.1889999955892563 -21.408000946044922,-0.1889999955892563 C-21.395000457763672,-0.19699999690055847 -15.057999610900879,-4.086999893188477 0.43799999356269836,-4.01200008392334 C15.949000358581543,-3.934000015258789 21.409000396728516,-0.1889999955892563 21.409000396728516,-0.1889999955892563 C21.409000396728516,-0.1889999955892563 13.409000396728516,4.086999893188477 0.43700000643730164,3.5510001182556152"></path></g><g opacity="1" transform="matrix(1,0,0,1,27.66900062561035,11.579000473022461)"><path fill="rgb(237,230,226)" fill-opacity="1" d=" M21.409000396728516,0.1889999955892563 C21.409000396728516,0.1889999955892563 21.409000396728516,0.1889999955892563 21.409000396728516,0.1889999955892563 C21.395999908447266,0.19699999690055847 15.057999610900879,4.086999893188477 -0.43799999356269836,4.01200008392334 C-15.949000358581543,3.934000015258789 -21.409000396728516,0.1889999955892563 -21.409000396728516,0.1889999955892563 C-21.409000396728516,0.1889999955892563 -13.407999992370605,-4.086999893188477 -0.4359999895095825,-3.5510001182556152"></path></g></g></g><g transform="matrix(0.9781465530395508,0.20791146159172058,-0.20791085064411163,0.9781436324119568,400.9990539550781,302.0202331542969)" opacity="1" style="display: block;"><g opacity="1" transform="matrix(1,0,0,1,0,0)"><path fill="rgb(237,230,225)" fill-opacity="1" d=" M63,-202 C63,-202 -40.75,-202 -40.75,-202 C-40.75,-202 -39.75,-196.75 -15,-195.25 C9.75,-193.75 14.25,-195.75 25,-184.25 C38.05699920654297,-170.2830047607422 30,-167.75 31.75,-157 C33.98899841308594,-143.2480010986328 60.27899932861328,-160.82400512695312 64.75,-140.5 C67.5,-128 61,-121.5 67.5,-97.5 C74.64900207519531,-71.1050033569336 114.25,-107.25 114.25,-107.25 C114.25,-107.25 114.75,-190.25 114.75,-190.25 C114.75,-190.25 117,-193.5 112.5,-198.75 C108,-204 104.25,-201.75 104.25,-201.75 C104.25,-201.75 63,-202 63,-202z"></path><path stroke-linecap="butt" stroke-linejoin="miter" fill-opacity="0" stroke-miterlimit="4" stroke="rgb(201,201,201)" stroke-opacity="1" stroke-width="0" d=" M63,-202 C63,-202 -40.75,-202 -40.75,-202 C-40.75,-202 -39.75,-196.75 -15,-195.25 C9.75,-193.75 14.25,-195.75 25,-184.25 C38.05699920654297,-170.2830047607422 30,-167.75 31.75,-157 C33.98899841308594,-143.2480010986328 60.27899932861328,-160.82400512695312 64.75,-140.5 C67.5,-128 61,-121.5 67.5,-97.5 C74.64900207519531,-71.1050033569336 114.25,-107.25 114.25,-107.25 C114.25,-107.25 114.75,-190.25 114.75,-190.25 C114.75,-190.25 117,-193.5 112.5,-198.75 C108,-204 104.25,-201.75 104.25,-201.75 C104.25,-201.75 63,-202 63,-202z"></path></g><g opacity="1" transform="matrix(1,0,0,1,0,0)"><path fill="rgb(237,230,225)" fill-opacity="1" d=" M115.2699966430664,-94.3290023803711 C115.2699966430664,-94.3290023803711 93.04100036621094,-86.37799835205078 89.42900085449219,-72.0530014038086 C85.81700134277344,-57.72800064086914 95.13500213623047,-53.67100143432617 100.06900024414062,-48.60599899291992 C115.61499786376953,-32.64699935913086 114.5469970703125,-10.534000396728516 114.85900115966797,-48.027000427246094 C114.9520034790039,-59.2140007019043 114.90499877929688,-67.37300109863281 114.90499877929688,-67.37300109863281 C114.90499877929688,-67.37300109863281 115.2699966430664,-94.3290023803711 115.2699966430664,-94.3290023803711z"></path><path stroke-linecap="butt" stroke-linejoin="miter" fill-opacity="0" stroke-miterlimit="4" stroke="rgb(201,201,201)" stroke-opacity="1" stroke-width="0" d=" M115.2699966430664,-94.3290023803711 C115.2699966430664,-94.3290023803711 93.04100036621094,-86.37799835205078 89.42900085449219,-72.0530014038086 C85.81700134277344,-57.72800064086914 95.13500213623047,-53.67100143432617 100.06900024414062,-48.60599899291992 C115.61499786376953,-32.64699935913086 114.5469970703125,-10.534000396728516 114.85900115966797,-48.027000427246094 C114.9520034790039,-59.2140007019043 114.90499877929688,-67.37300109863281 114.90499877929688,-67.37300109863281 C114.90499877929688,-67.37300109863281 115.2699966430664,-94.3290023803711 115.2699966430664,-94.3290023803711z"></path></g></g><g transform="matrix(1,0,0,1,329.5400085449219,300)" opacity="1" style="display: block;"><g opacity="1" transform="matrix(1,0,0,1,-156.27999877929688,-3.138000011444092)"><path fill="rgb(255,255,255)" fill-opacity="1" d=" M127.28949737548828,-220 C127.28949737548828,-220 127.28949737548828,220 127.28949737548828,220 C127.28949737548828,233.79750061035156 116.08699798583984,245 102.28949737548828,245 C102.28949737548828,245 -102.28949737548828,245 -102.28949737548828,245 C-116.08699798583984,245 -127.28949737548828,233.79750061035156 -127.28949737548828,220 C-127.28949737548828,220 -127.28949737548828,-220 -127.28949737548828,-220 C-127.28949737548828,-233.79750061035156 -116.08699798583984,-245 -102.28949737548828,-245 C-102.28949737548828,-245 102.28949737548828,-245 102.28949737548828,-245 C116.08699798583984,-245 127.28949737548828,-233.79750061035156 127.28949737548828,-220z"></path><path stroke-linecap="butt" stroke-linejoin="miter" fill-opacity="0" stroke-miterlimit="4" stroke="rgb(201,201,201)" stroke-opacity="1" stroke-width="1" d=" M127.28949737548828,-220 C127.28949737548828,-220 127.28949737548828,220 127.28949737548828,220 C127.28949737548828,233.79750061035156 116.08699798583984,245 102.28949737548828,245 C102.28949737548828,245 -102.28949737548828,245 -102.28949737548828,245 C-116.08699798583984,245 -127.28949737548828,233.79750061035156 -127.28949737548828,220 C-127.28949737548828,220 -127.28949737548828,-220 -127.28949737548828,-220 C-127.28949737548828,-233.79750061035156 -116.08699798583984,-245 -102.28949737548828,-245 C-102.28949737548828,-245 102.28949737548828,-245 102.28949737548828,-245 C116.08699798583984,-245 127.28949737548828,-233.79750061035156 127.28949737548828,-220z"></path></g></g><g transform="matrix(0.9056400060653687,0,0,0.9475200176239014,313.51300048828125,300)" opacity="1" style="display: block;"><g opacity="1" transform="matrix(1,0,0,1,-156.27999877929688,-3.138000011444092)"><path fill="rgb(195,189,213)" fill-opacity="0.3" d=" M127.28949737548828,-235 C127.28949737548828,-235 127.28949737548828,235 127.28949737548828,235 C127.28949737548828,240.5189971923828 122.8084945678711,245 117.28949737548828,245 C117.28949737548828,245 -117.28949737548828,245 -117.28949737548828,245 C-122.8084945678711,245 -127.28949737548828,240.5189971923828 -127.28949737548828,235 C-127.28949737548828,235 -127.28949737548828,-235 -127.28949737548828,-235 C-127.28949737548828,-240.5189971923828 -122.8084945678711,-245 -117.28949737548828,-245 C-117.28949737548828,-245 117.28949737548828,-245 117.28949737548828,-245 C122.8084945678711,-245 127.28949737548828,-240.5189971923828 127.28949737548828,-235z"></path><path stroke-linecap="butt" stroke-linejoin="miter" fill-opacity="0" stroke-miterlimit="4" stroke="rgb(201,201,201)" stroke-opacity="1" stroke-width="0" d=" M127.28949737548828,-235 C127.28949737548828,-235 127.28949737548828,235 127.28949737548828,235 C127.28949737548828,240.5189971923828 122.8084945678711,245 117.28949737548828,245 C117.28949737548828,245 -117.28949737548828,245 -117.28949737548828,245 C-122.8084945678711,245 -127.28949737548828,240.5189971923828 -127.28949737548828,235 C-127.28949737548828,235 -127.28949737548828,-235 -127.28949737548828,-235 C-127.28949737548828,-240.5189971923828 -122.8084945678711,-245 -117.28949737548828,-245 C-117.28949737548828,-245 117.28949737548828,-245 117.28949737548828,-245 C122.8084945678711,-245 127.28949737548828,-240.5189971923828 127.28949737548828,-235z"></path></g></g><g clip-path="url(#__lottie_element_163)" transform="matrix(0,-1,1,0,178.04200744628906,399.5)" opacity="1" style="display: block;"><g opacity="1" transform="matrix(1,0,0,1,0,0)"><path stroke-linecap="round" stroke-linejoin="round" fill-opacity="0" stroke="rgb(132,123,160)" stroke-opacity="1" stroke-width="6" d=" M3.2009999752044678,2.183000087738037 C3.2009999752044678,2.183000087738037 93.55799865722656,2.183000087738037 93.55799865722656,2.183000087738037"></path></g><g opacity="1" transform="matrix(1.7250100374221802,0,0,1.017109990119934,0,0)"><path stroke-linecap="round" stroke-linejoin="round" fill-opacity="0" stroke="rgb(195,189,212)" stroke-opacity="1" stroke-width="6" d=" M3.1760001182556152,-12.375 C3.1760001182556152,-12.375 128.4219970703125,-12.375 128.4219970703125,-12.375"></path></g></g><g transform="matrix(1,0,0,1,125.04299926757812,444)" opacity="1" style="display: block;"><g opacity="1" transform="matrix(1,0,0,1,0,0)"><path fill="rgb(123,104,146)" fill-opacity="1" d=" M81.00700378417969,0 C81.00700378417969,0 83.63500213623047,0 83.63500213623047,0 C83.63500213623047,0 83.63500213623047,-4.4770002365112305 83.63500213623047,-4.4770002365112305 C83.63500213623047,-4.4770002365112305 86.77100372314453,0 86.77100372314453,0 C86.77100372314453,0 89.74400329589844,0 89.74400329589844,0 C89.74400329589844,0 86.02799987792969,-5.165999889373779 86.02799987792969,-5.165999889373779 C86.02799987792969,-5.165999889373779 89.47200012207031,-9.480999946594238 89.47200012207031,-9.480999946594238 C89.47200012207031,-9.480999946594238 86.68099975585938,-9.480999946594238 86.68099975585938,-9.480999946594238 C86.68099975585938,-9.480999946594238 83.63500213623047,-5.473999977111816 83.63500213623047,-5.473999977111816 C83.63500213623047,-5.473999977111816 83.63500213623047,-13.777000427246094 83.63500213623047,-13.777000427246094 C83.63500213623047,-13.777000427246094 81.00700378417969,-13.777000427246094 81.00700378417969,-13.777000427246094 C81.00700378417969,-13.777000427246094 81.00700378417969,0 81.00700378417969,0z"></path></g><g opacity="1" transform="matrix(1,0,0,1,0,0)"><path fill="rgb(123,104,146)" fill-opacity="1" d=" M74.89900207519531,0.19900000095367432 C77.65399932861328,0.19900000095367432 79.28600311279297,-1.3589999675750732 79.43099975585938,-3.6070001125335693 C79.43099975585938,-3.6070001125335693 77.05599975585938,-3.6070001125335693 77.05599975585938,-3.6070001125335693 C76.92900085449219,-2.3919999599456787 76.0770034790039,-1.7760000228881836 75.0260009765625,-1.7760000228881836 C73.55799865722656,-1.7760000228881836 72.70600128173828,-2.75600004196167 72.70600128173828,-4.658999919891357 C72.70600128173828,-4.658999919891357 72.70600128173828,-4.803999900817871 72.70600128173828,-4.803999900817871 C72.70600128173828,-6.617000102996826 73.61199951171875,-7.631999969482422 74.97200012207031,-7.631999969482422 C76.04199981689453,-7.631999969482422 76.71199798583984,-7.124000072479248 76.89299774169922,-6.01800012588501 C76.89299774169922,-6.01800012588501 79.37699890136719,-6.01800012588501 79.37699890136719,-6.01800012588501 C79.14099884033203,-8.737000465393066 77.11000061035156,-9.697999954223633 74.91699981689453,-9.697999954223633 C72.21600341796875,-9.697999954223633 70.02300262451172,-7.831999778747559 70.02300262451172,-4.76800012588501 C70.02300262451172,-4.76800012588501 70.02300262451172,-4.622000217437744 70.02300262451172,-4.622000217437744 C70.02300262451172,-1.5219999551773071 72.1259994506836,0.19900000095367432 74.89900207519531,0.19900000095367432z"></path></g><g opacity="1" transform="matrix(1,0,0,1,0,0)"><path fill="rgb(123,104,146)" fill-opacity="1" d=" M63.7869987487793,-1.63100004196167 C62.82600021362305,-1.63100004196167 62.409000396728516,-2.0840001106262207 62.409000396728516,-2.7730000019073486 C62.409000396728516,-3.7880001068115234 63.297000885009766,-4.114999771118164 64.81999969482422,-4.114999771118164 C64.81999969482422,-4.114999771118164 65.83499908447266,-4.114999771118164 65.83499908447266,-4.114999771118164 C65.83499908447266,-4.114999771118164 65.83499908447266,-3.316999912261963 65.83499908447266,-3.316999912261963 C65.83499908447266,-2.2660000324249268 64.9469985961914,-1.63100004196167 63.7869987487793,-1.63100004196167z M63.00699996948242,0.19900000095367432 C64.49299621582031,0.19900000095367432 65.3270034790039,-0.38100001215934753 65.87100219726562,-1.1419999599456787 C65.87100219726562,-1.1419999599456787 65.87100219726562,0 65.87100219726562,0 C65.87100219726562,0 68.427001953125,0 68.427001953125,0 C68.427001953125,0 68.427001953125,-6.181000232696533 68.427001953125,-6.181000232696533 C68.427001953125,-8.755000114440918 66.7770004272461,-9.697999954223633 64.45700073242188,-9.697999954223633 C62.137001037597656,-9.697999954223633 60.36000061035156,-8.701000213623047 60.196998596191406,-6.453000068664551 C60.196998596191406,-6.453000068664551 62.680999755859375,-6.453000068664551 62.680999755859375,-6.453000068664551 C62.790000915527344,-7.269000053405762 63.26100158691406,-7.795000076293945 64.29399871826172,-7.795000076293945 C65.48999786376953,-7.795000076293945 65.83499908447266,-7.178999900817871 65.83499908447266,-6.054999828338623 C65.83499908447266,-6.054999828338623 65.83499908447266,-5.673999786376953 65.83499908447266,-5.673999786376953 C65.83499908447266,-5.673999786376953 64.76599884033203,-5.673999786376953 64.76599884033203,-5.673999786376953 C61.86600112915039,-5.673999786376953 59.834999084472656,-4.840000152587891 59.834999084472656,-2.628000020980835 C59.834999084472656,-0.6340000033378601 61.28499984741211,0.19900000095367432 63.00699996948242,0.19900000095367432z"></path></g><g opacity="1" transform="matrix(1,0,0,1,0,0)"><path fill="rgb(123,104,146)" fill-opacity="1" d=" M53.86199951171875,-1.8489999771118164 C52.43000030517578,-1.8489999771118164 51.52299880981445,-2.7739999294281006 51.52299880981445,-4.677000045776367 C51.52299880981445,-4.677000045776367 51.52299880981445,-4.822000026702881 51.52299880981445,-4.822000026702881 C51.52299880981445,-6.724999904632568 52.46500015258789,-7.685999870300293 53.84299850463867,-7.685999870300293 C55.16600036621094,-7.685999870300293 56.10900115966797,-6.74399995803833 56.10900115966797,-4.822000026702881 C56.10900115966797,-4.822000026702881 56.10900115966797,-4.677000045776367 56.10900115966797,-4.677000045776367 C56.10900115966797,-2.828000068664551 55.3120002746582,-1.8489999771118164 53.86199951171875,-1.8489999771118164z M54.64099884033203,0.19900000095367432 C56.99800109863281,0.19900000095367432 58.77399826049805,-1.559000015258789 58.77399826049805,-4.695000171661377 C58.77399826049805,-4.695000171661377 58.77399826049805,-4.840000152587891 58.77399826049805,-4.840000152587891 C58.77399826049805,-7.97599983215332 56.96099853515625,-9.697999954223633 54.64099884033203,-9.697999954223633 C53.244998931884766,-9.697999954223633 52.13999938964844,-8.899999618530273 51.61399841308594,-7.99399995803833 C51.61399841308594,-7.99399995803833 51.61399841308594,-13.777000427246094 51.61399841308594,-13.777000427246094 C51.61399841308594,-13.777000427246094 48.98500061035156,-13.777000427246094 48.98500061035156,-13.777000427246094 C48.98500061035156,-13.777000427246094 48.98500061035156,0 48.98500061035156,0 C48.98500061035156,0 51.61399841308594,0 51.61399841308594,0 C51.61399841308594,0 51.61399841308594,-1.5049999952316284 51.61399841308594,-1.5049999952316284 C52.10300064086914,-0.5260000228881836 53.17300033569336,0.19900000095367432 54.64099884033203,0.19900000095367432z"></path></g><g opacity="1" transform="matrix(1,0,0,1,0,0)"><path fill="rgb(123,104,146)" fill-opacity="1" d=" M33.91999816894531,0 C33.91999816894531,0 36.54800033569336,0 36.54800033569336,0 C36.54800033569336,0 36.54800033569336,-5.473999977111816 36.54800033569336,-5.473999977111816 C36.54800033569336,-6.869999885559082 37.400001525878906,-7.559000015258789 38.52399826049805,-7.559000015258789 C39.683998107910156,-7.559000015258789 40.19200134277344,-6.942999839782715 40.19200134277344,-5.656000137329102 C40.19200134277344,-5.656000137329102 40.19200134277344,0 40.19200134277344,0 C40.19200134277344,0 42.81999969482422,0 42.81999969482422,0 C42.81999969482422,0 42.81999969482422,-6.035999774932861 42.81999969482422,-6.035999774932861 C42.81999969482422,-8.574000358581543 41.49700164794922,-9.697999954223633 39.630001068115234,-9.697999954223633 C38.053001403808594,-9.697999954223633 37.01900100708008,-8.918999671936035 36.54800033569336,-7.97599983215332 C36.54800033569336,-7.97599983215332 36.54800033569336,-13.777000427246094 36.54800033569336,-13.777000427246094 C36.54800033569336,-13.777000427246094 33.91999816894531,-13.777000427246094 33.91999816894531,-13.777000427246094 C33.91999816894531,-13.777000427246094 33.91999816894531,0 33.91999816894531,0z"></path></g><g opacity="1" transform="matrix(1,0,0,1,0,0)"><path fill="rgb(123,104,146)" fill-opacity="1" d=" M28.327999114990234,0.19900000095367432 C30.829999923706055,0.19900000095367432 32.316001892089844,-0.8709999918937683 32.316001892089844,-2.9189999103546143 C32.316001892089844,-4.948999881744385 31.01099967956543,-5.546999931335449 28.63599967956543,-5.890999794006348 C27.257999420166016,-6.090000152587891 26.80500030517578,-6.327000141143799 26.80500030517578,-6.925000190734863 C26.80500030517578,-7.505000114440918 27.295000076293945,-7.9039998054504395 28.14699935913086,-7.9039998054504395 C29.05299949645996,-7.9039998054504395 29.488000869750977,-7.540999889373779 29.632999420166016,-6.76200008392334 C29.632999420166016,-6.76200008392334 32.04399871826172,-6.76200008392334 32.04399871826172,-6.76200008392334 C31.808000564575195,-8.937000274658203 30.23200035095215,-9.697999954223633 28.128999710083008,-9.697999954223633 C26.18899917602539,-9.697999954223633 24.375999450683594,-8.718999862670898 24.375999450683594,-6.743000030517578 C24.375999450683594,-4.894000053405762 25.354999542236328,-4.170000076293945 27.875,-3.7890000343322754 C29.235000610351562,-3.5899999141693115 29.79599952697754,-3.318000078201294 29.79599952697754,-2.6649999618530273 C29.79599952697754,-2.01200008392334 29.325000762939453,-1.63100004196167 28.309999465942383,-1.63100004196167 C27.167999267578125,-1.63100004196167 26.750999450683594,-2.121000051498413 26.642000198364258,-2.9730000495910645 C26.642000198364258,-2.9730000495910645 24.19499969482422,-2.9730000495910645 24.19499969482422,-2.9730000495910645 C24.285999298095703,-0.925000011920929 25.77199935913086,0.19900000095367432 28.327999114990234,0.19900000095367432z"></path></g><g opacity="1" transform="matrix(1,0,0,1,0,0)"><path fill="rgb(123,104,146)" fill-opacity="1" d=" M18.066999435424805,-1.63100004196167 C17.106000900268555,-1.63100004196167 16.690000534057617,-2.0840001106262207 16.690000534057617,-2.7730000019073486 C16.690000534057617,-3.7880001068115234 17.577999114990234,-4.114999771118164 19.10099983215332,-4.114999771118164 C19.10099983215332,-4.114999771118164 20.115999221801758,-4.114999771118164 20.115999221801758,-4.114999771118164 C20.115999221801758,-4.114999771118164 20.115999221801758,-3.316999912261963 20.115999221801758,-3.316999912261963 C20.115999221801758,-2.2660000324249268 19.226999282836914,-1.63100004196167 18.066999435424805,-1.63100004196167z M17.288000106811523,0.19900000095367432 C18.77400016784668,0.19900000095367432 19.607999801635742,-0.38100001215934753 20.152000427246094,-1.1419999599456787 C20.152000427246094,-1.1419999599456787 20.152000427246094,0 20.152000427246094,0 C20.152000427246094,0 22.70800018310547,0 22.70800018310547,0 C22.70800018310547,0 22.70800018310547,-6.181000232696533 22.70800018310547,-6.181000232696533 C22.70800018310547,-8.755000114440918 21.058000564575195,-9.697999954223633 18.738000869750977,-9.697999954223633 C16.417999267578125,-9.697999954223633 14.640999794006348,-8.701000213623047 14.477999687194824,-6.453000068664551 C14.477999687194824,-6.453000068664551 16.961999893188477,-6.453000068664551 16.961999893188477,-6.453000068664551 C17.070999145507812,-7.269000053405762 17.54199981689453,-7.795000076293945 18.575000762939453,-7.795000076293945 C19.770999908447266,-7.795000076293945 20.115999221801758,-7.178999900817871 20.115999221801758,-6.054999828338623 C20.115999221801758,-6.054999828338623 20.115999221801758,-5.673999786376953 20.115999221801758,-5.673999786376953 C20.115999221801758,-5.673999786376953 19.04599952697754,-5.673999786376953 19.04599952697754,-5.673999786376953 C16.145999908447266,-5.673999786376953 14.116000175476074,-4.840000152587891 14.116000175476074,-2.628000020980835 C14.116000175476074,-0.6340000033378601 15.565999984741211,0.19900000095367432 17.288000106811523,0.19900000095367432z"></path></g><g opacity="1" transform="matrix(1,0,0,1,0,0)"><path fill="rgb(123,104,146)" fill-opacity="1" d=" M7.232999801635742,0.19900000095367432 C10.42300033569336,0.19900000095367432 12.72599983215332,-1.4500000476837158 13.052000045776367,-4.658999919891357 C13.052000045776367,-4.658999919891357 10.168999671936035,-4.658999919891357 10.168999671936035,-4.658999919891357 C9.932999610900879,-2.990999937057495 8.8100004196167,-2.174999952316284 7.197000026702881,-2.174999952316284 C5.058000087738037,-2.174999952316284 3.825000047683716,-3.7339999675750732 3.825000047683716,-6.416999816894531 C3.825000047683716,-6.416999816894531 3.825000047683716,-6.561999797821045 3.825000047683716,-6.561999797821045 C3.825000047683716,-9.244999885559082 5.130000114440918,-10.84000015258789 7.177999973297119,-10.84000015258789 C8.809000015258789,-10.84000015258789 9.680000305175781,-10.005999565124512 9.89799976348877,-8.446999549865723 C9.89799976348877,-8.446999549865723 12.906999588012695,-8.446999549865723 12.906999588012695,-8.446999549865723 C12.598999977111816,-11.63700008392334 10.277999877929688,-13.16100025177002 7.159999847412109,-13.16100025177002 C3.4800000190734863,-13.16100025177002 0.7250000238418579,-10.477999687194824 0.7250000238418579,-6.544000148773193 C0.7250000238418579,-6.544000148773193 0.7250000238418579,-6.39900016784668 0.7250000238418579,-6.39900016784668 C0.7250000238418579,-2.4110000133514404 2.990999937057495,0.19900000095367432 7.232999801635742,0.19900000095367432z"></path></g></g></g></svg>